<svg width="72" height="72" viewBox="0 0 72 72" fill="none" xmlns="http://www.w3.org/2000/svg">
<path d="M60.1414 23.1448L61.2299 22.0563C61.3213 21.965 61.3939 21.8566 61.4434 21.7372C61.4929 21.6178 61.5184 21.4898 61.5184 21.3605C61.5184 21.2313 61.4929 21.1033 61.4434 20.9839C61.3939 20.8645 61.3213 20.756 61.2299 20.6647L60.2174 19.6522L60.8721 18.9975C61.8558 17.9418 62.3913 16.5456 62.3658 15.1029C62.3404 13.6602 61.756 12.2837 60.7357 11.2634C59.7154 10.2431 58.3389 9.6587 56.8962 9.63325C55.4535 9.6078 54.0573 10.1433 53.0016 11.127L52.3469 11.7817L51.3344 10.7692C51.243 10.6778 51.1346 10.6052 51.0152 10.5557C50.8958 10.5062 50.7678 10.4807 50.6386 10.4807C50.5093 10.4807 50.3813 10.5062 50.2619 10.5557C50.1425 10.6052 50.0341 10.6778 49.9427 10.7692L48.8537 11.8577C45.4394 8.88091 30.3672 -2.75609 11.8221 5.48847C11.6159 5.58019 11.4474 5.73999 11.345 5.9411C11.2425 6.14221 11.2123 6.37242 11.2594 6.59317C11.3064 6.81391 11.4279 7.01177 11.6035 7.15361C11.7791 7.29546 11.998 7.37266 12.2237 7.37229C12.3655 7.37229 24.9694 7.53766 39.2732 21.4387L38.2264 22.4855C38.0419 22.6702 37.9383 22.9206 37.9383 23.1816C37.9383 23.4427 38.0419 23.693 38.2264 23.8777L39.2389 24.8902L2.85136 61.2767C2.66701 61.4614 2.56348 61.7118 2.56348 61.9728C2.56348 62.2338 2.66701 62.4841 2.85136 62.6689L9.33136 69.1489C9.51612 69.3332 9.76646 69.4367 10.0275 69.4367C10.2885 69.4367 10.5388 69.3332 10.7236 69.1489L47.1111 32.7607L48.1236 33.7732C48.3084 33.9576 48.5587 34.0611 48.8197 34.0611C49.0807 34.0611 49.331 33.9576 49.5158 33.7732L50.5626 32.7264C64.4716 47.0381 64.6291 59.6482 64.6291 59.7742C64.6278 60.0003 64.7044 60.2198 64.8459 60.396C64.9875 60.5722 65.1854 60.6943 65.4064 60.7417C65.4744 60.7565 65.5438 60.7639 65.6134 60.7637C65.8039 60.7638 65.9903 60.7086 66.1501 60.6049C66.3098 60.5011 66.436 60.3533 66.5134 60.1792C74.7563 41.6336 63.1193 26.5609 60.1414 23.1448ZM54.3938 12.5186C54.7237 12.1661 55.1211 11.8835 55.5624 11.6878C56.0038 11.492 56.4799 11.387 56.9627 11.379C57.4454 11.371 57.9248 11.4601 58.3724 11.6412C58.8199 11.8223 59.2265 12.0915 59.5679 12.4329C59.9093 12.7743 60.1785 13.1808 60.3596 13.6284C60.5406 14.076 60.6298 14.5554 60.6218 15.0381C60.6138 15.5208 60.5088 15.997 60.313 16.4383C60.1172 16.8797 59.8347 17.2771 59.4822 17.607L58.8274 18.2617L53.7391 13.1734L54.3938 12.5186ZM16.2721 5.91372C31.9456 1.06891 44.3931 10.5977 47.461 13.2532L40.6688 20.0437C30.5511 10.1932 21.3346 6.96672 16.2721 5.91372ZM10.0283 67.0603L4.94049 61.9725L40.6317 26.2807L45.7195 31.3685L10.0283 67.0603ZM48.8189 31.6835L40.3167 23.1813L50.6397 12.8583L59.1419 21.3605L48.8189 31.6835ZM66.0876 55.7282C65.0346 50.6657 61.8081 41.4491 51.9576 31.3303L58.7481 24.5392C61.4026 27.6071 70.9313 40.0541 66.0865 55.7282H66.0876Z" fill="url(#paint0_linear)"/>
<defs>
<linearGradient id="paint0_linear" x1="5.30736" y1="5.92894" x2="83.4484" y2="43.8778" gradientUnits="userSpaceOnUse">
<stop offset="0.00520833" stop-color="#12A9AF"/>
<stop offset="0.307292" stop-color="#63E3DD"/>
<stop offset="0.583333" stop-color="#88FFBF"/>
<stop offset="0.932292" stop-color="#CEA7FF"/>
</linearGradient>
</defs>
</svg>
