<svg width="40" height="40" viewBox="0 0 40 40" fill="none" xmlns="http://www.w3.org/2000/svg">
<path fill-rule="evenodd" clip-rule="evenodd" d="M16.8548 29.4H23.8784V24.6825C23.8762 23.8391 23.5371 23.0319 22.937 22.4413L22.8444 22.3482C25.3221 21.5262 27 19.51 27 17.2639C26.995 16.3449 26.7238 15.4473 26.2196 14.68V13.0505C26.2198 12.4138 26.0729 11.7855 25.7904 11.2154L25.6831 11H25.01C24.1829 10.998 23.3893 11.3275 22.8054 11.9151L22.6201 12.1011C21.1514 11.6728 19.5916 11.6728 18.123 12.1011L17.9377 11.9151C17.3525 11.3262 16.5569 10.9967 15.7281 11H15.055L14.9429 11.2154C14.6604 11.7855 14.5135 12.4138 14.5136 13.0505V14.68C14.0095 15.4473 13.7382 16.3449 13.7332 17.2639C13.7332 19.51 15.411 21.5262 17.8888 22.3482L17.7815 22.451C17.2401 22.9845 16.9231 23.7429 16.8548 24.7022H16.0646C15.7525 24.7019 15.4706 24.5152 15.3477 24.2275L14.8843 23.1459C14.5759 22.4265 13.8699 21.9607 13.0894 21.9617H12.2114C11.6212 21.9617 11.1091 22.3825 11.0164 22.9405C10.9589 23.2815 11.0544 23.6308 11.2771 23.8949C11.4999 24.1591 11.8274 24.3111 12.1724 24.3106H12.4163C12.5792 24.3105 12.7251 24.412 12.7821 24.5651L13.1918 25.6662C13.5953 26.7317 14.6115 27.4379 15.7476 27.4425H16.8548V29.4Z" fill="url(#paint0_linear)"/>
<defs>
<linearGradient id="paint0_linear" x1="11.6567" y1="11.92" x2="31.2718" y2="20.2034" gradientUnits="userSpaceOnUse">
<stop offset="0.0677083" stop-color="#8591FF"/>
<stop offset="0.28125" stop-color="#63E3DD"/>
<stop offset="0.46875" stop-color="#88FFBF"/>
<stop offset="0.916667" stop-color="#CEA7FF"/>
</linearGradient>
</defs>
</svg>
