<svg width="354" height="341" viewBox="0 0 354 341" fill="none" xmlns="http://www.w3.org/2000/svg">
<g filter="url(#filter0_dd)">
<rect x="38" y="36" width="277.633" height="251" rx="9.68489" fill="white"/>
<rect x="63.8264" y="222.434" width="109.762" height="29.0547" rx="9.68489" fill="#88FFBF"/>
<path d="M96.9277 241.048L100.532 233.083H101.718L105.323 241.048H103.854L103.063 239.207H99.1762L98.3966 241.048H96.9277ZM101.108 234.653L99.6733 238.054H102.566L101.131 234.653H101.108ZM108.557 241.161C107.977 241.161 107.473 241.045 107.043 240.811C106.614 240.57 106.282 240.231 106.049 239.794C105.815 239.357 105.699 238.845 105.699 238.257C105.699 237.67 105.815 237.165 106.049 236.743C106.282 236.314 106.614 235.986 107.043 235.76C107.473 235.527 107.977 235.41 108.557 235.41C108.911 235.41 109.262 235.467 109.608 235.58C109.955 235.693 110.241 235.851 110.467 236.054L110.049 237.037C109.853 236.864 109.631 236.732 109.382 236.642C109.141 236.551 108.908 236.506 108.682 236.506C108.192 236.506 107.812 236.661 107.54 236.969C107.277 237.271 107.145 237.704 107.145 238.269C107.145 238.826 107.277 239.267 107.54 239.591C107.812 239.907 108.192 240.065 108.682 240.065C108.9 240.065 109.134 240.02 109.382 239.93C109.631 239.839 109.853 239.704 110.049 239.523L110.467 240.517C110.241 240.713 109.951 240.871 109.597 240.992C109.25 241.105 108.904 241.161 108.557 241.161ZM113.886 241.161C112.425 241.161 111.694 240.438 111.694 238.992V236.585H110.632V235.523H111.694V233.873H113.107V235.523H114.779V236.585H113.107V238.913C113.107 239.274 113.186 239.546 113.344 239.726C113.502 239.907 113.758 239.998 114.112 239.998C114.218 239.998 114.327 239.986 114.44 239.964C114.553 239.934 114.67 239.903 114.79 239.873L115.005 240.913C114.869 240.988 114.696 241.048 114.485 241.094C114.282 241.139 114.082 241.161 113.886 241.161ZM115.601 234.337V232.958H117.183V234.337H115.601ZM115.692 241.048V235.523H117.104V241.048H115.692ZM120.199 241.048L117.803 235.523H119.306L120.843 239.387L122.436 235.523H123.848L121.419 241.048H120.199ZM126.239 241.161C125.84 241.161 125.482 241.086 125.166 240.935C124.857 240.777 124.612 240.566 124.431 240.303C124.258 240.039 124.171 239.741 124.171 239.41C124.171 239.003 124.277 238.683 124.488 238.45C124.699 238.209 125.041 238.035 125.516 237.93C125.99 237.824 126.627 237.772 127.425 237.772H127.821V237.534C127.821 237.158 127.738 236.887 127.572 236.721C127.407 236.555 127.128 236.472 126.736 236.472C126.427 236.472 126.111 236.521 125.787 236.619C125.463 236.71 125.135 236.853 124.804 237.048L124.397 236.088C124.593 235.952 124.823 235.836 125.086 235.738C125.358 235.632 125.64 235.553 125.934 235.501C126.235 235.44 126.518 235.41 126.781 235.41C127.587 235.41 128.186 235.598 128.578 235.975C128.97 236.344 129.165 236.92 129.165 237.704V241.048H127.843V240.167C127.715 240.476 127.512 240.721 127.233 240.901C126.955 241.075 126.623 241.161 126.239 241.161ZM126.533 240.19C126.902 240.19 127.207 240.062 127.448 239.805C127.697 239.549 127.821 239.225 127.821 238.834V238.585H127.437C126.729 238.585 126.235 238.642 125.956 238.755C125.685 238.86 125.55 239.056 125.55 239.342C125.55 239.591 125.636 239.794 125.81 239.952C125.983 240.111 126.224 240.19 126.533 240.19ZM133.13 241.161C131.669 241.161 130.938 240.438 130.938 238.992V236.585H129.876V235.523H130.938V233.873H132.35V235.523H134.023V236.585H132.35V238.913C132.35 239.274 132.429 239.546 132.588 239.726C132.746 239.907 133.002 239.998 133.356 239.998C133.461 239.998 133.571 239.986 133.684 239.964C133.797 239.934 133.913 239.903 134.034 239.873L134.249 240.913C134.113 240.988 133.94 241.048 133.729 241.094C133.525 241.139 133.326 241.161 133.13 241.161ZM137.603 241.161C136.978 241.161 136.44 241.045 135.988 240.811C135.536 240.578 135.185 240.246 134.937 239.817C134.696 239.387 134.575 238.879 134.575 238.291C134.575 237.719 134.692 237.218 134.925 236.789C135.167 236.359 135.494 236.024 135.908 235.783C136.33 235.534 136.809 235.41 137.343 235.41C138.127 235.41 138.745 235.659 139.196 236.156C139.656 236.653 139.886 237.331 139.886 238.19V238.608H135.931C136.037 239.595 136.601 240.088 137.626 240.088C137.935 240.088 138.244 240.043 138.552 239.952C138.861 239.854 139.144 239.704 139.4 239.5L139.795 240.449C139.532 240.668 139.2 240.841 138.801 240.969C138.402 241.097 138.003 241.161 137.603 241.161ZM137.4 236.371C136.986 236.371 136.65 236.499 136.394 236.755C136.138 237.011 135.984 237.357 135.931 237.794H138.711C138.681 237.335 138.552 236.984 138.326 236.743C138.108 236.495 137.799 236.371 137.4 236.371Z" fill="#0A0A0A"/>
<path d="M221.747 241.161C220.918 241.161 220.206 240.996 219.611 240.664C219.023 240.325 218.572 239.851 218.255 239.24C217.939 238.623 217.781 237.896 217.781 237.06C217.781 236.224 217.939 235.501 218.255 234.89C218.572 234.28 219.023 233.809 219.611 233.478C220.206 233.139 220.918 232.97 221.747 232.97C222.281 232.97 222.786 233.052 223.261 233.218C223.743 233.384 224.138 233.621 224.447 233.93L223.972 235.082C223.633 234.796 223.287 234.589 222.933 234.461C222.579 234.325 222.199 234.258 221.792 234.258C220.986 234.258 220.372 234.502 219.95 234.992C219.528 235.474 219.317 236.163 219.317 237.06C219.317 237.956 219.528 238.649 219.95 239.139C220.372 239.628 220.986 239.873 221.792 239.873C222.199 239.873 222.579 239.809 222.933 239.681C223.287 239.546 223.633 239.335 223.972 239.048L224.447 240.201C224.138 240.502 223.743 240.739 223.261 240.913C222.786 241.078 222.281 241.161 221.747 241.161ZM227.194 241.161C226.795 241.161 226.437 241.086 226.121 240.935C225.812 240.777 225.567 240.566 225.386 240.303C225.213 240.039 225.126 239.741 225.126 239.41C225.126 239.003 225.232 238.683 225.443 238.45C225.654 238.209 225.996 238.035 226.471 237.93C226.946 237.824 227.582 237.772 228.381 237.772H228.776V237.534C228.776 237.158 228.693 236.887 228.527 236.721C228.362 236.555 228.083 236.472 227.691 236.472C227.383 236.472 227.066 236.521 226.742 236.619C226.418 236.71 226.091 236.853 225.759 237.048L225.352 236.088C225.548 235.952 225.778 235.836 226.042 235.738C226.313 235.632 226.595 235.553 226.889 235.501C227.19 235.44 227.473 235.41 227.737 235.41C228.543 235.41 229.141 235.598 229.533 235.975C229.925 236.344 230.121 236.92 230.121 237.704V241.048H228.799V240.167C228.671 240.476 228.467 240.721 228.189 240.901C227.91 241.075 227.578 241.161 227.194 241.161ZM227.488 240.19C227.857 240.19 228.162 240.062 228.403 239.805C228.652 239.549 228.776 239.225 228.776 238.834V238.585H228.392C227.684 238.585 227.19 238.642 226.912 238.755C226.641 238.86 226.505 239.056 226.505 239.342C226.505 239.591 226.592 239.794 226.765 239.952C226.938 240.111 227.179 240.19 227.488 240.19ZM231.554 241.048V235.523H232.933V236.382C233.121 236.065 233.373 235.824 233.69 235.659C234.014 235.493 234.375 235.41 234.774 235.41C236.078 235.41 236.729 236.167 236.729 237.681V241.048H235.317V237.749C235.317 237.32 235.234 237.007 235.068 236.811C234.91 236.615 234.661 236.517 234.322 236.517C233.908 236.517 233.577 236.649 233.328 236.913C233.087 237.169 232.967 237.512 232.967 237.941V241.048H231.554ZM240.717 241.161C240.137 241.161 239.633 241.045 239.203 240.811C238.774 240.57 238.442 240.231 238.209 239.794C237.975 239.357 237.859 238.845 237.859 238.257C237.859 237.67 237.975 237.165 238.209 236.743C238.442 236.314 238.774 235.986 239.203 235.76C239.633 235.527 240.137 235.41 240.717 235.41C241.071 235.41 241.422 235.467 241.768 235.58C242.115 235.693 242.401 235.851 242.627 236.054L242.209 237.037C242.013 236.864 241.791 236.732 241.542 236.642C241.301 236.551 241.068 236.506 240.842 236.506C240.352 236.506 239.972 236.661 239.7 236.969C239.437 237.271 239.305 237.704 239.305 238.269C239.305 238.826 239.437 239.267 239.7 239.591C239.972 239.907 240.352 240.065 240.842 240.065C241.06 240.065 241.294 240.02 241.542 239.93C241.791 239.839 242.013 239.704 242.209 239.523L242.627 240.517C242.401 240.713 242.111 240.871 241.757 240.992C241.41 241.105 241.064 241.161 240.717 241.161ZM246.106 241.161C245.481 241.161 244.942 241.045 244.49 240.811C244.038 240.578 243.688 240.246 243.439 239.817C243.198 239.387 243.078 238.879 243.078 238.291C243.078 237.719 243.195 237.218 243.428 236.789C243.669 236.359 243.997 236.024 244.411 235.783C244.833 235.534 245.311 235.41 245.846 235.41C246.629 235.41 247.247 235.659 247.699 236.156C248.159 236.653 248.388 237.331 248.388 238.19V238.608H244.434C244.539 239.595 245.104 240.088 246.129 240.088C246.437 240.088 246.746 240.043 247.055 239.952C247.364 239.854 247.646 239.704 247.902 239.5L248.298 240.449C248.034 240.668 247.703 240.841 247.304 240.969C246.904 241.097 246.505 241.161 246.106 241.161ZM245.903 236.371C245.488 236.371 245.153 236.499 244.897 236.755C244.641 237.011 244.486 237.357 244.434 237.794H247.213C247.183 237.335 247.055 236.984 246.829 236.743C246.611 236.495 246.302 236.371 245.903 236.371ZM251.428 241.161C250.772 241.161 250.286 240.984 249.97 240.63C249.661 240.269 249.507 239.741 249.507 239.048V233.083H250.919V238.981C250.919 239.659 251.205 239.998 251.778 239.998C251.861 239.998 251.944 239.994 252.027 239.986C252.109 239.979 252.189 239.964 252.264 239.941L252.241 241.06C251.97 241.127 251.699 241.161 251.428 241.161Z" fill="#0A0A0A"/>
<rect x="180.852" y="223.241" width="108.148" height="27.4405" rx="8.87781" stroke="#8591FF" stroke-width="1.61415"/>
<rect x="64.2299" y="177.642" width="225.174" height="31.4759" rx="9.28135" stroke="#CCCCCC" stroke-width="0.807074"/>
<path d="M80.3214 197.41C79.6962 197.41 79.1237 197.331 78.604 197.173C78.0842 197.007 77.6435 196.778 77.282 196.484L77.6548 195.557C78.0315 195.843 78.4345 196.058 78.8638 196.201C79.2932 196.344 79.7791 196.416 80.3214 196.416C80.9617 196.416 81.4325 196.303 81.7338 196.077C82.0426 195.843 82.1971 195.542 82.1971 195.173C82.1971 194.872 82.0878 194.634 81.8694 194.461C81.6509 194.28 81.2856 194.137 80.7734 194.032L79.5644 193.783C78.8488 193.633 78.314 193.384 77.9599 193.038C77.6134 192.691 77.4402 192.224 77.4402 191.636C77.4402 191.162 77.5645 190.744 77.813 190.382C78.0691 190.021 78.4232 189.742 78.8751 189.546C79.3271 189.343 79.8469 189.241 80.4344 189.241C80.9768 189.241 81.4777 189.324 81.9372 189.49C82.4042 189.648 82.7997 189.881 83.1236 190.19L82.7394 191.083C82.0991 190.518 81.327 190.235 80.4231 190.235C79.8657 190.235 79.4213 190.36 79.0898 190.608C78.7659 190.857 78.604 191.188 78.604 191.603C78.604 191.919 78.7057 192.171 78.909 192.36C79.1124 192.548 79.4514 192.691 79.926 192.789L81.1236 193.038C81.8769 193.196 82.4381 193.441 82.8072 193.772C83.1763 194.096 83.3609 194.537 83.3609 195.094C83.3609 195.561 83.2366 195.968 82.988 196.314C82.7394 196.661 82.3891 196.932 81.9372 197.128C81.4852 197.316 80.9466 197.41 80.3214 197.41ZM86.8877 197.41C86.1947 197.41 85.6787 197.233 85.3398 196.879C85.0008 196.525 84.8313 196.013 84.8313 195.343V192.676H83.7579V191.795H84.8313V190.134H85.9725V191.795H87.6787V192.676H85.9725V195.252C85.9725 195.651 86.0554 195.953 86.2211 196.156C86.3944 196.359 86.6731 196.461 87.0572 196.461C87.1778 196.461 87.2945 196.45 87.4075 196.427C87.5205 196.397 87.6335 196.363 87.7465 196.326L87.9273 197.184C87.8143 197.252 87.6561 197.305 87.4527 197.342C87.2568 197.388 87.0685 197.41 86.8877 197.41ZM90.427 197.41C90.0428 197.41 89.7001 197.335 89.3988 197.184C89.0975 197.034 88.8564 196.83 88.6756 196.574C88.5024 196.318 88.4158 196.028 88.4158 195.704C88.4158 195.297 88.5175 194.977 88.7208 194.744C88.9318 194.51 89.2745 194.341 89.7491 194.235C90.2311 194.13 90.879 194.077 91.6925 194.077H92.0767V193.783C92.0767 193.354 91.9863 193.045 91.8055 192.857C91.6247 192.668 91.3271 192.574 90.9129 192.574C90.5965 192.574 90.2801 192.623 89.9637 192.721C89.6474 192.812 89.3235 192.958 88.992 193.162L88.6417 192.36C88.928 192.156 89.2858 191.994 89.7152 191.874C90.1445 191.753 90.555 191.693 90.9467 191.693C91.7 191.693 92.2574 191.874 92.619 192.235C92.9806 192.589 93.1614 193.147 93.1614 193.908V197.309H92.088V196.393C91.9524 196.71 91.7414 196.958 91.4552 197.139C91.169 197.32 90.8262 197.41 90.427 197.41ZM90.653 196.597C91.0597 196.597 91.3987 196.454 91.6699 196.167C91.9411 195.881 92.0767 195.52 92.0767 195.083V194.778H91.7038C91.1539 194.778 90.7208 194.804 90.4044 194.857C90.0956 194.909 89.8733 195 89.7378 195.128C89.6097 195.248 89.5457 195.418 89.5457 195.636C89.5457 195.923 89.6436 196.156 89.8394 196.337C90.0353 196.51 90.3065 196.597 90.653 196.597ZM94.7332 197.309V189.343H95.8744V194.201H95.897L98.2924 191.795H99.7047L97.0608 194.45L99.9081 197.309H98.4844L95.897 194.789H95.8744V197.309H94.7332ZM103.025 197.41C102.121 197.41 101.41 197.158 100.89 196.653C100.37 196.141 100.11 195.444 100.11 194.563C100.11 193.998 100.223 193.501 100.449 193.071C100.683 192.635 101.003 192.296 101.41 192.055C101.816 191.813 102.283 191.693 102.811 191.693C103.571 191.693 104.17 191.938 104.607 192.427C105.044 192.91 105.263 193.576 105.263 194.427V194.812H101.217C101.3 195.956 101.907 196.529 103.037 196.529C103.353 196.529 103.662 196.48 103.963 196.382C104.272 196.284 104.562 196.122 104.833 195.896L105.172 196.687C104.924 196.913 104.603 197.09 104.212 197.218C103.82 197.346 103.425 197.41 103.025 197.41ZM102.856 192.495C102.381 192.495 102.005 192.642 101.726 192.936C101.447 193.23 101.278 193.621 101.217 194.111H104.302C104.28 193.599 104.144 193.203 103.895 192.925C103.647 192.638 103.3 192.495 102.856 192.495ZM109.622 197.309V189.343H110.605L113.554 194.845L116.492 189.343H117.452V197.309H116.401V191.467L113.904 196.088H113.192L110.684 191.49V197.309H109.622ZM124.243 197.309V190.326H121.418V189.343H128.232V190.326H125.407V197.309H124.243ZM130.606 197.41C130.049 197.41 129.567 197.294 129.16 197.06C128.753 196.827 128.437 196.499 128.211 196.077C127.993 195.648 127.883 195.139 127.883 194.552C127.883 193.964 127.993 193.459 128.211 193.038C128.437 192.608 128.753 192.277 129.16 192.043C129.567 191.81 130.049 191.693 130.606 191.693C131.149 191.693 131.623 191.81 132.03 192.043C132.437 192.277 132.753 192.608 132.979 193.038C133.205 193.459 133.318 193.964 133.318 194.552C133.318 195.139 133.205 195.648 132.979 196.077C132.753 196.499 132.437 196.827 132.03 197.06C131.623 197.294 131.149 197.41 130.606 197.41ZM130.606 196.529C131.073 196.529 131.45 196.359 131.736 196.021C132.023 195.682 132.166 195.192 132.166 194.552C132.166 193.911 132.023 193.425 131.736 193.094C131.45 192.755 131.073 192.586 130.606 192.586C130.132 192.586 129.751 192.755 129.465 193.094C129.179 193.425 129.036 193.911 129.036 194.552C129.036 195.192 129.179 195.682 129.465 196.021C129.751 196.359 130.132 196.529 130.606 196.529ZM134.6 197.309V189.343H135.741V194.201H135.764L138.159 191.795H139.571L136.927 194.45L139.775 197.309H138.351L135.764 194.789H135.741V197.309H134.6ZM142.892 197.41C141.988 197.41 141.276 197.158 140.756 196.653C140.237 196.141 139.977 195.444 139.977 194.563C139.977 193.998 140.09 193.501 140.316 193.071C140.549 192.635 140.869 192.296 141.276 192.055C141.683 191.813 142.15 191.693 142.677 191.693C143.438 191.693 144.037 191.938 144.474 192.427C144.911 192.91 145.129 193.576 145.129 194.427V194.812H141.084C141.167 195.956 141.773 196.529 142.903 196.529C143.22 196.529 143.528 196.48 143.83 196.382C144.139 196.284 144.429 196.122 144.7 195.896L145.039 196.687C144.79 196.913 144.47 197.09 144.078 197.218C143.687 197.346 143.291 197.41 142.892 197.41ZM142.722 192.495C142.248 192.495 141.871 192.642 141.593 192.936C141.314 193.23 141.144 193.621 141.084 194.111H144.169C144.146 193.599 144.011 193.203 143.762 192.925C143.513 192.638 143.167 192.495 142.722 192.495ZM146.373 197.309V191.795H147.481V192.71C147.669 192.378 147.925 192.126 148.249 191.953C148.58 191.78 148.949 191.693 149.356 191.693C150.659 191.693 151.311 192.431 151.311 193.908V197.309H150.17V193.975C150.17 193.501 150.076 193.154 149.887 192.936C149.706 192.717 149.42 192.608 149.029 192.608C148.569 192.608 148.2 192.755 147.921 193.049C147.65 193.335 147.514 193.716 147.514 194.19V197.309H146.373Z" fill="#8C8C8C"/>
<path d="M121.952 142.778L127.101 131.398H128.796L133.945 142.778H131.847L130.717 140.147H125.164L124.05 142.778H121.952ZM127.924 133.642L125.874 138.501H130.006L127.956 133.642H127.924ZM138.566 142.939C137.737 142.939 137.016 142.773 136.403 142.439C135.789 142.095 135.316 141.611 134.982 140.986C134.649 140.362 134.482 139.63 134.482 138.791C134.482 137.952 134.649 137.231 134.982 136.628C135.316 136.015 135.789 135.547 136.403 135.224C137.016 134.89 137.737 134.723 138.566 134.723C139.071 134.723 139.572 134.804 140.067 134.966C140.562 135.127 140.971 135.353 141.293 135.644L140.696 137.048C140.416 136.8 140.099 136.612 139.744 136.483C139.4 136.354 139.066 136.289 138.743 136.289C138.044 136.289 137.5 136.51 137.113 136.951C136.736 137.381 136.548 138 136.548 138.807C136.548 139.604 136.736 140.233 137.113 140.696C137.5 141.148 138.044 141.374 138.743 141.374C139.055 141.374 139.389 141.309 139.744 141.18C140.099 141.051 140.416 140.857 140.696 140.599L141.293 142.019C140.971 142.299 140.556 142.525 140.051 142.697C139.556 142.859 139.061 142.939 138.566 142.939ZM146.178 142.939C144.091 142.939 143.047 141.906 143.047 139.84V136.402H141.53V134.885H143.047V132.528H145.065V134.885H147.454V136.402H145.065V139.727C145.065 140.244 145.178 140.631 145.404 140.89C145.63 141.148 145.995 141.277 146.501 141.277C146.652 141.277 146.808 141.261 146.969 141.228C147.131 141.185 147.298 141.142 147.47 141.099L147.776 142.584C147.583 142.692 147.335 142.778 147.034 142.843C146.743 142.907 146.458 142.939 146.178 142.939ZM148.629 133.19V131.221H150.888V133.19H148.629ZM148.758 142.778V134.885H150.775V142.778H148.758ZM155.196 142.778L151.774 134.885H153.921L156.116 140.405L158.392 134.885H160.41L156.94 142.778H155.196ZM163.825 142.939C163.255 142.939 162.744 142.832 162.292 142.617C161.85 142.391 161.501 142.089 161.242 141.713C160.995 141.336 160.871 140.911 160.871 140.438C160.871 139.856 161.022 139.399 161.323 139.066C161.624 138.721 162.114 138.474 162.792 138.323C163.47 138.172 164.379 138.097 165.52 138.097H166.085V137.758C166.085 137.22 165.967 136.833 165.73 136.596C165.493 136.359 165.095 136.241 164.535 136.241C164.094 136.241 163.642 136.311 163.179 136.451C162.717 136.58 162.249 136.784 161.775 137.064L161.194 135.692C161.474 135.498 161.802 135.331 162.179 135.192C162.566 135.041 162.97 134.928 163.389 134.853C163.82 134.767 164.223 134.723 164.6 134.723C165.751 134.723 166.607 134.993 167.166 135.531C167.726 136.058 168.006 136.881 168.006 138V142.778H166.117V141.519C165.934 141.96 165.644 142.31 165.246 142.568C164.847 142.816 164.374 142.939 163.825 142.939ZM164.245 141.551C164.772 141.551 165.208 141.368 165.552 141.003C165.907 140.637 166.085 140.174 166.085 139.614V139.259H165.536C164.525 139.259 163.82 139.34 163.422 139.501C163.034 139.652 162.84 139.932 162.84 140.341C162.84 140.696 162.964 140.986 163.212 141.212C163.459 141.438 163.804 141.551 164.245 141.551ZM173.669 142.939C171.582 142.939 170.538 141.906 170.538 139.84V136.402H169.021V134.885H170.538V132.528H172.556V134.885H174.945V136.402H172.556V139.727C172.556 140.244 172.669 140.631 172.895 140.89C173.121 141.148 173.486 141.277 173.992 141.277C174.143 141.277 174.299 141.261 174.46 141.228C174.622 141.185 174.789 141.142 174.961 141.099L175.267 142.584C175.074 142.692 174.826 142.778 174.525 142.843C174.234 142.907 173.949 142.939 173.669 142.939ZM180.06 142.939C179.167 142.939 178.397 142.773 177.752 142.439C177.106 142.106 176.606 141.632 176.251 141.019C175.906 140.405 175.734 139.679 175.734 138.84C175.734 138.022 175.901 137.306 176.234 136.693C176.579 136.079 177.047 135.6 177.639 135.256C178.241 134.901 178.925 134.723 179.689 134.723C180.808 134.723 181.69 135.079 182.336 135.789C182.992 136.499 183.32 137.468 183.32 138.694V139.292H177.671C177.822 140.701 178.629 141.406 180.092 141.406C180.533 141.406 180.975 141.341 181.416 141.212C181.857 141.072 182.261 140.857 182.626 140.567L183.191 141.923C182.815 142.235 182.341 142.482 181.771 142.665C181.201 142.848 180.63 142.939 180.06 142.939ZM179.769 136.096C179.178 136.096 178.699 136.278 178.333 136.644C177.967 137.01 177.746 137.505 177.671 138.129H181.642C181.599 137.473 181.416 136.973 181.093 136.628C180.781 136.273 180.34 136.096 179.769 136.096ZM189.463 142.778V131.398H193.692C195.596 131.398 197.065 131.888 198.098 132.867C199.142 133.846 199.664 135.251 199.664 137.08C199.664 138.899 199.142 140.303 198.098 141.293C197.065 142.283 195.596 142.778 193.692 142.778H189.463ZM191.529 141.067H193.563C196.188 141.067 197.501 139.738 197.501 137.08C197.501 134.433 196.188 133.109 193.563 133.109H191.529V141.067ZM200.295 142.778L205.444 131.398H207.139L212.288 142.778H210.189L209.06 140.147H203.507L202.393 142.778H200.295ZM206.267 133.642L204.217 138.501H208.349L206.299 133.642H206.267ZM218.591 142.939C217.407 142.939 216.39 142.703 215.54 142.229C214.701 141.745 214.055 141.067 213.603 140.195C213.151 139.313 212.925 138.275 212.925 137.08C212.925 135.886 213.151 134.853 213.603 133.981C214.055 133.109 214.701 132.437 215.54 131.963C216.39 131.479 217.407 131.237 218.591 131.237C219.355 131.237 220.076 131.355 220.754 131.592C221.443 131.829 222.008 132.168 222.449 132.609L221.771 134.255C221.287 133.846 220.792 133.551 220.286 133.368C219.78 133.174 219.237 133.077 218.656 133.077C217.504 133.077 216.627 133.427 216.025 134.126C215.422 134.815 215.121 135.8 215.121 137.08C215.121 138.361 215.422 139.351 216.025 140.05C216.627 140.75 217.504 141.099 218.656 141.099C219.237 141.099 219.78 141.008 220.286 140.825C220.792 140.631 221.287 140.33 221.771 139.921L222.449 141.567C222.008 141.998 221.443 142.337 220.754 142.584C220.076 142.821 219.355 142.939 218.591 142.939Z" fill="#0A0A0A"/>
<circle cx="173.588" cy="82.0033" r="19.3698" stroke="#CEA7FF" stroke-width="1.61415"/>
<path d="M173.563 85.0498C173.304 85.0498 173.081 84.9637 172.891 84.7915C172.719 84.6193 172.616 84.3697 172.581 84.0426L171.626 73.9961L171.6 73.7378C171.6 73.2041 171.781 72.7823 172.142 72.4723C172.521 72.1452 172.994 71.9816 173.563 71.9816C174.165 71.9816 174.656 72.171 175.035 72.5498C175.414 72.9114 175.568 73.4021 175.5 74.0219L174.544 84.0426C174.51 84.3697 174.398 84.6193 174.208 84.7915C174.036 84.9637 173.821 85.0498 173.563 85.0498ZM173.563 90.4733C173.012 90.4733 172.555 90.2925 172.194 89.931C171.832 89.5522 171.651 89.0873 171.651 88.5363C171.651 87.9854 171.832 87.5291 172.194 87.1675C172.555 86.7888 173.012 86.5994 173.563 86.5994C174.114 86.5994 174.57 86.7888 174.931 87.1675C175.293 87.5291 175.474 87.9854 175.474 88.5363C175.474 89.0873 175.293 89.5522 174.931 89.931C174.57 90.2925 174.114 90.4733 173.563 90.4733Z" fill="#CEA7FF"/>
</g>
<defs>
<filter id="filter0_dd" x="0" y="0" width="353.633" height="341" filterUnits="userSpaceOnUse" color-interpolation-filters="sRGB">
<feFlood flood-opacity="0" result="BackgroundImageFix"/>
<feColorMatrix in="SourceAlpha" type="matrix" values="0 0 0 0 0 0 0 0 0 0 0 0 0 0 0 0 0 0 127 0"/>
<feOffset dy="16"/>
<feGaussianBlur stdDeviation="19"/>
<feColorMatrix type="matrix" values="0 0 0 0 0.80309 0 0 0 0 0.839352 0 0 0 0 0.841667 0 0 0 0.4 0"/>
<feBlend mode="normal" in2="BackgroundImageFix" result="effect1_dropShadow"/>
<feColorMatrix in="SourceAlpha" type="matrix" values="0 0 0 0 0 0 0 0 0 0 0 0 0 0 0 0 0 0 127 0"/>
<feOffset/>
<feGaussianBlur stdDeviation="18"/>
<feColorMatrix type="matrix" values="0 0 0 0 0.873437 0 0 0 0 0.887771 0 0 0 0 0.895833 0 0 0 0.25 0"/>
<feBlend mode="normal" in2="effect1_dropShadow" result="effect2_dropShadow"/>
<feBlend mode="normal" in="SourceGraphic" in2="effect2_dropShadow" result="shape"/>
</filter>
</defs>
</svg>
