<svg width="80" height="80" viewBox="0 0 80 80" fill="none" xmlns="http://www.w3.org/2000/svg">
<path fill-rule="evenodd" clip-rule="evenodd" d="M77.5 45H63.75V16.25C63.75 15.9186 63.6182 15.6006 63.3838 15.3662L50.8838 2.86621C50.6494 2.63184 50.3314 2.5 50 2.5H3.75C3.05969 2.5 2.5 3.05969 2.5 3.75V63.75C2.5 64.4403 3.05969 65 3.75 65H50V76.25C50 76.9403 50.5597 77.5 51.25 77.5H77.5C78.1903 77.5 78.75 76.9403 78.75 76.25V46.25C78.75 45.5597 78.1903 45 77.5 45ZM50 46.25V62.5H5V5H49.4824L59.4824 15H51.25V8.75H48.75V16.25C48.75 16.9403 49.3097 17.5 50 17.5H61.25V45H51.25C50.5597 45 50 45.5597 50 46.25ZM76.25 75H52.5V47.5H76.25V75ZM56.25 60H60V62.5H56.25V60ZM66.25 60H62.5V62.5H66.25V60ZM68.75 60H72.5V62.5H68.75V60ZM60 65H56.25V67.5H60V65ZM62.5 65H66.25V67.5H62.5V65ZM72.5 65H68.75V67.5H72.5V65ZM56.25 70H60V72.5H56.25V70ZM66.25 70H62.5V72.5H66.25V70ZM68.75 70H72.5V72.5H68.75V70ZM72.5 57.5H56.25C55.5597 57.5 55 56.9403 55 56.25V51.25C55 50.5597 55.5597 50 56.25 50H72.5C73.1903 50 73.75 50.5597 73.75 51.25V56.25C73.75 56.9403 73.1903 57.5 72.5 57.5ZM71.25 52.5H57.5V55H71.25V52.5ZM28.8385 28.3209L21.7676 21.25L28.8385 14.1791C29.3268 13.6908 29.3268 12.8998 28.8385 12.4115C26.4777 10.0501 23.3386 8.75 20 8.75C16.6614 8.75 13.5223 10.0501 11.1615 12.4115C8.80005 14.7723 7.5 17.9114 7.5 21.25C7.5 24.5886 8.80005 27.7277 11.1615 30.0885C13.5223 32.45 16.6614 33.75 20 33.75C23.3386 33.75 26.4777 32.45 28.8385 30.0885C29.3268 29.6002 29.3268 28.8092 28.8385 28.3209ZM20 31.25C17.3291 31.25 14.8181 30.21 12.9291 28.3209C11.04 26.4319 10 23.9209 10 21.25C10 18.5791 11.04 16.0681 12.9291 14.1791C14.8181 12.29 17.3291 11.25 20 11.25C22.2498 11.25 24.386 11.9879 26.1328 13.3496L19.1162 20.3662C18.6279 20.8545 18.6279 21.6455 19.1162 22.1338L26.1328 29.1504C24.386 30.5121 22.2498 31.25 20 31.25ZM35.8209 30.0885L27.8662 22.1338C27.3779 21.6455 27.3779 20.8545 27.8662 20.3662L35.8209 12.4115C36.3092 11.9232 37.1002 11.9232 37.5885 12.4115C39.95 14.7723 41.25 17.9114 41.25 21.25C41.25 24.5886 39.95 27.7277 37.5885 30.0885C37.3444 30.3326 37.0245 30.4547 36.7047 30.4547C36.3849 30.4547 36.0651 30.3326 35.8209 30.0885ZM38.75 21.25C38.75 19.0002 38.0121 16.864 36.6504 15.1172L30.5176 21.25L36.6504 27.3828C38.0121 25.636 38.75 23.4997 38.75 21.25ZM13.75 43.75H16.25C16.9391 43.75 17.5 44.3109 17.5 45H20C20 42.9321 18.3179 41.25 16.25 41.25V38.75H13.75V41.25C11.6821 41.25 10 42.9321 10 45V46.25C10 48.3179 11.6821 50 13.75 50H16.25C16.9391 50 17.5 50.5609 17.5 51.25V52.5C17.5 53.1891 16.9391 53.75 16.25 53.75H13.75C13.0609 53.75 12.5 53.1891 12.5 52.5H10C10 54.5679 11.6821 56.25 13.75 56.25V58.75H16.25V56.25C18.3179 56.25 20 54.5679 20 52.5V51.25C20 49.1821 18.3179 47.5 16.25 47.5H13.75C13.0609 47.5 12.5 46.9391 12.5 46.25V45C12.5 44.3109 13.0609 43.75 13.75 43.75ZM42.5 45C43.1903 45 43.75 45.5597 43.75 46.25V56.25H46.25V58.75H42.5H37.5H32.5H27.5H23.75V56.25H26.25V50C26.25 49.3097 26.8097 48.75 27.5 48.75H31.25V42.5C31.25 41.8097 31.8097 41.25 32.5 41.25H37.5C38.1903 41.25 38.75 41.8097 38.75 42.5V45H42.5ZM31.25 51.25H28.75V56.25H31.25V51.25ZM33.75 43.75V50V56.25H36.25V46.25V43.75H33.75ZM38.75 47.5V56.25H41.25V47.5H38.75ZM57.5 22.5V25H45V22.5H57.5ZM57.5 30V27.5H45V30H57.5ZM47.5 37.5H45V40H47.5V37.5ZM45 32.5H57.5V35H45V32.5ZM57.5 37.5H55V40H57.5V37.5ZM50 37.5H52.5V40H50V37.5Z" fill="url(#paint0_linear)"/>
<defs>
<linearGradient id="paint0_linear" x1="40.625" y1="2.5" x2="40.625" y2="77.5" gradientUnits="userSpaceOnUse">
<stop stop-color="#88FFBF"/>
<stop offset="1" stop-color="#34A568"/>
</linearGradient>
</defs>
</svg>
