<svg width="36" height="39" viewBox="0 0 36 39" fill="none" xmlns="http://www.w3.org/2000/svg">
<path fill-rule="evenodd" clip-rule="evenodd" d="M28.6923 2C26.1858 2 24.1539 4.03194 24.1539 6.53846C24.1539 7.34125 24.3623 8.09535 24.728 8.74961C24.7444 8.77293 24.76 8.79715 24.7746 8.82225C24.7891 8.84712 24.8025 8.87235 24.8146 8.89789C25.6114 10.2045 27.05 11.0769 28.6923 11.0769C31.1988 11.0769 33.2308 9.04498 33.2308 6.53846C33.2308 4.03194 31.1988 2 28.6923 2ZM23.614 10.6574C24.8129 12.1336 26.6424 13.0769 28.6923 13.0769C32.3034 13.0769 35.2308 10.1496 35.2308 6.53846C35.2308 2.92737 32.3034 0 28.6923 0C25.0812 0 22.1539 2.92737 22.1539 6.53846C22.1539 7.38272 22.3139 8.1896 22.6052 8.93044L11.617 15.3429C10.4182 13.8665 8.5885 12.9231 6.53848 12.9231C2.92738 12.9231 1.52588e-05 15.8504 1.52588e-05 19.4615C1.52588e-05 23.0726 2.92738 26 6.53848 26C8.58864 26 10.4184 25.0564 11.6172 23.5799L22.6084 29.9846C22.315 30.7277 22.1539 31.5373 22.1539 32.3846C22.1539 35.9957 25.0812 38.9231 28.6923 38.9231C32.3034 38.9231 35.2308 35.9957 35.2308 32.3846C35.2308 28.7735 32.3034 25.8462 28.6923 25.8462C26.6455 25.8462 24.8184 26.7866 23.6195 28.259L12.6259 21.8528C12.917 21.1122 13.0769 20.3055 13.0769 19.4615C13.0769 18.6174 12.917 17.8107 12.6257 17.0699L23.614 10.6574ZM10.4172 17.1037C10.4291 17.1288 10.4422 17.1536 10.4565 17.178C10.4709 17.2026 10.4861 17.2264 10.5022 17.2493C10.8683 17.9038 11.0769 18.6583 11.0769 19.4615C11.0769 20.2653 10.868 21.0202 10.5015 21.675C10.4856 21.6978 10.4704 21.7214 10.4562 21.7459C10.4422 21.7698 10.4294 21.794 10.4177 21.8185C9.62125 23.1265 8.18187 24 6.53848 24C4.03195 24 2.00002 21.9681 2.00002 19.4615C2.00002 16.955 4.03195 14.9231 6.53848 14.9231C8.1815 14.9231 9.62061 15.7962 10.4172 17.1037ZM24.6848 30.2526C24.725 30.2062 24.7614 30.1555 24.7934 30.1005C24.8245 30.0472 24.8501 29.9921 24.8704 29.9361C25.6774 28.679 27.0876 27.8462 28.6923 27.8462C31.1988 27.8462 33.2308 29.8781 33.2308 32.3846C33.2308 34.8911 31.1988 36.9231 28.6923 36.9231C26.1858 36.9231 24.1539 34.8911 24.1539 32.3846C24.1539 31.614 24.3459 30.8882 24.6848 30.2526Z" fill="url(#paint0_linear)"/>
<defs>
<linearGradient id="paint0_linear" x1="17.6154" y1="0" x2="17.6154" y2="38.9231" gradientUnits="userSpaceOnUse">
<stop stop-color="#81E8FF"/>
<stop offset="1" stop-color="#2B9BB4"/>
</linearGradient>
</defs>
</svg>
