<svg width="80" height="80" viewBox="0 0 80 80" fill="none" xmlns="http://www.w3.org/2000/svg">
<g clip-path="url(#clip0)">
<path fill-rule="evenodd" clip-rule="evenodd" d="M15.2434 40.1555C15.7453 39.5202 16.4631 39.1076 17.2647 38.9938C17.9064 38.9024 18.4988 39.3485 18.5897 39.9893C18.6808 40.6301 18.235 41.2233 17.5942 41.3143C17.3914 41.3432 17.2097 41.4476 17.0828 41.6083L8.28844 52.7421C7.91234 53.2182 7.36312 53.4779 6.78859 53.4779C6.57484 53.4779 6.35766 53.4419 6.14438 53.3679C5.35781 53.0947 4.84969 52.3802 4.84969 51.5477V41.178C2.08922 40.6021 0 38.1379 0 35.2211V10.7897C0 7.43443 2.72984 4.70459 6.08516 4.70459H44.9388C48.2941 4.70459 51.0239 7.43443 51.0239 10.7897V15.3104C51.0239 15.9576 50.4992 16.4822 49.852 16.4822C49.2048 16.4822 48.6802 15.9576 48.6802 15.3104V10.7897C48.6802 8.72678 47.0017 7.04834 44.9388 7.04834H6.08516C4.02219 7.04834 2.34375 8.72678 2.34375 10.7897V35.2211C2.34375 37.2574 4.00031 38.9351 6.03641 38.961C6.67766 38.9693 7.19328 39.4915 7.19328 40.1329V50.3471L15.2434 40.1555ZM73.1841 19.617H28.5519C24.7936 19.617 21.7359 22.6745 21.7359 26.4329V54.4981C21.7359 58.2564 24.7934 61.314 28.5519 61.314H59.8348C60.1694 61.314 60.4802 61.4645 60.6877 61.7272L70.79 74.5167C71.1881 75.0208 71.7691 75.2955 72.3773 75.2955C72.6034 75.2955 72.8334 75.2575 73.0591 75.179C73.8914 74.89 74.4292 74.1339 74.4292 73.2528V61.1976C77.5894 60.6073 80 57.8134 80 54.4981V26.4328C80 22.6745 76.9425 19.617 73.1841 19.617ZM77.6563 54.4981C77.6563 56.932 75.6761 58.9375 73.2422 58.9684C72.6009 58.9767 72.0853 59.4989 72.0853 60.1403V72.3755L62.5269 60.2744C61.8724 59.4455 60.8911 58.9701 59.8348 58.9701H28.5519C26.0859 58.9701 24.0797 56.9639 24.0797 54.4979V26.4328C24.0797 23.9668 26.0858 21.9606 28.5519 21.9606H73.1841C75.65 21.9606 77.6563 23.9668 77.6563 26.4328V54.4981ZM69.4617 29.8657H32.2742C31.627 29.8657 31.1023 30.3904 31.1023 31.0376C31.1023 31.6848 31.627 32.2095 32.2742 32.2095H69.4617C70.1089 32.2095 70.6336 31.6848 70.6336 31.0376C70.6336 30.3904 70.1089 29.8657 69.4617 29.8657ZM69.4617 38.824H32.2742C31.627 38.824 31.1023 39.3486 31.1023 39.9958C31.1023 40.643 31.627 41.1677 32.2742 41.1677H69.4617C70.1089 41.1677 70.6336 40.643 70.6336 39.9958C70.6336 39.3486 70.1089 38.824 69.4617 38.824ZM32.2742 47.7823H69.4617C70.1089 47.7823 70.6336 48.307 70.6336 48.9542C70.6336 49.6013 70.1089 50.126 69.4617 50.126H32.2742C31.627 50.126 31.1023 49.6013 31.1023 48.9542C31.1023 48.307 31.627 47.7823 32.2742 47.7823Z" fill="url(#paint0_linear)"/>
</g>
<defs>
<linearGradient id="paint0_linear" x1="79.9686" y1="-10.422" x2="-11.1988" y2="49.5972" gradientUnits="userSpaceOnUse">
<stop stop-color="#C28FFF"/>
<stop offset="1" stop-color="#894AD8"/>
</linearGradient>
<clipPath id="clip0">
<rect width="80" height="80" fill="white"/>
</clipPath>
</defs>
</svg>
