<svg width="405" height="445" viewBox="0 0 405 445" fill="none" xmlns="http://www.w3.org/2000/svg">
<g filter="url(#filter0_dd)">
<rect x="38" y="36" width="328.192" height="355" rx="9.74828" fill="white"/>
<rect x="64.4015" y="134.701" width="275.389" height="31.6819" rx="9.3421" stroke="#CCCCCC" stroke-width="0.812357"/>
<path d="M77.9257 154.419V146.401H79.1085V153.407H83.0777V154.419H77.9257ZM86.6246 154.521C85.7148 154.521 84.9983 154.267 84.4751 153.759C83.952 153.243 83.6904 152.542 83.6904 151.655C83.6904 151.086 83.8041 150.586 84.0316 150.154C84.2666 149.714 84.5888 149.373 84.9983 149.13C85.4077 148.888 85.8778 148.766 86.4085 148.766C87.1743 148.766 87.7771 149.013 88.2168 149.506C88.6566 149.991 88.8765 150.662 88.8765 151.519V151.905H84.8049C84.8883 153.058 85.4987 153.634 86.636 153.634C86.9544 153.634 87.2653 153.585 87.5686 153.486C87.8794 153.388 88.1713 153.225 88.4443 152.997L88.7855 153.793C88.5353 154.021 88.213 154.199 87.8188 154.328C87.4245 154.457 87.0265 154.521 86.6246 154.521ZM86.454 149.574C85.9763 149.574 85.5972 149.722 85.3167 150.017C85.0362 150.313 84.8656 150.707 84.8049 151.2H87.9098C87.887 150.685 87.7505 150.287 87.5003 150.006C87.2501 149.718 86.9014 149.574 86.454 149.574ZM90.1287 154.419V148.869H91.2433V149.79C91.4328 149.456 91.6906 149.202 92.0167 149.028C92.3503 148.854 92.7218 148.766 93.1312 148.766C94.4429 148.766 95.0987 149.509 95.0987 150.995V154.419H93.9501V151.064C93.9501 150.586 93.8553 150.237 93.6657 150.017C93.4838 149.797 93.1957 149.688 92.8014 149.688C92.3389 149.688 91.9674 149.835 91.6868 150.131C91.4139 150.419 91.2774 150.802 91.2774 151.28V154.419H90.1287ZM98.7969 154.521C98.3117 154.521 97.8833 154.407 97.5118 154.18C97.1478 153.945 96.8635 153.611 96.6588 153.179C96.4541 152.747 96.3517 152.235 96.3517 151.644C96.3517 151.052 96.4541 150.544 96.6588 150.12C96.8635 149.688 97.1478 149.354 97.5118 149.119C97.8757 148.884 98.3041 148.766 98.7969 148.766C99.2139 148.766 99.5854 148.857 99.9115 149.039C100.237 149.221 100.48 149.468 100.639 149.779V146.401H101.788V154.419H100.662V153.452C100.503 153.786 100.256 154.047 99.9228 154.237C99.5968 154.426 99.2215 154.521 98.7969 154.521ZM99.0926 153.634C99.5627 153.634 99.9418 153.463 100.23 153.122C100.518 152.781 100.662 152.288 100.662 151.644C100.662 150.999 100.518 150.51 100.23 150.177C99.9418 149.835 99.5627 149.665 99.0926 149.665C98.6149 149.665 98.2321 149.835 97.9439 150.177C97.6558 150.51 97.5118 150.999 97.5118 151.644C97.5118 152.288 97.6558 152.781 97.9439 153.122C98.2321 153.463 98.6149 153.634 99.0926 153.634ZM103.299 147.584V146.389H104.641V147.584H103.299ZM103.401 154.419V148.869H104.55V154.419H103.401ZM106.166 154.419V148.869H107.281V149.79C107.471 149.456 107.728 149.202 108.054 149.028C108.388 148.854 108.759 148.766 109.169 148.766C110.481 148.766 111.136 149.509 111.136 150.995V154.419H109.988V151.064C109.988 150.586 109.893 150.237 109.703 150.017C109.521 149.797 109.233 149.688 108.839 149.688C108.377 149.688 108.005 149.835 107.725 150.131C107.452 150.419 107.315 150.802 107.315 151.28V154.419H106.166ZM115.233 156.568C114.732 156.568 114.266 156.508 113.834 156.386C113.402 156.272 113.019 156.091 112.685 155.84L113.038 155.021C113.371 155.249 113.712 155.416 114.061 155.522C114.41 155.628 114.774 155.681 115.153 155.681C116.215 155.681 116.745 155.15 116.745 154.089V153.213C116.586 153.547 116.336 153.808 115.995 153.998C115.661 154.187 115.286 154.282 114.869 154.282C114.368 154.282 113.932 154.168 113.561 153.941C113.189 153.706 112.901 153.384 112.696 152.974C112.492 152.557 112.389 152.072 112.389 151.519C112.389 150.973 112.492 150.495 112.696 150.086C112.901 149.669 113.189 149.346 113.561 149.119C113.932 148.884 114.368 148.766 114.869 148.766C115.293 148.766 115.672 148.861 116.006 149.051C116.34 149.24 116.586 149.502 116.745 149.835V148.869H117.86V153.952C117.86 154.824 117.636 155.476 117.189 155.909C116.741 156.348 116.089 156.568 115.233 156.568ZM115.142 153.384C115.627 153.384 116.014 153.217 116.302 152.883C116.59 152.55 116.734 152.095 116.734 151.519C116.734 150.942 116.59 150.491 116.302 150.165C116.014 149.832 115.627 149.665 115.142 149.665C114.656 149.665 114.27 149.832 113.982 150.165C113.694 150.491 113.549 150.942 113.549 151.519C113.549 152.095 113.694 152.55 113.982 152.883C114.27 153.217 114.656 153.384 115.142 153.384ZM119.335 154.419V153.065H120.689V154.419H119.335ZM122.279 154.419V149.756H121.198V148.869H122.279V148.766C122.279 148.001 122.472 147.424 122.859 147.038C123.253 146.651 123.856 146.435 124.667 146.389L125.122 146.367L125.19 147.231L124.724 147.254C124.261 147.284 123.928 147.409 123.723 147.629C123.526 147.849 123.427 148.175 123.427 148.607V148.869H126.964V154.419H125.816V149.756H123.427V154.419H122.279ZM125.713 147.584V146.389H127.055V147.584H125.713ZM128.568 154.419V148.869H129.683V149.79C129.872 149.456 130.13 149.202 130.456 149.028C130.79 148.854 131.161 148.766 131.571 148.766C132.882 148.766 133.538 149.509 133.538 150.995V154.419H132.389V151.064C132.389 150.586 132.295 150.237 132.105 150.017C131.923 149.797 131.635 149.688 131.241 149.688C130.778 149.688 130.407 149.835 130.126 150.131C129.853 150.419 129.717 150.802 129.717 151.28V154.419H128.568ZM136.895 154.521C136.508 154.521 136.163 154.445 135.86 154.294C135.557 154.142 135.314 153.937 135.132 153.679C134.958 153.422 134.871 153.13 134.871 152.804C134.871 152.394 134.973 152.072 135.178 151.837C135.39 151.602 135.735 151.431 136.213 151.325C136.698 151.219 137.35 151.166 138.169 151.166H138.556V150.87C138.556 150.438 138.465 150.127 138.283 149.938C138.101 149.748 137.801 149.653 137.384 149.653C137.066 149.653 136.747 149.703 136.429 149.801C136.11 149.892 135.784 150.04 135.451 150.245L135.098 149.437C135.386 149.233 135.746 149.07 136.179 148.948C136.611 148.827 137.024 148.766 137.418 148.766C138.176 148.766 138.738 148.948 139.101 149.312C139.465 149.669 139.647 150.23 139.647 150.995V154.419H138.567V153.497C138.43 153.816 138.218 154.066 137.93 154.248C137.642 154.43 137.297 154.521 136.895 154.521ZM137.123 153.702C137.532 153.702 137.873 153.558 138.146 153.27C138.419 152.982 138.556 152.618 138.556 152.178V151.871H138.18C137.627 151.871 137.191 151.898 136.872 151.951C136.562 152.004 136.338 152.095 136.201 152.224C136.072 152.345 136.008 152.516 136.008 152.735C136.008 153.024 136.107 153.259 136.304 153.441C136.501 153.615 136.774 153.702 137.123 153.702ZM141.229 154.419V148.869H142.344V149.79C142.534 149.456 142.791 149.202 143.117 149.028C143.451 148.854 143.823 148.766 144.232 148.766C145.544 148.766 146.199 149.509 146.199 150.995V154.419H145.051V151.064C145.051 150.586 144.956 150.237 144.766 150.017C144.585 149.797 144.296 149.688 143.902 149.688C143.44 149.688 143.068 149.835 142.788 150.131C142.515 150.419 142.378 150.802 142.378 151.28V154.419H141.229ZM150.227 154.521C149.659 154.521 149.166 154.404 148.749 154.168C148.34 153.926 148.021 153.588 147.794 153.156C147.566 152.717 147.452 152.201 147.452 151.61C147.452 150.73 147.703 150.036 148.203 149.528C148.703 149.02 149.378 148.766 150.227 148.766C150.576 148.766 150.921 148.827 151.262 148.948C151.604 149.07 151.884 149.236 152.104 149.449L151.74 150.256C151.528 150.059 151.293 149.915 151.035 149.824C150.785 149.725 150.546 149.676 150.318 149.676C149.78 149.676 149.363 149.847 149.067 150.188C148.779 150.522 148.635 150.999 148.635 151.621C148.635 152.243 148.779 152.732 149.067 153.088C149.363 153.437 149.78 153.611 150.318 153.611C150.546 153.611 150.785 153.566 151.035 153.475C151.293 153.376 151.528 153.228 151.74 153.031L152.104 153.85C151.884 154.055 151.6 154.218 151.251 154.339C150.91 154.46 150.569 154.521 150.227 154.521ZM155.585 154.521C154.675 154.521 153.958 154.267 153.435 153.759C152.912 153.243 152.65 152.542 152.65 151.655C152.65 151.086 152.764 150.586 152.991 150.154C153.227 149.714 153.549 149.373 153.958 149.13C154.368 148.888 154.838 148.766 155.368 148.766C156.134 148.766 156.737 149.013 157.177 149.506C157.616 149.991 157.836 150.662 157.836 151.519V151.905H153.765C153.848 153.058 154.459 153.634 155.596 153.634C155.914 153.634 156.225 153.585 156.528 153.486C156.839 153.388 157.131 153.225 157.404 152.997L157.745 153.793C157.495 154.021 157.173 154.199 156.779 154.328C156.384 154.457 155.986 154.521 155.585 154.521ZM155.414 149.574C154.936 149.574 154.557 149.722 154.277 150.017C153.996 150.313 153.825 150.707 153.765 151.2H156.87C156.847 150.685 156.71 150.287 156.46 150.006C156.21 149.718 155.861 149.574 155.414 149.574Z" fill="#0A0A0A"/>
<path d="M64.8435 126.174V119.301H67.1636C68.2749 119.301 69.1328 119.597 69.7372 120.188C70.3416 120.773 70.6438 121.621 70.6438 122.733C70.6438 123.844 70.3416 124.695 69.7372 125.287C69.1328 125.878 68.2749 126.174 67.1636 126.174H64.8435ZM65.6429 125.491H67.1051C68.8988 125.491 69.7957 124.572 69.7957 122.733C69.7957 120.9 68.8988 119.984 67.1051 119.984H65.6429V125.491ZM71.3015 126.174L74.3332 119.301H75.0156L78.0473 126.174H77.2187L76.4583 124.419H72.8807L72.1301 126.174H71.3015ZM74.6646 120.237L73.1731 123.747H76.1756L74.6841 120.237H74.6646ZM81.9251 126.262C81.2492 126.262 80.6708 126.119 80.1899 125.833C79.709 125.547 79.3386 125.141 79.0786 124.614C78.8252 124.088 78.6984 123.461 78.6984 122.733C78.6984 122.011 78.8252 121.387 79.0786 120.861C79.3386 120.335 79.709 119.928 80.1899 119.642C80.6708 119.357 81.2492 119.214 81.9251 119.214C82.3995 119.214 82.8349 119.288 83.2314 119.438C83.6343 119.587 83.9755 119.805 84.2549 120.091L83.943 120.744C83.6441 120.465 83.3321 120.263 83.0072 120.14C82.6887 120.01 82.3345 119.945 81.9446 119.945C81.1712 119.945 80.5798 120.188 80.1704 120.676C79.761 121.163 79.5563 121.849 79.5563 122.733C79.5563 123.623 79.761 124.312 80.1704 124.799C80.5798 125.287 81.1712 125.53 81.9446 125.53C82.3345 125.53 82.6887 125.469 83.0072 125.345C83.3321 125.215 83.6441 125.011 83.943 124.731L84.2549 125.384C83.9755 125.664 83.6343 125.881 83.2314 126.037C82.8349 126.187 82.3995 126.262 81.9251 126.262ZM88.0147 126.174V119.301H88.6386L92.7816 124.829V119.301H93.5225V126.174H92.9181L88.7654 120.627V126.174H88.0147ZM96.615 126.262C96.2901 126.262 95.9976 126.2 95.7377 126.076C95.4842 125.946 95.2827 125.771 95.1333 125.55C94.9838 125.329 94.9091 125.082 94.9091 124.809C94.9091 124.465 94.9968 124.192 95.1723 123.99C95.3542 123.789 95.6499 123.646 96.0594 123.561C96.4753 123.47 97.0407 123.425 97.7556 123.425H98.0675V123.123C98.0675 122.72 97.983 122.43 97.814 122.255C97.6516 122.073 97.3884 121.982 97.0244 121.982C96.7385 121.982 96.4623 122.024 96.1958 122.109C95.9294 122.187 95.6564 122.317 95.377 122.499L95.104 121.924C95.351 121.748 95.6499 121.608 96.0009 121.504C96.3583 121.4 96.6995 121.348 97.0244 121.348C97.6353 121.348 98.087 121.498 98.3794 121.797C98.6784 122.096 98.8279 122.56 98.8279 123.191V126.174H98.087V125.355C97.9635 125.634 97.7718 125.855 97.5118 126.018C97.2584 126.18 96.9594 126.262 96.615 126.262ZM96.7417 125.667C97.1317 125.667 97.4501 125.534 97.6971 125.267C97.944 124.994 98.0675 124.65 98.0675 124.234V123.941H97.7653C97.2389 123.941 96.823 123.967 96.5175 124.019C96.2186 124.065 96.0074 124.149 95.8839 124.273C95.7669 124.39 95.7084 124.552 95.7084 124.76C95.7084 125.027 95.7994 125.244 95.9814 125.413C96.1698 125.582 96.4233 125.667 96.7417 125.667ZM100.312 126.174V121.436H101.082V122.236C101.225 121.95 101.424 121.732 101.677 121.582C101.93 121.426 102.226 121.348 102.564 121.348C103.305 121.348 103.779 121.67 103.987 122.314C104.13 122.015 104.342 121.781 104.621 121.612C104.9 121.436 105.222 121.348 105.586 121.348C106.639 121.348 107.165 121.972 107.165 123.22V126.174H106.376V123.259C106.376 122.824 106.298 122.505 106.142 122.304C105.992 122.096 105.742 121.992 105.391 121.992C105.008 121.992 104.702 122.128 104.475 122.401C104.247 122.674 104.134 123.038 104.134 123.493V126.174H103.344V123.259C103.344 122.824 103.266 122.505 103.11 122.304C102.961 122.096 102.71 121.992 102.359 121.992C101.969 121.992 101.661 122.128 101.433 122.401C101.212 122.674 101.102 123.038 101.102 123.493V126.174H100.312ZM110.777 126.262C110.029 126.262 109.438 126.044 109.002 125.608C108.567 125.167 108.349 124.569 108.349 123.815C108.349 123.327 108.447 122.898 108.642 122.528C108.837 122.151 109.103 121.862 109.441 121.66C109.785 121.452 110.182 121.348 110.63 121.348C111.274 121.348 111.777 121.556 112.141 121.972C112.505 122.382 112.687 122.947 112.687 123.669V123.971H109.119C109.145 124.51 109.301 124.923 109.587 125.209C109.873 125.488 110.27 125.628 110.777 125.628C111.062 125.628 111.335 125.586 111.595 125.501C111.855 125.41 112.102 125.264 112.336 125.063L112.609 125.618C112.395 125.82 112.122 125.979 111.79 126.096C111.459 126.206 111.121 126.262 110.777 126.262ZM110.65 121.933C110.201 121.933 109.847 122.073 109.587 122.353C109.327 122.632 109.175 122.999 109.129 123.454H112.005C111.985 122.973 111.859 122.599 111.625 122.333C111.397 122.067 111.072 121.933 110.65 121.933Z" fill="#808080"/>
<rect x="262.211" y="269.146" width="77.9863" height="32.4943" rx="9.74828" fill="#8591FF" fill-opacity="0.2"/>
<path d="M285.915 289.51C284.816 289.51 283.974 289.225 283.39 288.657C282.814 288.081 282.526 287.231 282.526 286.109V281.378H283.982V286.098C283.982 286.818 284.145 287.36 284.471 287.724C284.804 288.081 285.286 288.259 285.915 288.259C287.196 288.259 287.837 287.538 287.837 286.098V281.378H289.281V286.109C289.281 287.231 288.997 288.081 288.428 288.657C287.86 289.225 287.022 289.51 285.915 289.51ZM290.843 291.443V283.835H292.23V284.722C292.389 284.418 292.628 284.176 292.947 283.994C293.273 283.812 293.641 283.721 294.05 283.721C294.535 283.721 294.96 283.838 295.324 284.073C295.695 284.308 295.983 284.642 296.188 285.074C296.393 285.499 296.495 286.011 296.495 286.61C296.495 287.201 296.393 287.717 296.188 288.156C295.983 288.589 295.699 288.922 295.335 289.157C294.971 289.392 294.543 289.51 294.05 289.51C293.656 289.51 293.299 289.426 292.981 289.26C292.67 289.085 292.431 288.854 292.264 288.566V291.443H290.843ZM293.652 288.429C294.076 288.429 294.418 288.278 294.675 287.974C294.933 287.664 295.062 287.209 295.062 286.61C295.062 286.003 294.933 285.552 294.675 285.256C294.418 284.953 294.076 284.801 293.652 284.801C293.227 284.801 292.886 284.953 292.628 285.256C292.371 285.552 292.242 286.003 292.242 286.61C292.242 287.209 292.371 287.664 292.628 287.974C292.886 288.278 293.227 288.429 293.652 288.429ZM299.596 289.51C298.936 289.51 298.447 289.332 298.128 288.975C297.818 288.611 297.662 288.081 297.662 287.383V281.378H299.084V287.315C299.084 287.997 299.372 288.338 299.948 288.338C300.031 288.338 300.115 288.335 300.198 288.327C300.282 288.319 300.361 288.304 300.437 288.281L300.414 289.407C300.141 289.476 299.868 289.51 299.596 289.51ZM303.775 289.51C303.198 289.51 302.698 289.392 302.273 289.157C301.849 288.922 301.519 288.589 301.284 288.156C301.049 287.717 300.931 287.201 300.931 286.61C300.931 286.018 301.049 285.506 301.284 285.074C301.519 284.642 301.849 284.308 302.273 284.073C302.698 283.838 303.198 283.721 303.775 283.721C304.351 283.721 304.851 283.838 305.276 284.073C305.7 284.308 306.03 284.642 306.265 285.074C306.5 285.506 306.618 286.018 306.618 286.61C306.618 287.201 306.5 287.717 306.265 288.156C306.03 288.589 305.7 288.922 305.276 289.157C304.851 289.392 304.351 289.51 303.775 289.51ZM303.775 288.429C304.199 288.429 304.54 288.278 304.798 287.974C305.056 287.664 305.185 287.209 305.185 286.61C305.185 286.003 305.056 285.552 304.798 285.256C304.54 284.953 304.199 284.801 303.775 284.801C303.35 284.801 303.009 284.953 302.751 285.256C302.493 285.552 302.364 286.003 302.364 286.61C302.364 287.209 302.493 287.664 302.751 287.974C303.009 288.278 303.35 288.429 303.775 288.429ZM309.622 289.51C309.22 289.51 308.86 289.434 308.542 289.282C308.231 289.123 307.985 288.911 307.803 288.645C307.628 288.38 307.541 288.081 307.541 287.747C307.541 287.337 307.647 287.015 307.859 286.78C308.072 286.538 308.417 286.363 308.894 286.257C309.372 286.151 310.013 286.098 310.816 286.098H311.214V285.859C311.214 285.48 311.131 285.207 310.964 285.04C310.797 284.873 310.517 284.79 310.123 284.79C309.812 284.79 309.493 284.839 309.167 284.938C308.841 285.029 308.511 285.173 308.178 285.37L307.768 284.403C307.966 284.267 308.197 284.149 308.462 284.051C308.735 283.945 309.019 283.865 309.315 283.812C309.618 283.751 309.903 283.721 310.168 283.721C310.979 283.721 311.582 283.91 311.976 284.29C312.371 284.661 312.568 285.241 312.568 286.03V289.396H311.237V288.509C311.108 288.82 310.904 289.066 310.623 289.248C310.343 289.423 310.009 289.51 309.622 289.51ZM309.918 288.532C310.289 288.532 310.597 288.403 310.839 288.145C311.089 287.887 311.214 287.561 311.214 287.167V286.917H310.828C310.115 286.917 309.618 286.974 309.338 287.087C309.065 287.193 308.928 287.391 308.928 287.679C308.928 287.929 309.016 288.134 309.19 288.293C309.364 288.452 309.607 288.532 309.918 288.532ZM316.149 289.51C315.664 289.51 315.235 289.392 314.864 289.157C314.5 288.922 314.216 288.589 314.011 288.156C313.806 287.717 313.704 287.201 313.704 286.61C313.704 286.011 313.806 285.499 314.011 285.074C314.216 284.642 314.5 284.308 314.864 284.073C315.235 283.838 315.664 283.721 316.149 283.721C316.543 283.721 316.9 283.808 317.218 283.982C317.536 284.157 317.775 284.388 317.934 284.676V281.378H319.356V289.396H317.969V288.475C317.817 288.793 317.578 289.047 317.252 289.237C316.926 289.419 316.558 289.51 316.149 289.51ZM316.547 288.429C316.972 288.429 317.313 288.278 317.571 287.974C317.828 287.664 317.957 287.209 317.957 286.61C317.957 286.003 317.828 285.552 317.571 285.256C317.313 284.953 316.972 284.801 316.547 284.801C316.122 284.801 315.781 284.953 315.523 285.256C315.266 285.552 315.137 286.003 315.137 286.61C315.137 287.209 315.266 287.664 315.523 287.974C315.781 288.278 316.122 288.429 316.547 288.429Z" fill="#0A0A0A"/>
<rect x="63.9954" y="326.011" width="276.201" height="32.4943" rx="9.74828" fill="#88FFBF"/>
<path d="M188.83 346.375C187.996 346.375 187.28 346.208 186.681 345.874C186.089 345.533 185.634 345.055 185.316 344.441C184.998 343.82 184.838 343.088 184.838 342.246C184.838 341.405 184.998 340.677 185.316 340.063C185.634 339.449 186.089 338.975 186.681 338.641C187.28 338.3 187.996 338.129 188.83 338.129C189.369 338.129 189.877 338.213 190.354 338.379C190.839 338.546 191.238 338.785 191.548 339.096L191.071 340.256C190.73 339.968 190.381 339.759 190.024 339.631C189.668 339.494 189.285 339.426 188.876 339.426C188.064 339.426 187.447 339.672 187.022 340.165C186.597 340.65 186.385 341.344 186.385 342.246C186.385 343.149 186.597 343.846 187.022 344.339C187.447 344.832 188.064 345.078 188.876 345.078C189.285 345.078 189.668 345.014 190.024 344.885C190.381 344.748 190.73 344.536 191.071 344.248L191.548 345.408C191.238 345.711 190.839 345.95 190.354 346.125C189.877 346.291 189.369 346.375 188.83 346.375ZM192.682 346.261V340.7H194.07V341.678C194.343 341.018 194.927 340.654 195.821 340.586L196.254 340.552L196.345 341.757L195.526 341.837C194.593 341.928 194.127 342.406 194.127 343.27V346.261H192.682ZM199.788 346.375C199.159 346.375 198.617 346.257 198.162 346.022C197.707 345.787 197.354 345.454 197.104 345.021C196.861 344.589 196.74 344.077 196.74 343.486C196.74 342.91 196.858 342.406 197.093 341.973C197.335 341.541 197.665 341.204 198.082 340.961C198.507 340.711 198.988 340.586 199.527 340.586C200.315 340.586 200.937 340.836 201.392 341.336C201.854 341.837 202.085 342.519 202.085 343.384V343.804H198.105C198.211 344.798 198.78 345.294 199.811 345.294C200.122 345.294 200.433 345.249 200.743 345.158C201.054 345.059 201.339 344.908 201.596 344.703L201.994 345.658C201.729 345.878 201.396 346.052 200.994 346.181C200.592 346.31 200.19 346.375 199.788 346.375ZM199.583 341.553C199.166 341.553 198.829 341.681 198.571 341.939C198.313 342.197 198.158 342.546 198.105 342.986H200.903C200.872 342.523 200.743 342.17 200.516 341.928C200.296 341.678 199.985 341.553 199.583 341.553ZM205.042 346.375C204.641 346.375 204.28 346.299 203.962 346.147C203.651 345.988 203.405 345.776 203.223 345.51C203.048 345.245 202.961 344.946 202.961 344.612C202.961 344.202 203.067 343.88 203.28 343.645C203.492 343.403 203.837 343.228 204.314 343.122C204.792 343.016 205.433 342.963 206.237 342.963H206.635V342.724C206.635 342.345 206.551 342.072 206.384 341.905C206.218 341.738 205.937 341.655 205.543 341.655C205.232 341.655 204.913 341.704 204.587 341.803C204.261 341.894 203.932 342.038 203.598 342.235L203.189 341.268C203.386 341.132 203.617 341.014 203.882 340.916C204.155 340.81 204.44 340.73 204.735 340.677C205.039 340.616 205.323 340.586 205.588 340.586C206.4 340.586 207.002 340.775 207.397 341.155C207.791 341.526 207.988 342.106 207.988 342.895V346.261H206.657V345.374C206.528 345.685 206.324 345.931 206.043 346.113C205.763 346.288 205.429 346.375 205.042 346.375ZM205.338 345.397C205.71 345.397 206.017 345.268 206.259 345.01C206.509 344.752 206.635 344.426 206.635 344.032V343.782H206.248C205.535 343.782 205.039 343.839 204.758 343.952C204.485 344.058 204.349 344.256 204.349 344.544C204.349 344.794 204.436 344.999 204.61 345.158C204.785 345.317 205.027 345.397 205.338 345.397ZM211.978 346.375C210.508 346.375 209.772 345.647 209.772 344.191V341.769H208.703V340.7H209.772V339.039H211.194V340.7H212.877V341.769H211.194V344.111C211.194 344.475 211.273 344.748 211.433 344.93C211.592 345.112 211.85 345.203 212.206 345.203C212.312 345.203 212.422 345.192 212.536 345.169C212.649 345.139 212.767 345.109 212.888 345.078L213.104 346.125C212.968 346.2 212.794 346.261 212.581 346.306C212.377 346.352 212.176 346.375 211.978 346.375ZM216.481 346.375C215.852 346.375 215.31 346.257 214.855 346.022C214.4 345.787 214.047 345.454 213.797 345.021C213.554 344.589 213.433 344.077 213.433 343.486C213.433 342.91 213.551 342.406 213.786 341.973C214.028 341.541 214.358 341.204 214.775 340.961C215.2 340.711 215.681 340.586 216.22 340.586C217.008 340.586 217.63 340.836 218.085 341.336C218.547 341.837 218.778 342.519 218.778 343.384V343.804H214.798C214.904 344.798 215.473 345.294 216.504 345.294C216.815 345.294 217.126 345.249 217.436 345.158C217.747 345.059 218.032 344.908 218.289 344.703L218.687 345.658C218.422 345.878 218.088 346.052 217.687 346.181C217.285 346.31 216.883 346.375 216.481 346.375ZM216.276 341.553C215.859 341.553 215.522 341.681 215.264 341.939C215.006 342.197 214.851 342.546 214.798 342.986H217.596C217.565 342.523 217.436 342.17 217.209 341.928C216.989 341.678 216.678 341.553 216.276 341.553Z" fill="#0A0A0A"/>
<path d="M196.866 77.7687L194.614 74.9308V80.8842H192.362V70.3964H193.843L197.267 74.9617C197.791 74.2111 198.311 73.4553 198.825 72.6944C199.339 71.9233 199.858 71.1573 200.383 70.3964H201.817V80.8842H199.534V75.1622C199.246 75.5735 198.948 75.9899 198.64 76.4114C198.342 76.8227 198.043 77.3574 197.745 77.7687C197.461 77.789 197.169 77.7687 196.866 77.7687Z" fill="#0A0A0A"/>
<path d="M214.024 80.8842H206.575V70.3964H213.068C213.109 70.6946 213.155 70.9928 213.207 71.2909C213.258 71.5891 213.31 71.8873 213.361 72.1855H208.827V74.7149H211.772L212.081 76.504H208.827V79.1259H213.716L214.024 80.8842Z" fill="#0A0A0A"/>
<path d="M216.77 70.3964H225.407L225.715 72.1855H222.199V80.8842H219.931V72.1855H216.77V70.3964Z" fill="#0A0A0A"/>
<path d="M231.603 70.3964V80.8842H229.351V70.3964H231.603Z" fill="#0A0A0A"/>
<path d="M235.793 73.0646C235.804 72.2318 236.133 71.5428 236.78 70.9979C237.428 70.4427 238.333 70.165 239.495 70.165C240.019 70.165 240.549 70.2473 241.083 70.4118C241.618 70.566 242.091 70.7563 242.502 70.9825L241.777 72.679C241.376 72.5145 241.001 72.3757 240.652 72.2626C240.312 72.1495 239.937 72.0929 239.526 72.0929C239.114 72.0929 238.775 72.1752 238.508 72.3397C238.251 72.5042 238.122 72.7407 238.122 73.0492C238.122 73.3679 238.292 73.6404 238.631 73.8666C238.981 74.0928 239.428 74.3447 239.973 74.6224C240.724 75.0028 241.438 75.4655 242.117 76.0104C242.806 76.5451 243.15 77.2546 243.15 78.1389C243.15 78.982 242.801 79.6863 242.101 80.2518C241.402 80.8071 240.415 81.0847 239.14 81.0847C238.667 81.0847 238.086 80.9973 237.397 80.8225C236.708 80.6374 236.22 80.4318 235.932 80.2056L236.534 78.4165C236.832 78.581 237.228 78.7455 237.721 78.91C238.215 79.0642 238.672 79.1414 239.094 79.1414C239.659 79.1414 240.086 79.0488 240.374 78.8637C240.662 78.6684 240.806 78.4165 240.806 78.108C240.806 77.8098 240.61 77.5322 240.22 77.2751C239.829 77.0181 239.397 76.7765 238.924 76.5503C238.194 76.1801 237.49 75.7328 236.811 75.2084C236.133 74.6738 235.793 73.9592 235.793 73.0646Z" fill="#0A0A0A"/>
<mask id="mask0" mask-type="alpha" maskUnits="userSpaceOnUse" x="161" y="61" width="24" height="27">
<path d="M161.478 67.3568C161.478 65.541 162.734 63.9676 164.501 63.5681L169.775 62.376C172.021 61.8685 174.351 61.8685 176.597 62.376L181.871 63.5681C183.638 63.9676 184.894 65.541 184.894 67.3568V74.9378C184.894 78.6515 182.91 82.0809 179.694 83.926L175.112 86.5549C173.919 87.2394 172.453 87.2394 171.26 86.5549L166.678 83.926C163.462 82.0809 161.478 78.6515 161.478 74.9378V67.3568Z" fill="white"/>
</mask>
<g mask="url(#mask0)">
<path fill-rule="evenodd" clip-rule="evenodd" d="M164.956 68.6588C164.815 68.6194 164.647 68.5591 164.501 68.5019C164.338 68.4386 163.983 68.3589 164.077 68.5058C164.108 68.5528 164.178 68.6119 164.254 68.6747L164.254 68.6747C164.326 68.7354 164.403 68.7995 164.451 68.8595C163.98 69.1159 163.64 69.5231 163.42 70.0097C163.381 70.0958 163.345 70.1843 163.314 70.2749C163.019 71.5879 163.167 72.2282 163.546 72.2916C163.872 72.346 164.259 71.6031 164.486 71.0446C164.649 70.5048 164.994 70.0204 165.43 70.0204C165.773 70.0204 166.188 70.2735 166.566 70.5867C166.772 70.5615 167.253 70.3743 166.776 69.7776C166.332 69.2207 165.816 68.7891 165.47 68.5748C165.501 68.5726 165.533 68.5708 165.565 68.5695C165.651 68.566 165.735 68.5642 165.817 68.5639C165.733 68.5642 165.647 68.5661 165.559 68.5696C165.343 68.5783 165.142 68.6089 164.956 68.6588ZM163.706 73.3444C163.614 73.4503 163.527 73.5504 163.454 73.6493C163.641 74.3589 163.877 75.1448 164.141 75.8835C164.52 76.9413 164.968 77.9301 165.431 78.4472C165.823 78.2629 166.231 78.1571 166.623 78.0933C166.79 78.0661 166.954 78.0465 167.113 78.0318L168.004 77.6819C167.91 77.6746 167.815 77.6685 167.718 77.6636C164.695 77.5112 164.385 75.0006 164.385 74.5432C164.385 74.0857 164.773 73.1614 166.555 72.9422C167.317 72.8485 168.098 73.5102 168.759 74.3624C168.284 73.4375 167.953 72.5372 168.261 72.2051C168.268 72.3267 168.385 72.4217 168.618 72.6124L168.618 72.6124L168.618 72.6124C168.7 72.679 168.796 72.7573 168.907 72.8524C169.456 73.3246 169.777 74.8376 170.061 76.1781L170.061 76.1781C170.073 76.2372 170.086 76.296 170.098 76.3543C170.198 76.258 170.299 76.1565 170.399 76.0501C170.34 75.6459 170.265 75.2256 170.174 74.8188C170.056 74.3 169.91 73.7984 169.729 73.3787C169.622 73.1308 169.5 72.9041 169.361 72.7183C169.309 72.6499 169.255 72.587 169.198 72.5304C169.151 72.4835 169.103 72.4411 169.052 72.4038C168.874 72.2735 168.748 72.1718 168.66 72.0899C168.625 72.0583 168.597 72.0294 168.572 72.0027C168.562 71.991 168.552 71.9799 168.543 71.9695C168.536 71.9602 168.529 71.9512 168.522 71.9425C168.501 71.9144 168.489 71.8918 168.481 71.8737C168.477 71.8634 168.474 71.8543 168.472 71.8463L168.472 71.8431C168.468 71.8225 168.468 71.7995 168.477 71.7644C168.485 71.7324 168.5 71.6944 168.517 71.6488C168.586 71.4683 168.701 71.1692 168.632 70.6519C168.548 70.0182 168.312 69.466 167.812 69.0877C167.37 68.7529 166.742 68.5705 165.883 68.5641C165.967 68.5647 166.048 68.5671 166.127 68.5711C166.543 69.2038 167.261 70.2631 167.503 70.2687C167.664 70.2724 167.758 70.0718 167.872 69.8293L167.872 69.8293C167.929 69.7079 167.991 69.576 168.068 69.454C168.112 69.5398 168.23 69.6967 168.23 69.6967C168.23 69.6967 167.776 70.2631 168.261 70.344C168.745 70.425 167.776 71.9623 167.776 71.9623C167.714 71.8926 167.581 71.7399 167.423 71.5586L167.423 71.5585L167.423 71.5584L167.413 71.5468C166.639 72.6215 165.084 72.8631 164.587 72.3535C164.534 72.2992 164.492 72.2306 164.46 72.1513C164.431 72.2525 164.396 72.3305 164.354 72.3725C164.196 72.7796 163.935 73.08 163.706 73.3444L163.706 73.3444ZM166.05 71.2341C166.05 71.3682 166.158 71.4768 166.292 71.4768C166.426 71.4768 166.534 71.3682 166.534 71.2341C166.534 71.1 166.426 70.9914 166.292 70.9914C166.158 70.9914 166.05 71.1 166.05 71.2341ZM165.727 71.2341C165.727 71.5469 165.98 71.8005 166.292 71.8005C166.604 71.8005 166.857 71.5469 166.857 71.2341C166.857 70.9213 166.604 70.6677 166.292 70.6677C165.98 70.6677 165.727 70.9213 165.727 71.2341Z" fill="url(#paint0_linear)"/>
<path fill-rule="evenodd" clip-rule="evenodd" d="M169.005 77.3967L168.842 77.0923L167.056 77.7931C166.904 77.8079 166.746 77.8272 166.584 77.8534C165.717 77.9946 164.744 78.3391 164.015 79.274C163.725 79.6457 163.479 80.1055 163.293 80.673C163.18 81.0152 163.226 81.4096 163.364 81.8141C163.503 82.2218 163.745 82.6653 164.063 83.1229C164.7 84.0387 165.66 85.0413 166.787 85.9704C167.151 86.2707 167.533 86.564 167.928 86.8448L167.933 86.8614C167.95 86.8689 167.967 86.8765 167.984 86.8841C168.766 87.4356 169.598 87.9376 170.441 88.3479C171.513 89.0245 172.617 89.6278 173.786 89.6317C174.638 89.6345 174.705 89.9026 174.757 90.1134C174.801 90.2917 174.835 90.429 175.326 90.3298L175.681 89.372C178.588 89.0354 180.748 87.5539 181.631 86.9484L181.634 86.9466L181.635 86.9459L181.636 86.9453C181.742 86.8725 181.826 86.8149 181.891 86.7729L181.901 86.7666L181.91 86.7594C183.035 85.8695 183.878 83.9037 183.614 81.9315C183.345 79.9272 181.942 77.9405 178.632 77.0081L178.557 76.9855L178.482 77.0131C177.395 77.4103 174.881 78.5029 173.273 79.7872C172.52 79.0236 171.419 78.4171 170.501 77.9975C170.004 77.7706 169.553 77.5947 169.226 77.4756C169.144 77.4457 169.07 77.4194 169.005 77.3967ZM167.095 85.5956C167.319 85.7807 167.551 85.9631 167.788 86.1412C167.631 84.9215 167.829 83.5794 167.867 83.9888C167.918 84.5341 169.408 87.787 168.702 85.1028C167.996 82.4185 168.924 80.5906 168.785 81.0618C168.646 81.5331 168.65 83.5494 169.337 85.0437C170.024 86.5381 170.701 86.9334 171.022 86.4453C171.293 86.032 170.424 84.389 169.722 83.0631L169.722 83.0626L169.722 83.0625C169.595 82.8225 169.473 82.5929 169.365 82.3829C169.365 82.3829 170.737 84.3634 171.507 85.7585C172.276 87.1535 173.801 87.415 173.394 85.3995C172.989 83.39 170.581 80.2423 169.418 78.9073C169.421 78.9057 169.425 78.9061 169.427 78.9086C170.333 79.7348 171.699 81.2614 172.751 82.9666C172.97 83.3206 173.177 83.6713 173.375 84.0067C174.119 85.2648 174.736 86.3073 175.326 86.5031C176.007 86.7293 177.674 83.0237 178.767 80.5951C179.121 79.8083 179.414 79.1555 179.595 78.8139L176.356 87.5511C178.086 84.1338 179.65 80.1696 180.356 78.213C179.968 78.0018 179.533 77.8109 179.046 77.6448C177.394 79.0572 174.511 81.684 173.875 82.9023C173.13 84.3313 173.933 81.4294 178.301 77.6013C177.06 78.0894 174.793 79.1341 173.408 80.3043L173.227 80.4565L173.071 80.2801C172.391 79.5155 171.273 78.884 170.3 78.4393C169.817 78.2188 169.379 78.0477 169.061 77.9318C168.902 77.8739 168.773 77.8299 168.685 77.8004C168.641 77.7857 168.606 77.7746 168.583 77.7673C168.572 77.7636 168.563 77.7609 168.558 77.7591L168.551 77.7572L168.55 77.7566L168.509 77.7442L168.467 77.7606C167.746 79.2378 166.603 82.1536 166.847 84.0467C166.863 84.1722 166.875 84.2726 166.884 84.3501L166.857 84.3374C166.715 83.4664 166.291 80.2065 166.41 78.3796C165.688 78.5326 164.957 78.8542 164.397 79.5728C164.145 79.8959 163.923 80.3047 163.753 80.8246C163.687 81.026 163.701 81.3029 163.822 81.6569C163.942 82.0078 164.158 82.4102 164.461 82.8455C165.065 83.7153 165.992 84.6862 167.095 85.5956Z" fill="url(#paint1_linear)"/>
<path fill-rule="evenodd" clip-rule="evenodd" d="M175.747 67.9162C173.87 68.2371 172.104 70.1487 171.456 71.0644C172.418 68.5918 173.752 66.1764 175.842 65.9824C176.135 65.9552 176.484 65.8638 176.861 65.7307C176.834 65.7053 176.811 65.6801 176.791 65.6552C176.769 65.629 176.711 65.5814 176.605 65.5234C176.504 65.4686 176.379 65.4148 176.246 65.3682C175.969 65.2711 175.707 65.2227 175.579 65.2346C175.517 65.2404 175.449 65.2586 175.367 65.2863C175.343 65.2943 175.315 65.3043 175.285 65.3151C175.226 65.3362 175.16 65.3601 175.102 65.3773C174.909 65.4347 174.648 65.4747 174.405 65.2744C174.4 65.2728 174.385 65.2694 174.352 65.2729C174.297 65.2787 174.221 65.3012 174.131 65.342C173.959 65.4195 173.78 65.5413 173.661 65.6349C173.511 65.8055 173.137 66.1029 172.639 66.1492C172.57 66.1556 172.505 66.154 172.443 66.1462C172.424 66.1671 172.403 66.189 172.38 66.2121C171.978 66.6161 171.409 69.5716 171.175 70.9988C171.242 67.9866 171.707 66.5628 172.074 66.019C171.973 65.9618 171.887 65.8955 171.814 65.8394C171.604 65.6767 171.512 65.6122 171.399 65.6227C171.393 65.6232 171.389 65.6239 171.386 65.6246C171.385 65.626 171.384 65.628 171.383 65.6306C171.367 65.6655 171.358 65.7261 171.35 65.836C171.349 65.8461 171.348 65.857 171.348 65.8685C171.342 65.9555 171.334 66.0782 171.301 66.1796C171.281 66.2424 171.246 66.3173 171.181 66.3797C171.111 66.4461 171.024 66.4824 170.929 66.4912C170.801 66.5031 170.674 66.4832 170.565 66.4591C170.496 66.4441 170.42 66.4236 170.351 66.4053L170.351 66.4053C170.316 66.3958 170.282 66.3869 170.254 66.3796C170.157 66.3552 170.084 66.342 170.028 66.3417C169.976 66.3414 169.959 66.3525 169.952 66.3576C169.906 66.3952 169.866 66.4701 169.843 66.5792C169.813 66.7231 169.717 66.8252 169.626 66.8872C169.536 66.9491 169.424 66.9892 169.313 66.9952C169.307 67.0135 169.301 67.0543 169.308 67.1313C169.33 67.3727 169.447 67.4853 169.549 67.5404C169.652 67.5966 169.73 67.6879 169.776 67.7858C169.822 67.8835 169.847 68.0119 169.805 68.1413C169.773 68.242 169.762 68.333 169.774 68.3992C169.784 68.4522 169.806 68.4904 169.868 68.5202C170.079 68.6213 170.172 68.8099 170.212 68.9801C170.251 69.1449 170.249 69.326 170.245 69.4681C170.244 69.4915 170.244 69.5137 170.243 69.5346L170.243 69.5355C170.24 69.6279 170.238 69.6972 170.241 69.7503C170.267 69.7559 170.294 69.765 170.321 69.7789C170.391 69.8154 170.437 69.8726 170.462 69.93C170.506 70.0278 170.497 70.1337 170.488 70.196C170.473 70.306 170.433 70.4462 170.398 70.568C170.389 70.5961 170.381 70.6233 170.374 70.6489C170.341 70.7661 170.32 70.857 170.312 70.9216C170.571 70.9158 170.782 71.0123 170.937 71.1344C171.102 71.2639 171.21 71.4268 171.263 71.5475L171.279 71.5836L171.283 71.6228C171.285 71.6458 171.292 71.6752 171.303 71.7027C171.315 71.7304 171.328 71.7477 171.339 71.757C171.347 71.7641 171.356 71.7697 171.375 71.7714C171.397 71.7733 171.444 71.7705 171.523 71.7359C171.594 71.7043 171.716 71.6601 171.839 71.7023C172.007 71.7599 172.043 71.9157 172.048 71.9946C172.052 72.0731 172.035 72.1548 172.019 72.2175C172.002 72.2849 171.978 72.3578 171.956 72.4252L171.95 72.4438L171.95 72.4439C171.913 72.5565 171.882 72.6516 171.865 72.7277C172.248 72.7346 172.631 72.4926 172.992 72.1618C173.331 71.8507 173.697 71.486 173.99 71.1336C174.291 70.7704 174.484 70.4568 174.528 70.2432C174.577 69.9975 174.676 69.7669 174.899 69.6851C175.007 69.6454 175.113 69.6546 175.198 69.6773C175.283 69.6997 175.362 69.7387 175.43 69.7777C175.5 69.8171 175.569 69.8632 175.632 69.9053L175.648 69.9162C175.707 69.9557 175.761 69.9916 175.813 70.0235C175.94 70.1001 176.005 70.1157 176.032 70.1131C176.075 70.1091 176.121 70.0895 176.19 70.0295C176.24 69.9863 176.283 69.9407 176.336 69.8839C176.369 69.8491 176.406 69.8102 176.45 69.765C176.67 69.5418 176.976 69.2922 177.51 69.2427C177.863 69.2099 178.12 69.2902 178.327 69.3545C178.385 69.3726 178.439 69.3895 178.49 69.4022C178.718 69.4589 179.014 69.4868 179.628 69.2645C180.064 69.1064 180.511 69.488 180.465 69.9295C180.452 70.0519 180.448 70.1614 180.455 70.2471C180.46 70.3187 180.472 70.3502 180.475 70.3584C180.476 70.3613 180.476 70.3614 180.474 70.3593C180.556 70.4605 180.708 70.5886 180.865 70.6905C180.887 70.7044 180.908 70.7175 180.929 70.7296C180.924 70.714 180.919 70.6978 180.914 70.6811C180.894 70.6181 180.869 70.533 180.862 70.4586C180.848 70.3097 180.943 70.2177 181.002 70.1779C181.058 70.1405 181.122 70.119 181.166 70.1055C181.21 70.0923 181.259 70.0802 181.303 70.0693L181.318 70.0656C181.369 70.053 181.417 70.0409 181.462 70.0268C181.561 69.9963 181.612 69.967 181.634 69.9445C181.634 69.9443 181.634 69.944 181.635 69.9436C181.639 69.9401 181.651 69.9309 181.636 69.8768C181.587 69.6905 181.516 69.5574 181.452 69.4687C181.42 69.4242 181.39 69.3912 181.366 69.3685C181.354 69.3571 181.344 69.3488 181.336 69.343C181.329 69.3377 181.325 69.3354 181.325 69.3352C181.242 69.2907 181.193 69.203 181.198 69.1096C181.202 69.0176 181.196 68.8781 181.168 68.7637C181.154 68.7063 181.137 68.6689 181.124 68.6487C181.122 68.6457 181.119 68.6437 181.115 68.6428C180.843 68.5705 180.691 68.3495 180.592 68.1835C180.566 68.1394 180.54 68.0942 180.517 68.0524L180.515 68.05C180.491 68.0064 180.468 67.9661 180.445 67.9274C180.441 67.9198 180.436 67.9123 180.432 67.905C179.283 67.7671 177.331 67.6453 175.747 67.9162ZM180.976 67.8775C180.987 67.897 180.998 67.9158 181.009 67.9343C181.106 68.0971 181.173 68.158 181.246 68.175C181.38 68.2064 181.471 68.2938 181.528 68.3799C181.584 68.4642 181.618 68.5608 181.639 68.6475C181.669 68.7669 181.681 68.8937 181.684 69.0012C181.835 69.1373 182.009 69.3849 182.106 69.753C182.161 69.962 182.114 70.1459 181.983 70.2812C181.872 70.3971 181.719 70.4555 181.606 70.4906C181.546 70.5092 181.486 70.5243 181.435 70.5369L181.422 70.5401L181.42 70.5405C181.406 70.5439 181.393 70.5471 181.381 70.5501C181.385 70.5617 181.389 70.5739 181.393 70.5867C181.409 70.6386 181.428 70.699 181.442 70.7542C181.46 70.8223 181.483 70.921 181.474 71.0138C181.47 71.0628 181.455 71.1349 181.402 71.2C181.344 71.2724 181.263 71.3068 181.185 71.314C181.076 71.3241 180.964 71.2855 180.883 71.2512C180.792 71.2125 180.695 71.1585 180.602 71.0983C180.553 71.0665 180.503 71.0317 180.453 70.9949C180.428 71.1239 180.416 71.2657 180.43 71.4153L180.548 72.6877C180.569 72.9058 180.481 73.1002 180.324 73.226C180.17 73.349 179.965 73.3959 179.758 73.3642C179.597 73.3395 179.497 73.3591 179.451 73.3825C179.441 73.3876 179.436 73.392 179.433 73.3947C179.43 73.3973 179.429 73.3989 179.429 73.3995C179.428 73.4 179.427 73.4019 179.426 73.4063C179.426 73.4109 179.425 73.4196 179.426 73.4335L179.427 73.443C179.432 73.5032 179.439 73.5762 179.435 73.6424C179.431 73.7182 179.412 73.8144 179.34 73.9002C179.272 73.9829 179.18 74.0258 179.094 74.0514C179.077 74.0564 179.06 74.061 179.042 74.0653C179.034 74.1504 179.002 74.2318 178.943 74.3038C178.895 74.3613 178.837 74.4022 178.777 74.4309C178.779 74.6161 178.757 74.8087 178.685 74.9852C178.58 75.2417 178.376 75.4447 178.051 75.5418C177.882 75.5922 177.689 75.573 177.527 75.5452C177.412 75.5254 177.285 75.4957 177.167 75.4681L177.167 75.4681C177.117 75.4565 177.069 75.4453 177.025 75.4353C176.861 75.3989 176.731 75.3775 176.634 75.3812C176.588 75.383 176.562 75.3903 176.549 75.3961C176.539 75.4004 176.537 75.4031 176.535 75.4064C176.399 75.6275 176.349 75.7668 176.339 75.8542C176.331 75.9201 176.346 75.9539 176.386 75.9934C176.442 76.0483 176.544 76.1075 176.722 76.1822C176.828 76.2266 176.944 76.27 177.075 76.3194C177.165 76.3531 177.263 76.3897 177.369 76.4312C178.126 76.7256 178.753 76.9404 178.968 77.0101L179.64 77.2271L178.977 77.4691C177.86 77.8766 175.256 79.0141 173.726 80.3042L173.545 80.4565L173.388 80.28C172.707 79.5154 171.586 78.8839 170.611 78.4392C170.128 78.2187 169.688 78.0476 169.37 77.9317C169.21 77.8738 169.082 77.8298 168.993 77.8003C168.949 77.7856 168.914 77.7745 168.891 77.7672C168.88 77.7635 168.871 77.7608 168.866 77.759L168.859 77.7571L168.858 77.7566L168.858 77.7565L168.34 77.5976L168.803 77.317L168.803 77.3169L168.804 77.3161L168.81 77.3125L168.817 77.3084C168.822 77.3053 168.828 77.3015 168.835 77.2969C168.857 77.2829 168.89 77.2616 168.933 77.2334C169.018 77.1769 169.14 77.0928 169.288 76.9833C169.584 76.7642 169.979 76.4451 170.377 76.0455C171.112 75.3073 171.828 74.324 171.987 73.2096C171.886 73.2172 171.782 73.214 171.676 73.1977C171.618 73.1888 171.558 73.1666 171.505 73.1244C171.452 73.0821 171.418 73.0293 171.398 72.9775C171.361 72.8823 171.366 72.7828 171.375 72.713C171.393 72.5826 171.444 72.4282 171.484 72.3072C171.488 72.2957 171.491 72.2845 171.495 72.2736C171.498 72.2645 171.501 72.2555 171.504 72.2467C171.316 72.279 171.149 72.2364 171.019 72.1221C170.883 72.0034 170.826 71.8387 170.806 71.7157C170.775 71.6593 170.718 71.58 170.637 71.5158C170.546 71.444 170.431 71.3957 170.286 71.4091C170.176 71.4194 170.049 71.4001 169.949 71.3052C169.856 71.2156 169.831 71.0993 169.825 71.0157C169.815 70.8556 169.866 70.662 169.907 70.5172C169.917 70.48 169.928 70.4449 169.937 70.4118C169.961 70.3297 169.981 70.26 169.994 70.2013C169.95 70.1825 169.908 70.1539 169.872 70.114C169.803 70.0367 169.778 69.9426 169.768 69.8776C169.749 69.7686 169.754 69.6285 169.758 69.5115L169.758 69.5115C169.758 69.492 169.759 69.473 169.759 69.455C169.763 69.3099 169.762 69.1874 169.739 69.0915C169.718 69.001 169.687 68.9718 169.658 68.9578C169.442 68.854 169.331 68.6763 169.297 68.4867C169.265 68.3138 169.297 68.1391 169.34 68.0009C169.34 67.9988 169.339 67.9958 169.337 67.9922C169.334 67.9856 169.33 67.9792 169.325 67.974C169.32 67.9692 169.317 67.9673 169.317 67.9671C169.086 67.8417 168.863 67.5928 168.824 67.1761C168.808 66.9993 168.829 66.833 168.92 66.7039C169.018 66.5646 169.162 66.5161 169.286 66.5104C169.293 66.5101 169.304 66.5084 169.317 66.5038C169.33 66.4992 169.343 66.4929 169.353 66.4859C169.362 66.4797 169.367 66.4749 169.369 66.4723C169.403 66.3155 169.478 66.117 169.647 65.9803C169.768 65.8819 169.908 65.8555 170.031 65.8562C170.149 65.8569 170.27 65.883 170.372 65.9089C170.417 65.9202 170.457 65.931 170.495 65.9412C170.555 65.9572 170.609 65.9719 170.669 65.985C170.74 66.0005 170.797 66.0086 170.845 66.0093C170.853 65.9694 170.857 65.9143 170.864 65.8276L170.866 65.8008C170.873 65.7031 170.884 65.5554 170.942 65.4288C170.973 65.3602 171.021 65.2897 171.096 65.2342C171.171 65.1782 171.259 65.148 171.354 65.1393C171.671 65.1098 171.913 65.3003 172.075 65.4269L172.075 65.4269C172.087 65.4368 172.099 65.4464 172.111 65.4554C172.3 65.6014 172.427 65.6813 172.594 65.6657C172.949 65.6329 173.223 65.4033 173.305 65.3045L173.321 65.286L173.339 65.2709C173.477 65.159 173.702 65.003 173.931 64.8995C174.045 64.848 174.174 64.8035 174.301 64.7901C174.427 64.7767 174.583 64.7919 174.712 64.8989C174.766 64.9437 174.822 64.9543 174.963 64.9121C175.011 64.8978 175.052 64.8828 175.1 64.8655C175.133 64.8537 175.169 64.8409 175.211 64.8265C175.304 64.795 175.415 64.7623 175.534 64.7512C175.771 64.7293 176.115 64.8078 176.407 64.91C176.558 64.9631 176.708 65.027 176.837 65.097C176.96 65.1638 177.086 65.2481 177.168 65.3498C177.195 65.3838 177.267 65.4472 177.384 65.5273C178.651 64.994 180.053 64.1371 180.581 63.7092C180.833 64.1141 180.947 66.5924 180.976 67.8775ZM170.311 70.9948C170.311 70.9948 170.311 70.9942 170.311 70.9932C170.311 70.9943 170.311 70.9948 170.311 70.9948ZM174.86 70.6385C174.865 70.6306 174.867 70.6271 174.867 70.6269C174.865 70.6307 174.863 70.6345 174.86 70.6385ZM174.867 70.6269C174.867 70.6269 174.867 70.6269 174.867 70.6269C174.896 70.5794 174.916 70.5488 174.932 70.5254C174.971 70.4671 174.98 70.4539 175.003 70.3392C175.009 70.313 175.008 70.2942 175.008 70.2796C175.007 70.256 175.007 70.2434 175.032 70.2281L175.038 70.2293C175.187 70.2608 175.305 70.3464 175.318 70.4871C175.322 70.5323 175.338 70.5714 175.359 70.6036C175.433 70.7152 175.578 70.7453 175.571 70.6671L175.565 70.5892L175.554 70.4341L175.563 70.4391C175.638 70.4848 175.842 70.57 175.842 70.57C175.842 70.57 176.192 70.7381 176.452 70.6846C176.842 70.6043 176.927 70.446 177.002 70.3051C177.084 70.1534 177.154 70.0219 177.583 70.0297C177.906 70.0355 178.268 70.0097 178.601 69.986C179.12 69.949 179.569 69.917 179.69 70.0174C179.764 70.0788 179.792 70.1954 179.765 70.3158C179.74 70.4289 179.628 70.4936 179.512 70.5C179.229 70.5158 178.82 70.4697 178.517 70.2179C178.12 69.8882 178.186 70.2792 178.27 70.5159C178.361 70.8435 178.605 71.5664 178.851 71.8369C179.021 72.025 179.068 71.7994 179.121 71.542C179.148 71.4138 179.176 71.2777 179.222 71.1809C179.392 71.2504 179.601 71.2762 179.8 71.1989C179.838 71.1841 179.874 71.1654 179.909 71.1434C179.927 71.2412 179.935 71.3354 179.944 71.4334C179.945 71.4423 179.946 71.4512 179.947 71.4602L180.065 72.7325C180.08 72.8907 179.853 72.9512 179.734 72.933C179.705 72.9285 179.678 72.9239 179.652 72.9196C179.611 72.9127 179.573 72.9063 179.537 72.902C179.473 72.875 179.411 72.8385 179.353 72.79C178.955 72.4602 178.873 72.5595 178.79 72.6588C178.748 72.7094 178.789 72.923 179.059 73.0843C179.039 73.1081 179.021 73.1342 179.005 73.1626C178.95 73.2599 178.932 73.3687 178.942 73.4784C178.944 73.4926 178.945 73.5055 178.946 73.5171C178.877 73.5198 178.803 73.5151 178.73 73.4981C178.505 73.4456 178.377 73.3169 178.341 73.2592C178.305 73.2014 178.199 73.1074 178.06 73.1936C177.887 73.3014 178.003 73.5656 178.185 73.5487C178.256 73.5421 178.345 73.5866 178.429 73.6614C178.494 73.7574 178.52 73.8608 178.548 73.9711L178.555 73.9981C178.498 74.0179 178.433 74.0224 178.37 74.0252C178.303 74.0105 178.246 73.9879 178.224 73.9549C178.152 73.8474 177.866 73.883 178.009 74.0979C178.064 74.1801 178.131 74.1969 178.189 74.2112C178.226 74.2203 178.258 74.2283 178.281 74.2511L178.283 74.2729C178.303 74.4853 178.291 74.6657 178.235 74.8012C178.186 74.9224 178.096 75.0216 177.912 75.0766C177.858 75.0927 177.762 75.0928 177.609 75.0667C177.514 75.0504 177.418 75.0282 177.315 75.004C176.976 74.8186 176.63 74.4665 176.301 73.9985C175.625 73.0347 175.301 72.4414 175.224 72.2653C175.23 72.3168 175.236 72.3709 175.243 72.4272C175.269 72.6507 175.285 72.9323 175.303 73.2434C175.364 74.3187 175.445 75.7457 176.045 76.3388C176.172 76.4645 176.351 76.553 176.534 76.6299C176.647 76.677 176.779 76.7266 176.919 76.7794C177.008 76.8128 177.101 76.8475 177.193 76.8837C177.567 77.0289 177.909 77.1552 178.188 77.2549C176.94 77.7646 174.945 78.7082 173.591 79.7871C172.837 79.0235 171.733 78.417 170.813 77.9975C170.315 77.7705 169.863 77.5946 169.535 77.4755L169.505 77.4645L169.47 77.4517C169.504 77.4272 169.54 77.4011 169.577 77.3735C169.887 77.1439 170.302 76.8092 170.721 76.3882C171.219 75.8887 171.546 75.2872 171.871 74.6915C172.24 74.0151 172.604 73.346 173.209 72.8418C173.551 72.5566 173.926 72.3224 174.308 72.0832C174.655 71.8668 175.008 71.6463 175.349 71.3802C175.37 71.3635 175.391 71.3472 175.412 71.3312C175.556 71.2196 175.543 70.769 175.089 70.8112C175.075 70.8125 175.06 70.8141 175.046 70.8158C174.957 70.826 174.865 70.8366 174.847 70.7683C174.834 70.7183 174.853 70.662 174.863 70.6383C174.866 70.6311 174.867 70.627 174.867 70.6269Z" fill="url(#paint2_linear)"/>
</g>
<path fill-rule="evenodd" clip-rule="evenodd" d="M183.763 74.9378V67.3568C183.763 66.0706 182.874 64.9561 181.622 64.6731L176.348 63.4811C174.266 63.0105 172.106 63.0105 170.024 63.4811L164.75 64.6731C163.498 64.9561 162.609 66.0706 162.609 67.3568V74.9378C162.609 78.2453 164.376 81.2996 167.24 82.943L171.822 85.5718C172.667 86.0567 173.705 86.0567 174.55 85.5718L179.132 82.9429C181.996 81.2996 183.763 78.2453 183.763 74.9378ZM164.501 63.5681C162.734 63.9676 161.478 65.541 161.478 67.3568V74.9378C161.478 78.6515 163.462 82.0809 166.678 83.926L171.26 86.5549C172.453 87.2394 173.919 87.2394 175.112 86.5549L179.694 83.926C182.91 82.0809 184.894 78.6515 184.894 74.9378V67.3568C184.894 65.541 183.638 63.9676 181.871 63.5681L176.597 62.376C174.351 61.8685 172.021 61.8685 169.775 62.376L164.501 63.5681Z" fill="url(#paint3_linear)"/>
<rect x="64.4015" y="201.315" width="275.389" height="31.6819" rx="9.3421" stroke="#CCCCCC" stroke-width="0.812357"/>
<path d="M64.8435 192.787V185.915H67.1636C68.2749 185.915 69.1328 186.21 69.7372 186.802C70.3416 187.387 70.6438 188.235 70.6438 189.346C70.6438 190.457 70.3416 191.309 69.7372 191.9C69.1328 192.491 68.2749 192.787 67.1636 192.787H64.8435ZM65.6429 192.105H67.1051C68.8988 192.105 69.7957 191.185 69.7957 189.346C69.7957 187.513 68.8988 186.597 67.1051 186.597H65.6429V192.105ZM74.1062 192.875C73.3589 192.875 72.7675 192.657 72.332 192.222C71.8966 191.78 71.6789 191.182 71.6789 190.428C71.6789 189.941 71.7764 189.512 71.9713 189.141C72.1663 188.764 72.4328 188.475 72.7707 188.274C73.1151 188.066 73.5116 187.962 73.96 187.962C74.6034 187.962 75.107 188.17 75.471 188.586C75.8349 188.995 76.0169 189.56 76.0169 190.282V190.584H72.449C72.475 191.123 72.631 191.536 72.9169 191.822C73.2029 192.101 73.5993 192.241 74.1062 192.241C74.3922 192.241 74.6651 192.199 74.9251 192.114C75.185 192.023 75.432 191.877 75.6659 191.676L75.9389 192.231C75.7244 192.433 75.4515 192.592 75.12 192.709C74.7886 192.82 74.4507 192.875 74.1062 192.875ZM73.9795 188.547C73.5311 188.547 73.1769 188.686 72.9169 188.966C72.657 189.245 72.5043 189.612 72.4588 190.067H75.3345C75.315 189.586 75.1883 189.213 74.9543 188.946C74.7269 188.68 74.4019 188.547 73.9795 188.547ZM78.7584 192.875C78.3879 192.875 78.037 192.823 77.7055 192.719C77.3741 192.615 77.1012 192.469 76.8867 192.28L77.1401 191.725C77.3741 191.913 77.6308 192.053 77.9103 192.144C78.1962 192.228 78.4854 192.27 78.7779 192.27C79.1483 192.27 79.4277 192.202 79.6162 192.066C79.8047 191.929 79.8989 191.744 79.8989 191.51C79.8989 191.328 79.8372 191.185 79.7137 191.081C79.5902 190.971 79.3952 190.886 79.1288 190.828L78.2417 190.633C77.4358 190.457 77.0329 190.041 77.0329 189.385C77.0329 188.956 77.2019 188.612 77.5398 188.352C77.8843 188.092 78.3327 187.962 78.8851 187.962C79.21 187.962 79.5187 188.014 79.8112 188.118C80.1101 188.215 80.3571 188.361 80.552 188.556L80.2888 189.112C80.1004 188.937 79.8794 188.803 79.626 188.712C79.379 188.615 79.132 188.566 78.8851 188.566C78.5212 188.566 78.245 188.638 78.0565 188.781C77.868 188.924 77.7738 189.112 77.7738 189.346C77.7738 189.71 78.0142 189.944 78.4952 190.048L79.3823 190.233C79.7982 190.324 80.1134 190.47 80.3278 190.672C80.5423 190.867 80.6495 191.133 80.6495 191.471C80.6495 191.907 80.4773 192.251 80.1329 192.504C79.7884 192.751 79.3303 192.875 78.7584 192.875ZM83.8611 192.875C83.3866 192.875 82.9772 192.774 82.6328 192.573C82.2883 192.365 82.0219 192.075 81.8334 191.705C81.6514 191.328 81.5605 190.889 81.5605 190.389C81.5605 189.635 81.7652 189.044 82.1746 188.615C82.584 188.179 83.1462 187.962 83.8611 187.962C84.1535 187.962 84.4427 188.014 84.7287 188.118C85.0146 188.222 85.2518 188.368 85.4403 188.556L85.1673 189.132C84.9789 188.95 84.7709 188.816 84.5434 188.732C84.3225 188.647 84.1113 188.605 83.9098 188.605C83.4159 188.605 83.0357 188.761 82.7692 189.073C82.5028 189.378 82.3696 189.82 82.3696 190.399C82.3696 190.964 82.5028 191.413 82.7692 191.744C83.0357 192.069 83.4159 192.231 83.9098 192.231C84.1113 192.231 84.3225 192.189 84.5434 192.105C84.7709 192.02 84.9789 191.884 85.1673 191.695L85.4403 192.27C85.2518 192.459 85.0114 192.608 84.7189 192.719C84.433 192.823 84.147 192.875 83.8611 192.875ZM86.3653 192.787V188.049H87.1354V188.898C87.3889 188.326 87.9088 188.01 88.6951 187.952L88.9778 187.923L89.0363 188.605L88.5392 188.664C88.0907 188.703 87.7496 188.846 87.5156 189.093C87.2816 189.333 87.1647 189.664 87.1647 190.087V192.787H86.3653ZM89.7616 186.87V185.983H90.7364V186.87H89.7616ZM89.8591 192.787V188.049H90.6487V192.787H89.8591ZM92.1248 194.542V188.049H92.8949V188.898C93.0379 188.605 93.2491 188.378 93.5285 188.215C93.8145 188.046 94.1459 187.962 94.5229 187.962C94.9453 187.962 95.3125 188.062 95.6244 188.264C95.9429 188.459 96.1866 188.742 96.3555 189.112C96.531 189.476 96.6187 189.911 96.6187 190.418C96.6187 190.919 96.531 191.354 96.3555 191.725C96.1866 192.088 95.9429 192.371 95.6244 192.573C95.3125 192.774 94.9453 192.875 94.5229 192.875C94.1589 192.875 93.834 192.794 93.548 192.631C93.2621 192.469 93.0509 192.244 92.9144 191.959V194.542H92.1248ZM94.3571 192.241C94.7991 192.241 95.1532 192.085 95.4197 191.773C95.6862 191.455 95.8194 191.003 95.8194 190.418C95.8194 189.827 95.6862 189.375 95.4197 189.063C95.1532 188.751 94.7991 188.595 94.3571 188.595C93.9152 188.595 93.561 188.751 93.2946 189.063C93.0281 189.375 92.8949 189.827 92.8949 190.418C92.8949 191.003 93.0281 191.455 93.2946 191.773C93.561 192.085 93.9152 192.241 94.3571 192.241ZM99.6614 192.875C99.1025 192.875 98.6833 192.729 98.4039 192.436C98.1244 192.137 97.9847 191.708 97.9847 191.149V188.664H97.0586V188.049H97.9847V186.597H98.7743V188.049H100.276V188.664H98.7743V191.071C98.7743 191.442 98.8523 191.725 99.0083 191.92C99.1643 192.108 99.4177 192.202 99.7687 192.202C99.8726 192.202 99.9766 192.189 100.081 192.163C100.185 192.137 100.279 192.111 100.363 192.085L100.5 192.69C100.415 192.735 100.292 192.777 100.129 192.816C99.9669 192.855 99.8109 192.875 99.6614 192.875ZM101.071 186.87V185.983H102.046V186.87H101.071ZM101.169 192.787V188.049H101.958V192.787H101.169ZM105.403 192.875C104.942 192.875 104.542 192.774 104.204 192.573C103.866 192.371 103.603 192.088 103.415 191.725C103.233 191.354 103.142 190.919 103.142 190.418C103.142 189.918 103.233 189.486 103.415 189.122C103.603 188.751 103.866 188.465 104.204 188.264C104.542 188.062 104.942 187.962 105.403 187.962C105.858 187.962 106.255 188.062 106.593 188.264C106.937 188.465 107.2 188.751 107.382 189.122C107.571 189.486 107.665 189.918 107.665 190.418C107.665 190.919 107.571 191.354 107.382 191.725C107.2 192.088 106.937 192.371 106.593 192.573C106.255 192.774 105.858 192.875 105.403 192.875ZM105.403 192.241C105.845 192.241 106.2 192.085 106.466 191.773C106.732 191.455 106.866 191.003 106.866 190.418C106.866 189.827 106.732 189.375 106.466 189.063C106.2 188.751 105.845 188.595 105.403 188.595C104.955 188.595 104.598 188.751 104.331 189.063C104.071 189.375 103.941 189.827 103.941 190.418C103.941 191.003 104.071 191.455 104.331 191.773C104.598 192.085 104.955 192.241 105.403 192.241ZM108.851 192.787V188.049H109.621V188.859C109.777 188.56 109.998 188.335 110.284 188.186C110.57 188.036 110.892 187.962 111.249 187.962C112.373 187.962 112.936 188.586 112.936 189.833V192.787H112.146V189.882C112.146 189.44 112.058 189.119 111.883 188.917C111.714 188.709 111.441 188.605 111.064 188.605C110.629 188.605 110.281 188.742 110.021 189.015C109.767 189.281 109.641 189.638 109.641 190.087V192.787H108.851Z" fill="#808080"/>
<path d="M77.1182 221.032L80.6893 213.014H81.6674L85.2499 221.032H84.0444L83.2028 219.076H79.1426L78.3124 221.032H77.1182ZM81.167 214.322L79.5634 218.12H82.8047L81.1897 214.322H81.167ZM89.2876 221.032V213.014H92.1195C93.4387 213.014 94.4547 213.359 95.1674 214.049C95.8877 214.739 96.2479 215.728 96.2479 217.017C96.2479 218.306 95.8877 219.299 95.1674 219.997C94.4547 220.687 93.4387 221.032 92.1195 221.032H89.2876ZM90.4704 220.043H92.0512C94.0301 220.043 95.0196 219.034 95.0196 217.017C95.0196 215.008 94.0301 214.003 92.0512 214.003H90.4704V220.043ZM100.308 221.134C99.3979 221.134 98.6814 220.88 98.1583 220.372C97.6351 219.857 97.3735 219.155 97.3735 218.268C97.3735 217.7 97.4872 217.199 97.7147 216.767C97.9497 216.327 98.272 215.986 98.6814 215.744C99.0908 215.501 99.5609 215.38 100.092 215.38C100.857 215.38 101.46 215.626 101.9 216.119C102.34 216.604 102.56 217.275 102.56 218.132V218.519H98.4881C98.5715 219.671 99.1818 220.247 100.319 220.247C100.638 220.247 100.948 220.198 101.252 220.099C101.563 220.001 101.854 219.838 102.127 219.61L102.469 220.406C102.218 220.634 101.896 220.812 101.502 220.941C101.108 221.07 100.71 221.134 100.308 221.134ZM100.137 216.187C99.6595 216.187 99.2804 216.335 98.9999 216.631C98.7193 216.926 98.5487 217.321 98.4881 217.813H101.593C101.57 217.298 101.434 216.9 101.183 216.619C100.933 216.331 100.584 216.187 100.137 216.187ZM103.937 221.032V213.014H109.032V213.969H105.12V216.528H108.793V217.484H105.12V221.032H103.937ZM110.007 214.197V213.003H111.349V214.197H110.007ZM110.109 221.032V215.482H111.258V221.032H110.109ZM115.862 223.079V215.482H116.988V216.426C117.148 216.107 117.39 215.853 117.716 215.664C118.042 215.474 118.417 215.38 118.842 215.38C119.335 215.38 119.763 215.497 120.127 215.732C120.499 215.967 120.783 216.301 120.98 216.733C121.185 217.158 121.287 217.666 121.287 218.257C121.287 218.848 121.185 219.36 120.98 219.792C120.783 220.224 120.499 220.558 120.127 220.793C119.763 221.021 119.335 221.134 118.842 221.134C118.433 221.134 118.065 221.047 117.739 220.873C117.42 220.691 117.178 220.444 117.011 220.134V223.079H115.862ZM118.558 220.247C119.035 220.247 119.415 220.077 119.695 219.735C119.983 219.394 120.127 218.901 120.127 218.257C120.127 217.613 119.983 217.123 119.695 216.79C119.415 216.449 119.035 216.278 118.558 216.278C118.08 216.278 117.697 216.449 117.409 216.79C117.129 217.123 116.988 217.613 116.988 218.257C116.988 218.901 117.129 219.394 117.409 219.735C117.697 220.077 118.08 220.247 118.558 220.247ZM124.39 221.134C123.784 221.134 123.329 220.964 123.025 220.623C122.73 220.281 122.582 219.781 122.582 219.121V213.014H123.73V219.053C123.73 219.804 124.038 220.179 124.652 220.179C124.743 220.179 124.826 220.175 124.902 220.168C124.985 220.16 125.069 220.145 125.152 220.122L125.129 221.043C124.872 221.104 124.625 221.134 124.39 221.134ZM127.832 221.134C127.446 221.134 127.101 221.059 126.797 220.907C126.494 220.755 126.251 220.551 126.069 220.293C125.895 220.035 125.808 219.743 125.808 219.417C125.808 219.008 125.91 218.685 126.115 218.45C126.327 218.215 126.672 218.045 127.15 217.939C127.635 217.832 128.287 217.779 129.106 217.779H129.493V217.484C129.493 217.051 129.402 216.741 129.22 216.551C129.038 216.361 128.738 216.267 128.321 216.267C128.003 216.267 127.684 216.316 127.366 216.415C127.048 216.506 126.722 216.653 126.388 216.858L126.035 216.051C126.323 215.846 126.684 215.683 127.116 215.562C127.548 215.44 127.961 215.38 128.355 215.38C129.114 215.38 129.675 215.562 130.039 215.926C130.403 216.282 130.585 216.843 130.585 217.609V221.032H129.504V220.111C129.368 220.429 129.155 220.679 128.867 220.861C128.579 221.043 128.234 221.134 127.832 221.134ZM128.06 220.315C128.469 220.315 128.81 220.171 129.083 219.883C129.356 219.595 129.493 219.231 129.493 218.792V218.484H129.117C128.564 218.484 128.128 218.511 127.81 218.564C127.499 218.617 127.275 218.708 127.139 218.837C127.01 218.958 126.945 219.129 126.945 219.349C126.945 219.637 127.044 219.872 127.241 220.054C127.438 220.228 127.711 220.315 128.06 220.315ZM134.532 221.134C133.835 221.134 133.315 220.956 132.974 220.6C132.633 220.243 132.462 219.728 132.462 219.053V216.369H131.382V215.482H132.462V213.81H133.611V215.482H135.328V216.369H133.611V218.962C133.611 219.364 133.694 219.667 133.861 219.872C134.036 220.077 134.316 220.179 134.703 220.179C134.824 220.179 134.942 220.168 135.055 220.145C135.169 220.115 135.283 220.08 135.397 220.043L135.579 220.907C135.465 220.975 135.306 221.028 135.101 221.066C134.904 221.112 134.714 221.134 134.532 221.134ZM136.65 221.032V216.369H135.57V215.482H136.65V215.38C136.65 214.614 136.844 214.038 137.23 213.651C137.625 213.264 138.227 213.048 139.039 213.003L139.539 212.969L139.619 213.833L139.095 213.867C138.633 213.897 138.299 214.022 138.095 214.242C137.897 214.462 137.799 214.788 137.799 215.22V215.482H139.357V216.369H137.799V221.032H136.65ZM142.519 221.134C141.958 221.134 141.472 221.017 141.063 220.782C140.654 220.547 140.335 220.217 140.108 219.792C139.888 219.36 139.778 218.848 139.778 218.257C139.778 217.666 139.888 217.158 140.108 216.733C140.335 216.301 140.654 215.967 141.063 215.732C141.472 215.497 141.958 215.38 142.519 215.38C143.065 215.38 143.542 215.497 143.952 215.732C144.361 215.967 144.68 216.301 144.907 216.733C145.135 217.158 145.248 217.666 145.248 218.257C145.248 218.848 145.135 219.36 144.907 219.792C144.68 220.217 144.361 220.547 143.952 220.782C143.542 221.017 143.065 221.134 142.519 221.134ZM142.519 220.247C142.989 220.247 143.368 220.077 143.656 219.735C143.944 219.394 144.088 218.901 144.088 218.257C144.088 217.613 143.944 217.123 143.656 216.79C143.368 216.449 142.989 216.278 142.519 216.278C142.041 216.278 141.658 216.449 141.37 216.79C141.082 217.123 140.938 217.613 140.938 218.257C140.938 218.901 141.082 219.394 141.37 219.735C141.658 220.077 142.041 220.247 142.519 220.247ZM146.538 221.032V215.482H147.653V216.471C147.941 215.812 148.54 215.444 149.45 215.368L149.825 215.345L149.905 216.324L149.211 216.392C148.203 216.49 147.698 217.01 147.698 217.95V221.032H146.538ZM150.804 221.032V215.482H151.918V216.38C152.085 216.062 152.316 215.816 152.612 215.641C152.908 215.467 153.253 215.38 153.647 215.38C154.496 215.38 155.046 215.751 155.296 216.494C155.47 216.145 155.721 215.872 156.047 215.675C156.373 215.478 156.744 215.38 157.161 215.38C158.405 215.38 159.026 216.123 159.026 217.609V221.032H157.878V217.666C157.878 217.195 157.794 216.851 157.628 216.631C157.468 216.411 157.203 216.301 156.831 216.301C156.414 216.301 156.085 216.449 155.842 216.744C155.599 217.032 155.478 217.427 155.478 217.927V221.032H154.329V217.666C154.329 217.195 154.25 216.851 154.091 216.631C153.931 216.411 153.666 216.301 153.294 216.301C152.877 216.301 152.548 216.449 152.305 216.744C152.07 217.032 151.952 217.427 151.952 217.927V221.032H150.804ZM166.6 221.134C166.175 221.134 165.8 221.04 165.474 220.85C165.148 220.66 164.905 220.406 164.746 220.088V221.032H163.62V213.014H164.769V216.38C164.936 216.077 165.178 215.835 165.497 215.653C165.823 215.471 166.19 215.38 166.6 215.38C167.093 215.38 167.521 215.497 167.885 215.732C168.256 215.967 168.541 216.301 168.738 216.733C168.943 217.158 169.045 217.666 169.045 218.257C169.045 218.848 168.943 219.36 168.738 219.792C168.541 220.224 168.256 220.558 167.885 220.793C167.521 221.021 167.093 221.134 166.6 221.134ZM166.315 220.247C166.793 220.247 167.172 220.077 167.453 219.735C167.741 219.394 167.885 218.901 167.885 218.257C167.885 217.613 167.741 217.123 167.453 216.79C167.172 216.449 166.793 216.278 166.315 216.278C165.838 216.278 165.455 216.449 165.167 216.79C164.886 217.123 164.746 217.613 164.746 218.257C164.746 218.901 164.886 219.394 165.167 219.735C165.455 220.077 165.838 220.247 166.315 220.247ZM172.114 221.134C171.727 221.134 171.382 221.059 171.079 220.907C170.775 220.755 170.533 220.551 170.351 220.293C170.176 220.035 170.089 219.743 170.089 219.417C170.089 219.008 170.192 218.685 170.396 218.45C170.609 218.215 170.954 218.045 171.431 217.939C171.917 217.832 172.569 217.779 173.387 217.779H173.774V217.484C173.774 217.051 173.683 216.741 173.501 216.551C173.319 216.361 173.02 216.267 172.603 216.267C172.284 216.267 171.966 216.316 171.647 216.415C171.329 216.506 171.003 216.653 170.669 216.858L170.317 216.051C170.605 215.846 170.965 215.683 171.397 215.562C171.829 215.44 172.243 215.38 172.637 215.38C173.395 215.38 173.956 215.562 174.32 215.926C174.684 216.282 174.866 216.843 174.866 217.609V221.032H173.785V220.111C173.649 220.429 173.437 220.679 173.149 220.861C172.86 221.043 172.515 221.134 172.114 221.134ZM172.341 220.315C172.751 220.315 173.092 220.171 173.365 219.883C173.638 219.595 173.774 219.231 173.774 218.792V218.484H173.399C172.845 218.484 172.409 218.511 172.091 218.564C171.78 218.617 171.556 218.708 171.42 218.837C171.291 218.958 171.227 219.129 171.227 219.349C171.227 219.637 171.325 219.872 171.522 220.054C171.719 220.228 171.992 220.315 172.341 220.315ZM178.393 221.134C177.938 221.134 177.513 221.077 177.119 220.964C176.725 220.842 176.395 220.676 176.13 220.463L176.459 219.69C176.74 219.887 177.047 220.039 177.381 220.145C177.722 220.251 178.063 220.304 178.404 220.304C178.806 220.304 179.109 220.232 179.314 220.088C179.519 219.944 179.621 219.751 179.621 219.508C179.621 219.311 179.553 219.159 179.416 219.053C179.28 218.939 179.075 218.852 178.802 218.792L177.722 218.575C176.766 218.378 176.289 217.885 176.289 217.097C176.289 216.574 176.497 216.157 176.914 215.846C177.331 215.535 177.877 215.38 178.552 215.38C178.939 215.38 179.306 215.436 179.655 215.55C180.012 215.664 180.307 215.835 180.542 216.062L180.212 216.835C179.985 216.638 179.723 216.487 179.428 216.38C179.132 216.274 178.84 216.221 178.552 216.221C178.158 216.221 177.858 216.297 177.654 216.449C177.449 216.593 177.346 216.79 177.346 217.04C177.346 217.419 177.597 217.662 178.097 217.768L179.178 217.984C179.67 218.083 180.042 218.249 180.292 218.484C180.55 218.719 180.679 219.038 180.679 219.44C180.679 219.971 180.47 220.388 180.053 220.691C179.636 220.986 179.083 221.134 178.393 221.134ZM184.561 221.134C183.651 221.134 182.935 220.88 182.412 220.372C181.889 219.857 181.627 219.155 181.627 218.268C181.627 217.7 181.741 217.199 181.968 216.767C182.203 216.327 182.525 215.986 182.935 215.744C183.344 215.501 183.814 215.38 184.345 215.38C185.111 215.38 185.714 215.626 186.153 216.119C186.593 216.604 186.813 217.275 186.813 218.132V218.519H182.742C182.825 219.671 183.435 220.247 184.573 220.247C184.891 220.247 185.202 220.198 185.505 220.099C185.816 220.001 186.108 219.838 186.381 219.61L186.722 220.406C186.472 220.634 186.15 220.812 185.755 220.941C185.361 221.07 184.963 221.134 184.561 221.134ZM184.391 216.187C183.913 216.187 183.534 216.335 183.253 216.631C182.973 216.926 182.802 217.321 182.742 217.813H185.846C185.824 217.298 185.687 216.9 185.437 216.619C185.187 216.331 184.838 216.187 184.391 216.187ZM190.181 221.134C189.695 221.134 189.267 221.021 188.896 220.793C188.532 220.558 188.247 220.224 188.043 219.792C187.838 219.36 187.736 218.848 187.736 218.257C187.736 217.666 187.838 217.158 188.043 216.733C188.247 216.301 188.532 215.967 188.896 215.732C189.26 215.497 189.688 215.38 190.181 215.38C190.598 215.38 190.969 215.471 191.295 215.653C191.621 215.835 191.864 216.081 192.023 216.392V213.014H193.172V221.032H192.046V220.065C191.887 220.399 191.64 220.66 191.307 220.85C190.981 221.04 190.605 221.134 190.181 221.134ZM190.476 220.247C190.947 220.247 191.326 220.077 191.614 219.735C191.902 219.394 192.046 218.901 192.046 218.257C192.046 217.613 191.902 217.123 191.614 216.79C191.326 216.449 190.947 216.278 190.476 216.278C189.999 216.278 189.616 216.449 189.328 216.79C189.04 217.123 188.896 217.613 188.896 218.257C188.896 218.901 189.04 219.394 189.328 219.735C189.616 220.077 189.999 220.247 190.476 220.247ZM200.183 221.134C199.622 221.134 199.137 221.017 198.728 220.782C198.318 220.547 198 220.217 197.772 219.792C197.553 219.36 197.443 218.848 197.443 218.257C197.443 217.666 197.553 217.158 197.772 216.733C198 216.301 198.318 215.967 198.728 215.732C199.137 215.497 199.622 215.38 200.183 215.38C200.729 215.38 201.207 215.497 201.616 215.732C202.026 215.967 202.344 216.301 202.572 216.733C202.799 217.158 202.913 217.666 202.913 218.257C202.913 218.848 202.799 219.36 202.572 219.792C202.344 220.217 202.026 220.547 201.616 220.782C201.207 221.017 200.729 221.134 200.183 221.134ZM200.183 220.247C200.654 220.247 201.033 220.077 201.321 219.735C201.609 219.394 201.753 218.901 201.753 218.257C201.753 217.613 201.609 217.123 201.321 216.79C201.033 216.449 200.654 216.278 200.183 216.278C199.706 216.278 199.323 216.449 199.035 216.79C198.747 217.123 198.603 217.613 198.603 218.257C198.603 218.901 198.747 219.394 199.035 219.735C199.323 220.077 199.706 220.247 200.183 220.247ZM204.203 221.032V215.482H205.318V216.403C205.507 216.07 205.765 215.816 206.091 215.641C206.425 215.467 206.796 215.38 207.205 215.38C208.517 215.38 209.173 216.123 209.173 217.609V221.032H208.024V217.677C208.024 217.199 207.93 216.851 207.74 216.631C207.558 216.411 207.27 216.301 206.876 216.301C206.413 216.301 206.042 216.449 205.761 216.744C205.488 217.032 205.352 217.415 205.352 217.893V221.032H204.203ZM213.869 221.032V213.014H217.189C218.054 213.014 218.721 213.223 219.191 213.64C219.661 214.049 219.896 214.625 219.896 215.368C219.896 215.967 219.737 216.46 219.419 216.847C219.1 217.226 218.649 217.48 218.065 217.609C218.429 217.73 218.736 218.022 218.986 218.484L220.374 221.032H219.077L217.69 218.473C217.531 218.177 217.345 217.98 217.133 217.882C216.928 217.776 216.663 217.722 216.336 217.722H215.051V221.032H213.869ZM215.051 216.835H216.996C218.164 216.835 218.748 216.354 218.748 215.391C218.748 214.436 218.164 213.958 216.996 213.958H215.051V216.835ZM223.911 221.134C223.002 221.134 222.285 220.88 221.762 220.372C221.239 219.857 220.977 219.155 220.977 218.268C220.977 217.7 221.091 217.199 221.318 216.767C221.553 216.327 221.876 215.986 222.285 215.744C222.694 215.501 223.165 215.38 223.695 215.38C224.461 215.38 225.064 215.626 225.504 216.119C225.943 216.604 226.163 217.275 226.163 218.132V218.519H222.092C222.175 219.671 222.785 220.247 223.923 220.247C224.241 220.247 224.552 220.198 224.855 220.099C225.166 220.001 225.458 219.838 225.731 219.61L226.072 220.406C225.822 220.634 225.5 220.812 225.106 220.941C224.711 221.07 224.313 221.134 223.911 221.134ZM223.741 216.187C223.263 216.187 222.884 216.335 222.603 216.631C222.323 216.926 222.152 217.321 222.092 217.813H225.196C225.174 217.298 225.037 216.9 224.787 216.619C224.537 216.331 224.188 216.187 223.741 216.187ZM227.415 223.079V215.482H228.541V216.426C228.701 216.107 228.943 215.853 229.269 215.664C229.595 215.474 229.971 215.38 230.395 215.38C230.888 215.38 231.316 215.497 231.68 215.732C232.052 215.967 232.336 216.301 232.533 216.733C232.738 217.158 232.84 217.666 232.84 218.257C232.84 218.848 232.738 219.36 232.533 219.792C232.336 220.224 232.052 220.558 231.68 220.793C231.316 221.021 230.888 221.134 230.395 221.134C229.986 221.134 229.618 221.047 229.292 220.873C228.974 220.691 228.731 220.444 228.564 220.134V223.079H227.415ZM230.111 220.247C230.589 220.247 230.968 220.077 231.248 219.735C231.536 219.394 231.68 218.901 231.68 218.257C231.68 217.613 231.536 217.123 231.248 216.79C230.968 216.449 230.589 216.278 230.111 216.278C229.633 216.278 229.25 216.449 228.962 216.79C228.682 217.123 228.541 217.613 228.541 218.257C228.541 218.901 228.682 219.394 228.962 219.735C229.25 220.077 229.633 220.247 230.111 220.247ZM236.114 221.134C234.772 221.134 234.101 220.388 234.101 218.894V215.482H235.249V218.905C235.249 219.353 235.34 219.682 235.522 219.895C235.704 220.107 235.992 220.213 236.387 220.213C236.819 220.213 237.168 220.069 237.433 219.781C237.706 219.493 237.842 219.106 237.842 218.621V215.482H238.991V221.032H237.877V220.145C237.695 220.471 237.452 220.717 237.149 220.884C236.845 221.051 236.5 221.134 236.114 221.134ZM242.976 221.134C242.278 221.134 241.759 220.956 241.417 220.6C241.076 220.243 240.906 219.728 240.906 219.053V216.369H239.825V215.482H240.906V213.81H242.054V215.482H243.772V216.369H242.054V218.962C242.054 219.364 242.138 219.667 242.305 219.872C242.479 220.077 242.759 220.179 243.146 220.179C243.267 220.179 243.385 220.168 243.499 220.145C243.612 220.115 243.726 220.08 243.84 220.043L244.022 220.907C243.908 220.975 243.749 221.028 243.544 221.066C243.347 221.112 243.157 221.134 242.976 221.134ZM246.538 221.134C246.151 221.134 245.806 221.059 245.503 220.907C245.2 220.755 244.957 220.551 244.775 220.293C244.601 220.035 244.514 219.743 244.514 219.417C244.514 219.008 244.616 218.685 244.821 218.45C245.033 218.215 245.378 218.045 245.856 217.939C246.341 217.832 246.993 217.779 247.812 217.779H248.198V217.484C248.198 217.051 248.107 216.741 247.925 216.551C247.743 216.361 247.444 216.267 247.027 216.267C246.709 216.267 246.39 216.316 246.072 216.415C245.753 216.506 245.427 216.653 245.094 216.858L244.741 216.051C245.029 215.846 245.389 215.683 245.821 215.562C246.254 215.44 246.667 215.38 247.061 215.38C247.819 215.38 248.38 215.562 248.744 215.926C249.108 216.282 249.29 216.843 249.29 217.609V221.032H248.21V220.111C248.073 220.429 247.861 220.679 247.573 220.861C247.285 221.043 246.94 221.134 246.538 221.134ZM246.765 220.315C247.175 220.315 247.516 220.171 247.789 219.883C248.062 219.595 248.198 219.231 248.198 218.792V218.484H247.823C247.27 218.484 246.834 218.511 246.515 218.564C246.204 218.617 245.981 218.708 245.844 218.837C245.715 218.958 245.651 219.129 245.651 219.349C245.651 219.637 245.749 219.872 245.947 220.054C246.144 220.228 246.417 220.315 246.765 220.315ZM253.238 221.134C252.54 221.134 252.021 220.956 251.68 220.6C251.339 220.243 251.168 219.728 251.168 219.053V216.369H250.088V215.482H251.168V213.81H252.317V215.482H254.034V216.369H252.317V218.962C252.317 219.364 252.4 219.667 252.567 219.872C252.741 220.077 253.022 220.179 253.408 220.179C253.53 220.179 253.647 220.168 253.761 220.145C253.875 220.115 253.988 220.08 254.102 220.043L254.284 220.907C254.17 220.975 254.011 221.028 253.807 221.066C253.609 221.112 253.42 221.134 253.238 221.134ZM254.924 214.197V213.003H256.266V214.197H254.924ZM255.026 221.032V215.482H256.175V221.032H255.026ZM260.203 221.134C259.642 221.134 259.156 221.017 258.747 220.782C258.338 220.547 258.019 220.217 257.792 219.792C257.572 219.36 257.462 218.848 257.462 218.257C257.462 217.666 257.572 217.158 257.792 216.733C258.019 216.301 258.338 215.967 258.747 215.732C259.156 215.497 259.642 215.38 260.203 215.38C260.749 215.38 261.226 215.497 261.636 215.732C262.045 215.967 262.364 216.301 262.591 216.733C262.818 217.158 262.932 217.666 262.932 218.257C262.932 218.848 262.818 219.36 262.591 219.792C262.364 220.217 262.045 220.547 261.636 220.782C261.226 221.017 260.749 221.134 260.203 221.134ZM260.203 220.247C260.673 220.247 261.052 220.077 261.34 219.735C261.628 219.394 261.772 218.901 261.772 218.257C261.772 217.613 261.628 217.123 261.34 216.79C261.052 216.449 260.673 216.278 260.203 216.278C259.725 216.278 259.342 216.449 259.054 216.79C258.766 217.123 258.622 217.613 258.622 218.257C258.622 218.901 258.766 219.394 259.054 219.735C259.342 220.077 259.725 220.247 260.203 220.247ZM264.222 221.032V215.482H265.337V216.403C265.526 216.07 265.784 215.816 266.11 215.641C266.444 215.467 266.815 215.38 267.225 215.38C268.536 215.38 269.192 216.123 269.192 217.609V221.032H268.044V217.677C268.044 217.199 267.949 216.851 267.759 216.631C267.577 216.411 267.289 216.301 266.895 216.301C266.432 216.301 266.061 216.449 265.78 216.744C265.507 217.032 265.371 217.415 265.371 217.893V221.032H264.222ZM273.888 221.032V213.014H277.209C278.073 213.014 278.74 213.23 279.21 213.662C279.68 214.087 279.915 214.686 279.915 215.459C279.915 216.24 279.68 216.847 279.21 217.279C278.74 217.703 278.073 217.916 277.209 217.916H275.071V221.032H273.888ZM275.071 216.972H277.038C278.191 216.972 278.767 216.468 278.767 215.459C278.767 214.458 278.191 213.958 277.038 213.958H275.071V216.972ZM283.193 221.134C282.632 221.134 282.147 221.017 281.737 220.782C281.328 220.547 281.009 220.217 280.782 219.792C280.562 219.36 280.452 218.848 280.452 218.257C280.452 217.666 280.562 217.158 280.782 216.733C281.009 216.301 281.328 215.967 281.737 215.732C282.147 215.497 282.632 215.38 283.193 215.38C283.739 215.38 284.217 215.497 284.626 215.732C285.035 215.967 285.354 216.301 285.581 216.733C285.809 217.158 285.923 217.666 285.923 218.257C285.923 218.848 285.809 219.36 285.581 219.792C285.354 220.217 285.035 220.547 284.626 220.782C284.217 221.017 283.739 221.134 283.193 221.134ZM283.193 220.247C283.663 220.247 284.042 220.077 284.33 219.735C284.618 219.394 284.762 218.901 284.762 218.257C284.762 217.613 284.618 217.123 284.33 216.79C284.042 216.449 283.663 216.278 283.193 216.278C282.715 216.278 282.332 216.449 282.044 216.79C281.756 217.123 281.612 217.613 281.612 218.257C281.612 218.901 281.756 219.394 282.044 219.735C282.332 220.077 282.715 220.247 283.193 220.247ZM288.614 221.032L286.498 215.482H287.681L289.171 219.69L290.706 215.482H291.594L293.106 219.713L294.619 215.482H295.745L293.629 221.032H292.583L291.116 217.063L289.66 221.032H288.614ZM299.235 221.134C298.325 221.134 297.609 220.88 297.086 220.372C296.563 219.857 296.301 219.155 296.301 218.268C296.301 217.7 296.415 217.199 296.642 216.767C296.877 216.327 297.199 215.986 297.609 215.744C298.018 215.501 298.488 215.38 299.019 215.38C299.785 215.38 300.388 215.626 300.827 216.119C301.267 216.604 301.487 217.275 301.487 218.132V218.519H297.416C297.499 219.671 298.109 220.247 299.247 220.247C299.565 220.247 299.876 220.198 300.179 220.099C300.49 220.001 300.782 219.838 301.055 219.61L301.396 220.406C301.146 220.634 300.824 220.812 300.429 220.941C300.035 221.07 299.637 221.134 299.235 221.134ZM299.065 216.187C298.587 216.187 298.208 216.335 297.927 216.631C297.647 216.926 297.476 217.321 297.416 217.813H300.52C300.498 217.298 300.361 216.9 300.111 216.619C299.861 216.331 299.512 216.187 299.065 216.187ZM302.739 221.032V215.482H303.854V216.471C304.142 215.812 304.741 215.444 305.651 215.368L306.026 215.345L306.106 216.324L305.412 216.392C304.404 216.49 303.899 217.01 303.899 217.95V221.032H302.739Z" fill="#0A0A0A"/>
<path d="M64.8435 259.4V252.528H67.1636C68.2749 252.528 69.1328 252.824 69.7372 253.415C70.3416 254 70.6438 254.848 70.6438 255.959C70.6438 257.071 70.3416 257.922 69.7372 258.513C69.1328 259.105 68.2749 259.4 67.1636 259.4H64.8435ZM65.6429 258.718H67.1051C68.8988 258.718 69.7957 257.798 69.7957 255.959C69.7957 254.127 68.8988 253.21 67.1051 253.21H65.6429V258.718ZM71.3015 259.4L74.3332 252.528H75.0156L78.0473 259.4H77.2187L76.4583 257.646H72.8807L72.1301 259.4H71.3015ZM74.6646 253.464L73.1731 256.973H76.1756L74.6841 253.464H74.6646ZM81.9251 259.488C81.2492 259.488 80.6708 259.345 80.1899 259.059C79.709 258.773 79.3386 258.367 79.0786 257.841C78.8252 257.314 78.6984 256.687 78.6984 255.959C78.6984 255.238 78.8252 254.614 79.0786 254.088C79.3386 253.561 79.709 253.155 80.1899 252.869C80.6708 252.583 81.2492 252.44 81.9251 252.44C82.3995 252.44 82.8349 252.515 83.2314 252.664C83.6343 252.814 83.9755 253.032 84.2549 253.317L83.943 253.971C83.6441 253.691 83.3321 253.49 83.0072 253.366C82.6887 253.236 82.3345 253.171 81.9446 253.171C81.1712 253.171 80.5798 253.415 80.1704 253.902C79.761 254.39 79.5563 255.075 79.5563 255.959C79.5563 256.85 79.761 257.538 80.1704 258.026C80.5798 258.513 81.1712 258.757 81.9446 258.757C82.3345 258.757 82.6887 258.695 83.0072 258.572C83.3321 258.442 83.6441 258.237 83.943 257.958L84.2549 258.611C83.9755 258.89 83.6343 259.108 83.2314 259.264C82.8349 259.413 82.3995 259.488 81.9251 259.488ZM88.0147 259.4V252.528H88.8141V258.699H92.3137V259.4H88.0147ZM95.1221 259.488C94.6607 259.488 94.261 259.387 93.923 259.186C93.5851 258.984 93.3219 258.702 93.1334 258.338C92.9515 257.967 92.8605 257.532 92.8605 257.032C92.8605 256.531 92.9515 256.099 93.1334 255.735C93.3219 255.365 93.5851 255.079 93.923 254.877C94.261 254.676 94.6607 254.575 95.1221 254.575C95.577 254.575 95.9734 254.676 96.3114 254.877C96.6558 255.079 96.919 255.365 97.101 255.735C97.2894 256.099 97.3837 256.531 97.3837 257.032C97.3837 257.532 97.2894 257.967 97.101 258.338C96.919 258.702 96.6558 258.984 96.3114 259.186C95.9734 259.387 95.577 259.488 95.1221 259.488ZM95.1221 258.854C95.564 258.854 95.9182 258.699 96.1846 258.387C96.4511 258.068 96.5843 257.616 96.5843 257.032C96.5843 256.44 96.4511 255.988 96.1846 255.677C95.9182 255.365 95.564 255.209 95.1221 255.209C94.6737 255.209 94.3162 255.365 94.0498 255.677C93.7898 255.988 93.6598 256.44 93.6598 257.032C93.6598 257.616 93.7898 258.068 94.0498 258.387C94.3162 258.699 94.6737 258.854 95.1221 258.854ZM100.666 261.243C100.256 261.243 99.8695 261.188 99.5055 261.077C99.1481 260.973 98.8296 260.814 98.5502 260.599L98.8134 260.024C99.1058 260.232 99.395 260.382 99.681 260.473C99.9734 260.564 100.289 260.609 100.627 260.609C101.562 260.609 102.03 260.128 102.03 259.166V258.328C101.894 258.627 101.679 258.864 101.387 259.04C101.101 259.209 100.773 259.293 100.402 259.293C99.9669 259.293 99.59 259.192 99.2716 258.991C98.9531 258.789 98.7062 258.513 98.5307 258.162C98.3617 257.805 98.2772 257.392 98.2772 256.924C98.2772 256.456 98.3617 256.047 98.5307 255.696C98.7062 255.339 98.9531 255.062 99.2716 254.867C99.59 254.672 99.9669 254.575 100.402 254.575C100.773 254.575 101.101 254.659 101.387 254.828C101.679 254.997 101.894 255.228 102.03 255.521V254.663H102.8V259.059C102.8 259.787 102.618 260.333 102.255 260.697C101.897 261.061 101.367 261.243 100.666 261.243ZM100.549 258.65C101.004 258.65 101.364 258.494 101.631 258.182C101.897 257.87 102.03 257.451 102.03 256.924C102.03 256.398 101.897 255.982 101.631 255.677C101.364 255.365 101.004 255.209 100.549 255.209C100.1 255.209 99.7427 255.365 99.4763 255.677C99.2098 255.982 99.0766 256.398 99.0766 256.924C99.0766 257.451 99.2098 257.87 99.4763 258.182C99.7427 258.494 100.1 258.65 100.549 258.65ZM106.251 259.488C105.789 259.488 105.39 259.387 105.052 259.186C104.714 258.984 104.451 258.702 104.262 258.338C104.08 257.967 103.989 257.532 103.989 257.032C103.989 256.531 104.08 256.099 104.262 255.735C104.451 255.365 104.714 255.079 105.052 254.877C105.39 254.676 105.789 254.575 106.251 254.575C106.706 254.575 107.102 254.676 107.44 254.877C107.784 255.079 108.048 255.365 108.23 255.735C108.418 256.099 108.512 256.531 108.512 257.032C108.512 257.532 108.418 257.967 108.23 258.338C108.048 258.702 107.784 258.984 107.44 259.186C107.102 259.387 106.706 259.488 106.251 259.488ZM106.251 258.854C106.693 258.854 107.047 258.699 107.313 258.387C107.58 258.068 107.713 257.616 107.713 257.032C107.713 256.44 107.58 255.988 107.313 255.677C107.047 255.365 106.693 255.209 106.251 255.209C105.802 255.209 105.445 255.365 105.178 255.677C104.918 255.988 104.788 256.44 104.788 257.032C104.788 257.616 104.918 258.068 105.178 258.387C105.445 258.699 105.802 258.854 106.251 258.854Z" fill="#808080"/>
<rect x="64.4015" y="267.928" width="184.405" height="31.6819" rx="9.3421" stroke="#CCCCCC" stroke-width="0.812357"/>
<path d="M87.6658 287.748C86.5968 287.748 85.7779 287.467 85.2093 286.906C84.6482 286.337 84.3677 285.507 84.3677 284.415V279.627H85.5505V284.393C85.5505 285.947 86.2556 286.724 87.6658 286.724C89.0761 286.724 89.7812 285.947 89.7812 284.393V279.627H90.9413V284.415C90.9413 285.507 90.6645 286.337 90.111 286.906C89.5575 287.467 88.7425 287.748 87.6658 287.748ZM92.6404 289.692V282.095H93.7663V283.039C93.9255 282.721 94.1681 282.467 94.4942 282.277C94.8202 282.088 95.1955 281.993 95.6201 281.993C96.1129 281.993 96.5413 282.11 96.9052 282.345C97.2768 282.58 97.5611 282.914 97.7582 283.346C97.9629 283.771 98.0653 284.279 98.0653 284.87C98.0653 285.462 97.9629 285.973 97.7582 286.406C97.5611 286.838 97.2768 287.171 96.9052 287.406C96.5413 287.634 96.1129 287.748 95.6201 287.748C95.2107 287.748 94.8429 287.66 94.5169 287.486C94.1985 287.304 93.9558 287.058 93.789 286.747V289.692H92.6404ZM95.3358 286.861C95.8134 286.861 96.1925 286.69 96.4731 286.349C96.7612 286.008 96.9052 285.515 96.9052 284.87C96.9052 284.226 96.7612 283.737 96.4731 283.403C96.1925 283.062 95.8134 282.891 95.3358 282.891C94.8581 282.891 94.4752 283.062 94.1871 283.403C93.9066 283.737 93.7663 284.226 93.7663 284.87C93.7663 285.515 93.9066 286.008 94.1871 286.349C94.4752 286.69 94.8581 286.861 95.3358 286.861ZM101.168 287.748C100.562 287.748 100.107 287.577 99.8033 287.236C99.5076 286.895 99.3598 286.394 99.3598 285.735V279.627H100.508V285.666C100.508 286.417 100.816 286.792 101.43 286.792C101.521 286.792 101.604 286.788 101.68 286.781C101.763 286.773 101.847 286.758 101.93 286.735L101.907 287.657C101.65 287.717 101.403 287.748 101.168 287.748ZM105.192 287.748C104.631 287.748 104.145 287.63 103.736 287.395C103.326 287.16 103.008 286.83 102.781 286.406C102.561 285.973 102.451 285.462 102.451 284.87C102.451 284.279 102.561 283.771 102.781 283.346C103.008 282.914 103.326 282.58 103.736 282.345C104.145 282.11 104.631 281.993 105.192 281.993C105.738 281.993 106.215 282.11 106.625 282.345C107.034 282.58 107.352 282.914 107.58 283.346C107.807 283.771 107.921 284.279 107.921 284.87C107.921 285.462 107.807 285.973 107.58 286.406C107.352 286.83 107.034 287.16 106.625 287.395C106.215 287.63 105.738 287.748 105.192 287.748ZM105.192 286.861C105.662 286.861 106.041 286.69 106.329 286.349C106.617 286.008 106.761 285.515 106.761 284.87C106.761 284.226 106.617 283.737 106.329 283.403C106.041 283.062 105.662 282.891 105.192 282.891C104.714 282.891 104.331 283.062 104.043 283.403C103.755 283.737 103.611 284.226 103.611 284.87C103.611 285.515 103.755 286.008 104.043 286.349C104.331 286.69 104.714 286.861 105.192 286.861ZM110.985 287.748C110.599 287.748 110.254 287.672 109.95 287.52C109.647 287.369 109.405 287.164 109.223 286.906C109.048 286.648 108.961 286.356 108.961 286.03C108.961 285.621 109.063 285.299 109.268 285.064C109.48 284.829 109.825 284.658 110.303 284.552C110.788 284.446 111.44 284.393 112.259 284.393H112.646V284.097C112.646 283.665 112.555 283.354 112.373 283.164C112.191 282.975 111.891 282.88 111.474 282.88C111.156 282.88 110.838 282.929 110.519 283.028C110.201 283.119 109.875 283.267 109.541 283.471L109.188 282.664C109.477 282.459 109.837 282.296 110.269 282.175C110.701 282.054 111.114 281.993 111.509 281.993C112.267 281.993 112.828 282.175 113.192 282.539C113.556 282.895 113.738 283.456 113.738 284.222V287.645H112.657V286.724C112.521 287.042 112.308 287.293 112.02 287.475C111.732 287.657 111.387 287.748 110.985 287.748ZM111.213 286.929C111.622 286.929 111.963 286.785 112.236 286.497C112.509 286.208 112.646 285.845 112.646 285.405V285.098H112.271C111.717 285.098 111.281 285.124 110.963 285.177C110.652 285.23 110.428 285.321 110.292 285.45C110.163 285.572 110.098 285.742 110.098 285.962C110.098 286.25 110.197 286.485 110.394 286.667C110.591 286.842 110.864 286.929 111.213 286.929ZM117.435 287.748C116.95 287.748 116.521 287.634 116.15 287.406C115.786 287.171 115.502 286.838 115.297 286.406C115.092 285.973 114.99 285.462 114.99 284.87C114.99 284.279 115.092 283.771 115.297 283.346C115.502 282.914 115.786 282.58 116.15 282.345C116.514 282.11 116.942 281.993 117.435 281.993C117.852 281.993 118.224 282.084 118.55 282.266C118.876 282.448 119.118 282.694 119.278 283.005V279.627H120.426V287.645H119.3V286.679C119.141 287.012 118.895 287.274 118.561 287.463C118.235 287.653 117.86 287.748 117.435 287.748ZM117.731 286.861C118.201 286.861 118.58 286.69 118.868 286.349C119.156 286.008 119.3 285.515 119.3 284.87C119.3 284.226 119.156 283.737 118.868 283.403C118.58 283.062 118.201 282.891 117.731 282.891C117.253 282.891 116.87 283.062 116.582 283.403C116.294 283.737 116.15 284.226 116.15 284.87C116.15 285.515 116.294 286.008 116.582 286.349C116.87 286.69 117.253 286.861 117.731 286.861ZM125.152 287.645V279.627H126.335V286.633H130.304V287.645H125.152ZM133.657 287.748C133.096 287.748 132.611 287.63 132.202 287.395C131.792 287.16 131.474 286.83 131.246 286.406C131.026 285.973 130.917 285.462 130.917 284.87C130.917 284.279 131.026 283.771 131.246 283.346C131.474 282.914 131.792 282.58 132.202 282.345C132.611 282.11 133.096 281.993 133.657 281.993C134.203 281.993 134.681 282.11 135.09 282.345C135.5 282.58 135.818 282.914 136.046 283.346C136.273 283.771 136.387 284.279 136.387 284.87C136.387 285.462 136.273 285.973 136.046 286.406C135.818 286.83 135.5 287.16 135.09 287.395C134.681 287.63 134.203 287.748 133.657 287.748ZM133.657 286.861C134.128 286.861 134.507 286.69 134.795 286.349C135.083 286.008 135.227 285.515 135.227 284.87C135.227 284.226 135.083 283.737 134.795 283.403C134.507 283.062 134.128 282.891 133.657 282.891C133.18 282.891 132.797 283.062 132.509 283.403C132.221 283.737 132.077 284.226 132.077 284.87C132.077 285.515 132.221 286.008 132.509 286.349C132.797 286.69 133.18 286.861 133.657 286.861ZM140.19 289.795C139.69 289.795 139.224 289.734 138.792 289.613C138.359 289.499 137.976 289.317 137.643 289.067L137.995 288.248C138.329 288.475 138.67 288.642 139.019 288.748C139.368 288.855 139.732 288.908 140.111 288.908C141.172 288.908 141.703 288.377 141.703 287.315V286.44C141.544 286.773 141.294 287.035 140.952 287.224C140.619 287.414 140.243 287.509 139.826 287.509C139.326 287.509 138.89 287.395 138.519 287.168C138.147 286.933 137.859 286.61 137.654 286.201C137.45 285.784 137.347 285.299 137.347 284.745C137.347 284.199 137.45 283.722 137.654 283.312C137.859 282.895 138.147 282.573 138.519 282.345C138.89 282.11 139.326 281.993 139.826 281.993C140.251 281.993 140.63 282.088 140.964 282.277C141.297 282.467 141.544 282.728 141.703 283.062V282.095H142.818V287.179C142.818 288.051 142.594 288.703 142.147 289.135C141.699 289.575 141.047 289.795 140.19 289.795ZM140.099 286.61C140.585 286.61 140.971 286.444 141.259 286.11C141.548 285.776 141.692 285.321 141.692 284.745C141.692 284.169 141.548 283.718 141.259 283.392C140.971 283.058 140.585 282.891 140.099 282.891C139.614 282.891 139.228 283.058 138.939 283.392C138.651 283.718 138.507 284.169 138.507 284.745C138.507 285.321 138.651 285.776 138.939 286.11C139.228 286.444 139.614 286.61 140.099 286.61ZM146.841 287.748C146.28 287.748 145.794 287.63 145.385 287.395C144.976 287.16 144.657 286.83 144.43 286.406C144.21 285.973 144.1 285.462 144.1 284.87C144.1 284.279 144.21 283.771 144.43 283.346C144.657 282.914 144.976 282.58 145.385 282.345C145.794 282.11 146.28 281.993 146.841 281.993C147.387 281.993 147.864 282.11 148.274 282.345C148.683 282.58 149.002 282.914 149.229 283.346C149.457 283.771 149.57 284.279 149.57 284.87C149.57 285.462 149.457 285.973 149.229 286.406C149.002 286.83 148.683 287.16 148.274 287.395C147.864 287.63 147.387 287.748 146.841 287.748ZM146.841 286.861C147.311 286.861 147.69 286.69 147.978 286.349C148.266 286.008 148.41 285.515 148.41 284.87C148.41 284.226 148.266 283.737 147.978 283.403C147.69 283.062 147.311 282.891 146.841 282.891C146.363 282.891 145.98 283.062 145.692 283.403C145.404 283.737 145.26 284.226 145.26 284.87C145.26 285.515 145.404 286.008 145.692 286.349C145.98 286.69 146.363 286.861 146.841 286.861Z" fill="#8C8C8C"/>
</g>
<defs>
<filter id="filter0_dd" x="0" y="0" width="404.192" height="445" filterUnits="userSpaceOnUse" color-interpolation-filters="sRGB">
<feFlood flood-opacity="0" result="BackgroundImageFix"/>
<feColorMatrix in="SourceAlpha" type="matrix" values="0 0 0 0 0 0 0 0 0 0 0 0 0 0 0 0 0 0 127 0"/>
<feOffset dy="16"/>
<feGaussianBlur stdDeviation="19"/>
<feColorMatrix type="matrix" values="0 0 0 0 0.80309 0 0 0 0 0.839352 0 0 0 0 0.841667 0 0 0 0.4 0"/>
<feBlend mode="normal" in2="BackgroundImageFix" result="effect1_dropShadow"/>
<feColorMatrix in="SourceAlpha" type="matrix" values="0 0 0 0 0 0 0 0 0 0 0 0 0 0 0 0 0 0 127 0"/>
<feOffset/>
<feGaussianBlur stdDeviation="18"/>
<feColorMatrix type="matrix" values="0 0 0 0 0.873437 0 0 0 0 0.887771 0 0 0 0 0.895833 0 0 0 0.25 0"/>
<feBlend mode="normal" in2="effect1_dropShadow" result="effect2_dropShadow"/>
<feBlend mode="normal" in="SourceGraphic" in2="effect2_dropShadow" result="shape"/>
</filter>
<linearGradient id="paint0_linear" x1="165.796" y1="67.4966" x2="166.922" y2="79.6057" gradientUnits="userSpaceOnUse">
<stop stop-color="#0094A7"/>
<stop offset="1" stop-color="#00C9B4"/>
</linearGradient>
<linearGradient id="paint1_linear" x1="171.703" y1="75.7728" x2="173.241" y2="92.3065" gradientUnits="userSpaceOnUse">
<stop stop-color="#0094A7"/>
<stop offset="1" stop-color="#00C9B4"/>
</linearGradient>
<linearGradient id="paint2_linear" x1="173.405" y1="63.1517" x2="175.188" y2="82.3618" gradientUnits="userSpaceOnUse">
<stop stop-color="#0094A7"/>
<stop offset="1" stop-color="#00C9B4"/>
</linearGradient>
<linearGradient id="paint3_linear" x1="174.552" y1="60.0889" x2="174.552" y2="90.2742" gradientUnits="userSpaceOnUse">
<stop stop-color="#0094A7"/>
<stop offset="1" stop-color="#00C9B4"/>
</linearGradient>
</defs>
</svg>
