<svg width="88" height="88" viewBox="0 0 88 88" fill="none" xmlns="http://www.w3.org/2000/svg">
<path fill-rule="evenodd" clip-rule="evenodd" d="M78.6887 51.9022C78.4853 51.9024 78.2852 51.8505 78.1077 51.7514C77.9301 51.6523 77.7808 51.5093 77.6743 51.3361L75.9379 48.5119L70.8827 53.5671C70.9497 54.0799 70.9346 54.6016 70.8365 55.1125C70.6918 55.866 70.3707 56.5744 69.8993 57.1797C69.4503 57.761 68.8737 58.2313 68.2142 58.5544C67.5546 58.8775 66.8296 59.0447 66.0951 59.0432L66.0626 59.0431L66.0319 59.0429L66.0038 59.0425C66.0984 59.7576 66.0336 60.4887 65.8094 61.1822C65.4925 62.1621 64.8734 63.0165 64.0409 63.6229C63.2085 64.2292 62.2054 64.5564 61.1755 64.5575L61.1743 64.5552C60.8955 64.5555 60.6186 64.5317 60.3465 64.4849C60.371 65.4748 60.0845 66.4543 59.5178 67.2808C59.1673 67.792 58.719 68.2286 58.1986 68.5654C57.6783 68.9022 57.0964 69.1325 56.4865 69.243C56.2021 69.2949 55.9135 69.3207 55.6244 69.3203C54.8994 69.32 54.1876 69.1517 53.5437 68.8323C53.5179 69.1937 53.4505 69.5531 53.3415 69.9031C53.0416 70.866 52.442 71.708 51.6302 72.3065C50.8186 72.9048 49.8373 73.2284 48.829 73.2302C47.9971 73.2261 47.1808 73.0039 46.4616 72.5857L40.8084 69.3264L38.5155 71.3395C37.6437 72.1034 36.5232 72.5232 35.3641 72.5203C34.3912 72.5218 33.4411 72.2264 32.6405 71.6736C31.8399 71.1208 31.2271 70.3369 30.8838 69.4266C30.78 69.1514 30.7024 68.8686 30.651 68.5819C29.9074 69.0375 29.0475 69.2823 28.1648 69.2809C28.0589 69.2809 27.9531 69.2809 27.8473 69.2714C27.2201 69.2322 26.6069 69.069 26.0432 68.7914C25.4794 68.5138 24.9762 68.1273 24.5627 67.6541C24.1427 67.182 23.82 66.6316 23.6132 66.0344C23.4711 65.624 23.3856 65.197 23.3585 64.7654C22.9712 64.8652 22.5701 64.9163 22.1641 64.9155H22.164C22.0594 64.9155 21.9536 64.9155 21.8466 64.906C21.2194 64.8667 20.6063 64.7036 20.0425 64.426C19.4787 64.1484 18.9756 63.7619 18.5621 63.2887L18.4324 63.1341C17.5966 62.1807 17.1735 60.9343 17.2562 59.669C17.2574 59.6512 17.2586 59.6335 17.26 59.6157C17.1719 59.6204 17.0834 59.6227 16.9947 59.6225C16.8901 59.6225 16.783 59.6225 16.6772 59.6118C15.7273 59.5519 14.8164 59.2118 14.0597 58.6343C13.303 58.0569 12.7345 57.2681 12.426 56.3677C12.1175 55.4673 12.0829 54.4956 12.3265 53.5755C12.4762 53.0097 12.7271 52.479 13.064 52.0078L11.096 50.5103L10.3257 51.7631C10.2186 51.9354 10.0691 52.0774 9.89154 52.1757C9.71399 52.2739 9.51425 52.3251 9.31132 52.3244C9.10765 52.3243 8.90741 52.2718 8.72981 52.1721L1.79565 48.2811C1.57069 48.1551 1.39278 47.9593 1.28876 47.7234C1.18473 47.4875 1.16021 47.2241 1.21889 46.973L8.29219 16.1207C8.33683 15.9261 8.42976 15.7458 8.56241 15.5966C8.69505 15.4474 8.86314 15.3339 9.05116 15.2667C9.23919 15.1996 9.4411 15.1808 9.63829 15.2122C9.83547 15.2436 10.0216 15.3242 10.1794 15.4464L24.5615 26.5832C24.7933 26.7626 24.9507 27.0214 25.0033 27.3098C25.056 27.5982 25.0003 27.8959 24.8469 28.1458L24.7337 28.3298C29.8382 28.1795 34.9286 27.7018 39.9734 26.8995C40.0758 26.8781 40.1806 26.8709 40.285 26.8781C41.4617 26.9403 42.6099 27.2451 43.6585 27.7701L45.2129 26.9446C45.897 26.5868 46.6451 26.3679 47.4142 26.3005C48.1832 26.2332 48.958 26.3187 49.6938 26.5522L56.0334 28.6095C57.8998 29.2234 59.9241 29.1504 61.7415 28.4038L63.2065 27.8037L63.1543 27.7188C63.0009 27.469 62.9452 27.1713 62.9978 26.8829C63.0505 26.5945 63.2079 26.3357 63.4397 26.1562L77.8205 15.0183C77.9784 14.896 78.1645 14.8155 78.3617 14.7841C78.5589 14.7527 78.7608 14.7714 78.9488 14.8386C79.1368 14.9058 79.3049 15.0192 79.4376 15.1685C79.5702 15.3177 79.6631 15.498 79.7078 15.6926L86.7799 46.5485C86.8386 46.7995 86.8141 47.0629 86.71 47.2988C86.606 47.5348 86.4281 47.7305 86.2031 47.8566L79.269 51.7535C79.0915 51.8521 78.8917 51.9033 78.6887 51.9022ZM21.6134 28.8616C21.576 28.9129 21.5428 28.9668 21.5142 29.023L8.89867 49.5428L3.7364 46.6424L10.1937 18.4658L22.2604 27.8092L21.6134 28.8616ZM23.2499 30.7432C28.9521 30.644 34.6409 30.15 40.2754 29.2648C40.4367 29.2737 40.5973 29.2892 40.7567 29.3112L34.496 32.6361C34.0716 32.8564 33.7124 33.184 33.4542 33.5864C33.196 33.9888 33.0477 34.4519 33.0243 34.9294C33.0008 35.407 33.1029 35.8823 33.3205 36.3081C33.538 36.7339 33.8634 37.0952 34.2641 37.356C36.6888 38.9055 41.7679 40.8629 48.9375 37.0575L67.6601 52.3112C68.0245 52.6075 68.293 53.0045 68.4326 53.452C68.442 53.4922 68.4536 53.5319 68.4672 53.5711C68.5637 53.9291 68.5774 54.3046 68.5069 54.6692C68.4326 55.0533 68.2669 55.4139 68.024 55.7206C67.6279 56.2165 67.0566 56.5414 66.428 56.6283C65.7993 56.7153 65.1613 56.5577 64.6455 56.188L64.4183 56.0298C64.3831 55.9969 64.3457 55.9663 64.3066 55.9382L64.1944 55.8574C64.1404 55.8147 64.0855 55.7731 64.0295 55.7326L52.2289 47.229L51.2076 46.4925L50.2563 45.8147C50.1294 45.7202 49.9849 45.6519 49.8313 45.614C49.6777 45.576 49.518 45.5691 49.3617 45.5936C49.2054 45.6182 49.0556 45.6736 48.921 45.7568C48.7864 45.84 48.6697 45.9492 48.5778 46.078C48.486 46.2068 48.4207 46.3527 48.3859 46.507C48.3512 46.6614 48.3475 46.8211 48.3753 46.9769C48.403 47.1327 48.4615 47.2814 48.5475 47.4142C48.6334 47.5471 48.745 47.6615 48.8756 47.7507L62.6859 57.6962C63.1677 58.0909 63.4853 58.6521 63.5748 59.27C63.6672 59.9075 63.5097 60.5561 63.1351 61.0802C62.7605 61.6043 62.1979 61.9634 61.5648 62.0824C60.9317 62.2014 60.2771 62.0712 59.7377 61.7189L46.8826 52.5991C46.8106 52.5498 46.734 52.509 46.6543 52.4771C46.5967 52.4531 46.5373 52.4336 46.4765 52.4189C46.323 52.3818 46.1637 52.3757 46.0078 52.4008C45.8519 52.4259 45.7026 52.4818 45.5685 52.5652C45.4345 52.6487 45.3184 52.758 45.2271 52.8868C45.1357 53.0155 45.0709 53.1612 45.0365 53.3153C45.002 53.4694 44.9986 53.6288 45.0264 53.7842C45.0542 53.9397 45.1127 54.088 45.1984 54.2206C45.2841 54.3532 45.3954 54.4673 45.5258 54.5565L56.9895 62.6881C57.49 63.046 57.8301 63.5859 57.9368 64.1918C58.0435 64.7977 57.9084 65.4213 57.5604 65.9287C57.3855 66.1817 57.1625 66.3979 56.9041 66.5647C56.6457 66.7315 56.3569 66.8458 56.0544 66.901C55.7518 66.9563 55.4413 66.9513 55.1406 66.8865C54.8399 66.8217 54.5549 66.6983 54.302 66.5233L42.7823 58.5438C42.5229 58.3642 42.2028 58.295 41.8923 58.3514C41.5819 58.4078 41.3066 58.5853 41.127 58.8447C40.9473 59.1041 40.8781 59.4242 40.9346 59.7347C40.991 60.0451 41.1684 60.3204 41.4278 60.5L41.8997 60.8269C41.9294 60.8522 41.9605 60.876 41.9927 60.8983L50.1624 66.5577C50.6537 66.8907 50.9995 67.3986 51.1292 67.9778C51.259 68.557 51.1628 69.1638 50.8605 69.6746C50.5422 70.2074 50.0282 70.5946 49.4283 70.7537C48.8284 70.9128 48.1901 70.8311 47.6496 70.526L42.5371 67.5779C42.6439 67.415 42.7409 67.2453 42.8274 67.0698C43.105 66.5064 43.2689 65.8938 43.3098 65.267C43.3506 64.6402 43.2676 64.0115 43.0655 63.4168C42.8634 62.8221 42.5461 62.2731 42.1318 61.801C41.7174 61.329 41.2141 60.9432 40.6506 60.6657C40.0872 60.3882 39.4745 60.2244 38.8478 60.1836C38.6447 60.1704 38.4414 60.1702 38.2391 60.1829L38.2413 60.1509C38.2821 59.524 38.1989 58.8953 37.9966 58.3006C37.7943 57.706 37.4768 57.157 37.0623 56.685L36.1692 57.4699L37.029 56.6458C36.6146 56.1738 36.1113 55.788 35.5478 55.5105C34.9843 55.233 34.3717 55.0692 33.7449 55.0284C33.5254 55.0142 33.3055 55.0151 33.087 55.031C33.1661 53.7701 32.7428 52.5289 31.9095 51.5788L31.7751 51.4254C31.3608 50.9532 30.8576 50.5673 30.2941 50.2897C29.7306 50.0121 29.1179 49.8483 28.4911 49.8075C27.8643 49.7668 27.2356 49.8499 26.6409 50.0522C26.254 50.1838 25.8865 50.3642 25.5469 50.5883C25.505 50.3619 25.4467 50.1383 25.3722 49.9194C25.1699 49.3247 24.8524 48.7757 24.4378 48.3037L24.3962 48.2562C23.9819 47.784 23.4787 47.3981 22.9152 47.1205C22.3517 46.8429 21.739 46.6791 21.1122 46.6383C20.4854 46.5976 19.8567 46.6807 19.262 46.883C18.6673 47.0853 18.1183 47.4028 17.6464 47.8174L14.7854 50.3286L12.348 48.474L23.2499 30.7432ZM77.089 45.6793C77.2826 45.8729 77.4026 46.1265 77.4308 46.3966L79.1013 49.1135L84.2636 46.2119L77.8063 18.0376L65.7396 27.3811L65.9464 27.7175C65.9608 27.7392 65.9744 27.7614 65.9873 27.784L76.8923 45.5206C76.9628 45.5661 77.0288 45.6191 77.089 45.6793ZM74.6576 46.4294L64.4691 29.8574L62.6465 30.6038C60.3062 31.5671 57.6987 31.6615 55.2949 30.8701L48.9613 28.814C48.5275 28.6778 48.071 28.6286 47.6181 28.6694C47.1652 28.7102 46.7249 28.8402 46.3225 29.0519L44.3015 30.1251C44.2462 30.1607 44.1881 30.1914 44.1281 30.2172L35.6031 34.7445C35.5434 34.7726 35.4927 34.8168 35.4566 34.872C35.4205 34.9272 35.4004 34.9913 35.3986 35.0573C35.3936 35.1169 35.4052 35.1768 35.4321 35.2303C35.4589 35.2838 35.5 35.3288 35.5508 35.3605C38.0481 36.9564 42.3351 38.1266 48.4725 34.6006C48.6812 34.4807 48.9215 34.427 49.1614 34.4465C49.4013 34.466 49.6297 34.5579 49.8163 34.71L69.1525 50.4668C69.4244 50.6861 69.6696 50.9335 69.8849 51.2039L74.6576 46.4294ZM15.5415 52.8403C15.5216 52.8545 15.5012 52.8681 15.4805 52.8811L15.3655 52.982C15.1281 53.1903 14.934 53.4433 14.7944 53.7267C14.6548 54.01 14.5724 54.318 14.5518 54.6332C14.5313 54.9483 14.573 55.2645 14.6747 55.5635C14.7764 55.8625 14.9359 56.1386 15.1443 56.376C15.3511 56.6208 15.6043 56.8222 15.8895 56.9684C16.1746 57.1146 16.4859 57.2028 16.8054 57.2278C17.1248 57.2528 17.4461 57.2141 17.7505 57.114C18.0549 57.0139 18.3364 56.8544 18.5787 56.6447L22.4305 53.2639C22.6679 53.0556 22.862 52.8025 23.0016 52.5192C23.1412 52.2359 23.2236 51.9279 23.2442 51.6127C23.2647 51.2975 23.223 50.9814 23.1213 50.6824C23.0196 50.3833 22.8601 50.1073 22.6517 49.8699L22.6101 49.8223C22.4023 49.5845 22.1495 49.3902 21.8662 49.2508C21.5828 49.1114 21.2746 49.0296 20.9595 49.0101L20.9204 49.0092L20.8984 49.0086C20.8649 49.0076 20.8325 49.0067 20.8001 49.0066C20.2176 49.0051 19.6547 49.2165 19.2173 49.6012L15.769 52.6279C15.7032 52.7079 15.6268 52.7794 15.5415 52.8403ZM20.3211 58.2819C19.9111 58.6932 19.6623 59.2406 19.6241 59.8237C19.5824 60.4606 19.7954 61.088 20.2162 61.5679L20.3506 61.7213C20.7717 62.1999 21.3656 62.4917 22.0017 62.5327C22.6378 62.5737 23.2642 62.3606 23.7433 61.9402L29.895 56.5401C30.1324 56.3318 30.3265 56.0787 30.4661 55.7954C30.6057 55.5121 30.6882 55.2041 30.7087 54.8889C30.7292 54.5737 30.6875 54.2576 30.5858 53.9586C30.4842 53.6595 30.3246 53.3835 30.1162 53.1461L29.9842 52.9951C29.7765 52.7576 29.5238 52.5636 29.2407 52.4244C28.9576 52.2852 28.6497 52.2035 28.3348 52.1841C28.2789 52.1793 28.2266 52.1769 28.1731 52.1769C27.5906 52.1754 27.0277 52.3869 26.5903 52.7715L24.1696 54.8965C24.1141 54.9502 24.0572 55.0025 23.999 55.0536L20.3211 58.2819ZM31.4683 58.3262L26.4575 62.7249C26.1444 63.0344 25.9204 63.4235 25.8102 63.8512C25.6908 64.3147 25.7103 64.803 25.8663 65.2555C26.0223 65.708 26.308 66.1046 26.6877 66.396C27.0674 66.6873 27.5244 66.8606 28.0019 66.8942C28.3172 66.9159 28.6337 66.8744 28.9328 66.7723C29.2319 66.6702 29.5077 66.5095 29.744 66.2996L35.0502 61.6416C35.2876 61.4333 35.4817 61.1803 35.6213 60.8969C35.7609 60.6136 35.8433 60.3056 35.8639 59.9904C35.8844 59.6753 35.8426 59.3591 35.741 59.0601C35.6393 58.7611 35.4797 58.485 35.2714 58.2476L35.2369 58.2084C35.0293 57.9719 34.7771 57.7788 34.4946 57.6402C34.2122 57.5017 33.9051 57.4203 33.591 57.4009C33.5351 57.3985 33.4793 57.3974 33.4257 57.3974L33.4269 57.3962C32.8444 57.3946 32.2815 57.6061 31.8441 57.9908L31.6167 58.1904C31.5683 58.2366 31.5188 58.2819 31.4683 58.3262ZM33.6997 65.9992C33.4955 66.1939 33.3269 66.4231 33.202 66.6767C33.0624 66.9599 32.9799 67.2678 32.9593 67.583C32.9387 67.8981 32.9804 68.2141 33.0819 68.5131C33.1835 68.8121 33.3429 69.0882 33.5512 69.3256C33.9718 69.805 34.5656 70.0976 35.2019 70.1392C35.517 70.1598 35.8331 70.1182 36.1321 70.0166C36.4311 69.915 36.7072 69.7556 36.9445 69.5473L40.1209 66.7587C40.4873 66.4362 40.7468 66.0097 40.8649 65.5361C40.9829 65.0625 40.954 64.5641 40.7819 64.1073C40.6098 63.6506 40.3027 63.257 39.9014 62.9791C39.5002 62.7011 39.0238 62.5519 38.5357 62.5513C37.9525 62.5498 37.3888 62.7613 36.9505 63.1459L36.7151 63.3523C36.685 63.3802 36.6544 63.4077 36.6235 63.4349L33.6997 65.9992Z" fill="url(#paint0_linear)"/>
<defs>
<linearGradient id="paint0_linear" x1="43.9994" y1="14.7693" x2="43.9994" y2="73.2302" gradientUnits="userSpaceOnUse">
<stop stop-color="#8591FF"/>
<stop offset="1" stop-color="#4A55BE"/>
</linearGradient>
</defs>
</svg>
