<svg width="40" height="35" viewBox="0 0 40 35" fill="none" xmlns="http://www.w3.org/2000/svg">
<path fill-rule="evenodd" clip-rule="evenodd" d="M33.4179 2.04761H6.58202C4.10402 2.04761 2.09521 4.05642 2.09521 6.53441V18.7037C2.09521 21.1817 4.10402 23.1905 6.58202 23.1905H33.4179C35.8959 23.1905 37.9047 21.1817 37.9047 18.7037V6.53441C37.9047 4.05642 35.8959 2.04761 33.4179 2.04761ZM6.58202 0.0476074C2.99946 0.0476074 0.0952148 2.95184 0.0952148 6.53441V18.7037C0.0952148 22.2862 2.99945 25.1905 6.58202 25.1905H19.1622V32.3033H12.6665C12.088 32.3033 11.6189 32.7723 11.6189 33.3509C11.6189 33.9295 12.088 34.3985 12.6665 34.3985H28.1051C28.6837 34.3985 29.1528 33.9295 29.1528 33.3509C29.1528 32.7723 28.6837 32.3033 28.1051 32.3033H21.1622V25.1905H33.4179C37.0005 25.1905 39.9047 22.2862 39.9047 18.7037V6.53441C39.9047 2.95185 37.0005 0.0476074 33.4179 0.0476074H6.58202Z" fill="url(#paint0_linear)"/>
<defs>
<linearGradient id="paint0_linear" x1="20" y1="0.0476074" x2="20" y2="34.3985" gradientUnits="userSpaceOnUse">
<stop stop-color="#81E8FF"/>
<stop offset="1" stop-color="#2B9BB4"/>
</linearGradient>
</defs>
</svg>
