<svg width="40" height="40" viewBox="0 0 40 40" fill="none" xmlns="http://www.w3.org/2000/svg">
<path d="M34.7335 7.68345C33.8823 6.83179 32.8716 6.15619 31.7591 5.69525C30.6467 5.23432 29.4543 4.99707 28.2502 4.99707C27.0461 4.99707 25.8537 5.23432 24.7413 5.69525C23.6288 6.15619 22.6181 6.83179 21.7669 7.68345L20.0002 9.45011L18.2335 7.68345C16.514 5.96396 14.1819 4.99796 11.7502 4.99796C9.31847 4.99796 6.98635 5.96396 5.26686 7.68345C3.54737 9.40293 2.58138 11.7351 2.58138 14.1668C2.58138 16.5985 3.54737 18.9306 5.26686 20.6501L7.03353 22.4168L20.0002 35.3834L32.9669 22.4168L34.7335 20.6501C35.5852 19.7989 36.2608 18.7881 36.7217 17.6757C37.1827 16.5633 37.4199 15.3709 37.4199 14.1668C37.4199 12.9626 37.1827 11.7703 36.7217 10.6579C36.2608 9.54542 35.5852 8.53471 34.7335 7.68345V7.68345Z" stroke="url(#paint0_linear)" stroke-width="2" stroke-linecap="round" stroke-linejoin="round"/>
<defs>
<linearGradient id="paint0_linear" x1="20.0006" y1="4.99707" x2="20.0006" y2="35.3834" gradientUnits="userSpaceOnUse">
<stop stop-color="#81E8FF"/>
<stop offset="1" stop-color="#2B9BB4"/>
</linearGradient>
</defs>
</svg>
