<svg width="72" height="72" viewBox="0 0 72 72" fill="none" xmlns="http://www.w3.org/2000/svg">
<path d="M57.6 10.08L55.584 2.16003C55.44 1.44003 54.576 0.864032 53.856 1.15203C53.136 1.29603 52.56 2.16003 52.848 2.88003L54 7.34403C43.056 0.576032 28.944 0.432032 17.856 7.48803C17.136 7.92003 16.992 8.78403 17.424 9.50403C17.856 10.224 18.72 10.368 19.44 9.93603C29.52 3.45603 42.48 3.45603 52.56 9.93603H52.704L48.096 11.088C47.232 11.52 46.8 12.24 46.944 12.96C47.088 13.68 47.952 14.256 48.672 13.968L56.592 11.952C58.091 11.6554 57.6 10.08 57.6 10.08Z" fill="url(#paint0_linear)"/>
<path d="M11.52 16.272L3.45597 15.408C2.59197 15.264 2.01597 15.84 1.87197 16.704C1.72797 17.424 2.30397 18.144 3.16797 18.288L7.05597 18.72C3.88797 24.048 2.15997 30.096 2.15997 36.288C2.15997 42.768 4.03197 48.96 7.34397 54.432C7.77597 55.152 8.63997 55.296 9.35997 54.864C10.08 54.432 10.224 53.568 9.79197 52.848C6.62397 47.952 5.03997 42.192 5.03997 36.288C5.03997 30.384 6.62397 24.624 9.79197 19.728V19.584L9.21597 25.344C9.07197 26.064 9.64797 26.784 10.368 26.928H10.512C11.232 26.928 11.808 26.352 11.952 25.632L12.816 17.856C12.9355 16.285 11.52 16.272 11.52 16.272Z" fill="url(#paint1_linear)"/>
<path d="M61.4879 45.648C60.7679 45.648 60.0479 46.08 59.9039 46.944L59.0399 55.152C58.8959 55.872 59.4719 56.592 60.3359 56.736L68.3999 57.6C69.2639 57.6 69.8399 57.024 69.9839 56.304C70.1279 55.584 69.5519 54.864 68.6879 54.72L64.5119 54.288C67.8239 48.96 69.6959 42.768 69.6959 36.432C69.6959 29.952 67.8239 23.76 64.5119 18.288C64.0799 17.568 63.2159 17.424 62.4959 17.856C61.7759 18.288 61.6319 19.152 62.0639 19.872C65.2319 24.768 66.8159 30.528 66.8159 36.432C66.8159 42.192 65.2319 47.808 62.2079 52.704L62.7839 47.376C62.9279 46.368 62.3519 45.648 61.4879 45.648Z" fill="url(#paint2_linear)"/>
<path d="M15.408 61.2L15.984 69.408C15.984 70.128 16.704 70.704 17.424 70.704H17.568C18.432 70.704 19.008 69.984 18.864 69.12L18.576 65.232C29.52 71.856 43.344 71.712 54.144 64.8C54.864 64.368 55.008 63.504 54.576 62.784C54.144 62.064 53.28 61.92 52.56 62.352C42.48 68.832 29.52 68.832 19.44 62.352H19.296L25.056 61.92C25.92 61.92 26.496 61.2 26.352 60.336C26.208 59.472 25.632 58.896 24.768 59.04L16.56 59.616C16.56 59.616 15.3273 59.7946 15.408 61.2Z" fill="url(#paint3_linear)"/>
<mask id="path-5-inside-1" fill="white">
<rect x="26.25" y="27" width="18" height="18" rx="2"/>
</mask>
<rect x="26.25" y="27" width="18" height="18" rx="2" stroke="url(#paint4_linear)" stroke-width="7" stroke-linejoin="round" mask="url(#path-5-inside-1)"/>
<defs>
<linearGradient id="paint0_linear" x1="37.4289" y1="1.07629" x2="37.4289" y2="14.0438" gradientUnits="userSpaceOnUse">
<stop stop-color="#81E8FF"/>
<stop offset="1" stop-color="#2B9BB4"/>
</linearGradient>
<linearGradient id="paint1_linear" x1="7.33652" y1="15.386" x2="7.33652" y2="55.107" gradientUnits="userSpaceOnUse">
<stop stop-color="#81E8FF"/>
<stop offset="1" stop-color="#2B9BB4"/>
</linearGradient>
<linearGradient id="paint2_linear" x1="64.5119" y1="17.613" x2="64.5119" y2="57.6" gradientUnits="userSpaceOnUse">
<stop stop-color="#81E8FF"/>
<stop offset="1" stop-color="#2B9BB4"/>
</linearGradient>
<linearGradient id="paint3_linear" x1="35.1116" y1="59.0179" x2="35.1116" y2="70.704" gradientUnits="userSpaceOnUse">
<stop stop-color="#81E8FF"/>
<stop offset="1" stop-color="#2B9BB4"/>
</linearGradient>
<linearGradient id="paint4_linear" x1="35.25" y1="27" x2="35.25" y2="45" gradientUnits="userSpaceOnUse">
<stop stop-color="#81E8FF"/>
<stop offset="1" stop-color="#2B9BB4"/>
</linearGradient>
</defs>
</svg>
