<svg width="40" height="39" viewBox="0 0 40 39" fill="none" xmlns="http://www.w3.org/2000/svg">
<path d="M26.7613 38.8522L21.4999 25.3181L22.2726 24.9659C24.6037 23.8972 25.8758 21.3494 25.3291 18.8442C24.7825 16.339 22.5642 14.5529 20.0001 14.5529C17.4356 14.5529 15.2177 16.339 14.6711 18.8442C14.1241 21.3494 15.3962 23.8972 17.7273 24.9659L18.5 25.3181L13.2385 38.8522L12.3863 38.5C4.87963 35.4262 -0.0179283 28.1116 4.93264e-05 19.9997C4.93264e-05 8.97714 8.97719 0 20.0001 0C31.0227 0 39.9998 8.97714 39.9998 19.9997C40.0178 28.1116 35.1206 35.4262 27.6136 38.5L26.7613 38.8522ZM23.7954 26.2043L27.7728 36.4429C34.1401 33.4473 38.1984 27.037 38.1818 19.9997C38.1818 9.97723 30.0226 1.81807 20.0001 1.81807C9.97728 1.81807 1.81812 9.97723 1.81812 19.9997C1.8018 27.037 5.85974 33.4473 12.2275 36.4429L16.2045 26.2043C13.426 24.5044 12.1166 21.1643 12.9995 18.0292C13.8827 14.8938 16.7428 12.7278 20.0001 12.7278C23.2574 12.7278 26.1175 14.8938 27.0004 18.0292C27.8833 21.1643 26.5739 24.5044 23.7954 26.2043Z" fill="url(#paint0_linear)"/>
<defs>
<linearGradient id="paint0_linear" x1="19.9999" y1="0" x2="19.9999" y2="38.8522" gradientUnits="userSpaceOnUse">
<stop stop-color="#81E8FF"/>
<stop offset="1" stop-color="#2B9BB4"/>
</linearGradient>
</defs>
</svg>
