<svg width="72" height="72" viewBox="0 0 72 72" fill="none" xmlns="http://www.w3.org/2000/svg">
<g clip-path="url(#clip0)">
<path fill-rule="evenodd" clip-rule="evenodd" d="M70.2297 0.0489224C70.715 -0.0811555 71.2329 0.0577817 71.588 0.413C71.9433 0.768218 72.082 1.286 71.9522 1.77101C70.6343 6.68894 64.8144 17.7906 58.7027 27.0452C55.181 32.3777 51.7252 36.858 48.7085 40.0015C44.8784 43.9926 41.7253 45.9327 39.0691 45.9327C38.9092 45.9327 38.749 45.9254 38.5933 45.9113L37.5522 45.8159L35.042 45.5862C34.517 47.1031 33.745 48.6823 32.7673 50.2584C32.7629 50.2666 32.7594 50.2747 32.7549 50.2829C32.7497 50.2917 32.7438 50.3 32.738 50.3081C32.7333 50.3148 32.7286 50.3214 32.7242 50.3283C31.462 52.3504 29.8622 54.3651 28.0123 56.2323C24.5612 59.716 20.7239 62.2536 17.0941 63.4718V66.7681V67.9743C17.0946 69.0466 16.6756 70.057 15.9139 70.819C15.1523 71.5811 14.1421 72.0007 13.0692 72.0007H13.0669H4.02637C2.952 72.0007 1.94175 71.5811 1.18012 70.8192C0.4185 70.0571 -0.000702241 69.0466 8.83071e-07 67.9736V58.9331C-0.000702241 57.8612 0.4185 56.8506 1.18012 56.0887C1.94175 55.3267 2.95186 54.9071 4.02468 54.9071H5.23265H8.52931C9.74741 51.2771 12.2851 47.4397 15.7687 43.9885C16.6758 43.0897 17.6182 42.2503 18.5789 41.4795L18.5896 41.4708C21.1673 39.405 23.8785 37.8365 26.4145 36.9591L26.0894 33.4075C25.8453 30.7417 27.7001 27.5388 31.7593 23.6164C34.9047 20.5766 39.4644 17.0583 44.9451 13.4413C55.0438 6.77683 66.172 1.13595 70.2297 0.0489224ZM13.0669 69.5C13.3882 69.5 13.7694 69.2306 14 69C14.2149 68.7851 14.4845 68.2716 14.5 67.9743V65V63L8.83166 57.5H7H4.02468C3.72557 57.5156 3.21502 57.7847 3 58C2.76952 58.2305 2.49986 58.612 2.5 58.9331V63.4718V68.0397C2.49986 68.3619 2.76952 68.7695 3 69C3.23034 69.2305 3.70504 69.5 4.02637 69.5H13.0669ZM10.9859 56.0887L16.5 61.5C18.3825 60.8803 20.0897 59.8476 21.9809 58.5L24.5 56.5C26.5116 54.7518 28.5178 52.6115 30 50.5L31.5 48C32.0889 46.9318 32.4748 45.3479 32.8187 44.3025L27.5 39C25.6827 39.5982 24.8302 39.7188 23 41L19.5 43.5C17.4778 45.2329 15.5037 47.3919 14 49.5L12.5 52C11.8623 53.1317 11.3507 54.9807 10.9859 56.0887ZM36.5956 39.1418C36.5956 38.7688 36.744 38.4111 37.0076 38.1473C38.2818 36.8735 38.8896 35.0811 38.6853 33.3158C38.4583 33.2892 38.2298 33.2759 38.0009 33.2757C36.4342 33.2757 34.9613 33.8856 33.8536 34.993C33.3044 35.5422 32.4143 35.542 31.865 34.9929C31.2879 34.4159 30.5211 34.0981 29.7059 34.0981C29.462 34.0981 29.2199 34.1272 28.9849 34.1839L29.273 37.3311L34.6695 42.728L37.8178 43.016C38.0623 42.0018 37.7736 40.902 37.0076 40.1361C36.744 39.8723 36.5956 39.5145 36.5956 39.1418ZM47.5 38.1473C50.4011 35.1244 53.5706 30.8317 57 25.6385C62.4187 17.4334 67.5 8 69 3C64.2033 4.27585 54.4866 9.72939 46.5 15C41.1616 18.5232 35.8413 22.7178 32.8187 25.6385C30.1806 28.1877 29.8361 30.0263 29.2845 31.3016C29.4246 31.2917 29.5648 31.2855 29.7056 31.2855C30.8237 31.2855 32.5757 31.9189 33.5 32.5C34.9889 31.3874 36.1082 31 38.0009 31C38.4806 31 39.0282 30.9214 39.5 31L44 26.5C44.5493 25.9509 45.4044 25.4979 45.9536 26.0471C46.5026 26.5963 46.0491 27.4509 45.5 28L41 32.5C41.3855 34.8287 40.9006 37.1148 39.5 39C40.1667 40.0658 40.5896 41.4936 40.5 42.728C41.8144 42.1739 44.7757 40.9862 47.5 38.1473Z" fill="url(#paint0_linear)"/>
</g>
<defs>
<linearGradient id="paint0_linear" x1="2.95523" y1="3.60096" x2="87.1151" y2="44.4726" gradientUnits="userSpaceOnUse">
<stop offset="0.00520833" stop-color="#12A9AF"/>
<stop offset="0.307292" stop-color="#63E3DD"/>
<stop offset="0.583333" stop-color="#88FFBF"/>
<stop offset="0.932292" stop-color="#CEA7FF"/>
</linearGradient>
<clipPath id="clip0">
<rect width="72" height="72" fill="white"/>
</clipPath>
</defs>
</svg>
