<svg width="102" height="31" viewBox="0 0 102 31" fill="none" xmlns="http://www.w3.org/2000/svg">
<path d="M44.3109 19.4166L41.539 15.9232V23.2518H38.7671V10.3414H40.5897L44.8046 15.9612C45.4501 15.0372 46.0893 14.1069 46.7221 13.1703C47.355 12.221 47.9942 11.2781 48.6397 10.3414H50.4054V23.2518H47.5955V16.208C47.2411 16.7143 46.874 17.2269 46.4943 17.7459C46.1272 18.2522 45.7602 18.9103 45.3931 19.4166C45.0434 19.4416 44.6844 19.4166 44.3109 19.4166Z" fill="white"/>
<path d="M65.4323 23.2518H56.2622V10.3414H64.2552C64.3058 10.7085 64.3628 11.0755 64.4261 11.4426C64.4894 11.8097 64.5526 12.1767 64.6159 12.5438H59.0341V15.6574H62.6604L63.0401 17.8598H59.0341V21.0874H65.0526L65.4323 23.2518Z" fill="white"/>
<path d="M68.8119 10.3414H79.444L79.8237 12.5438H75.4949V23.2518H72.704V12.5438H68.8119V10.3414Z" fill="white"/>
<path d="M87.0715 10.3414V23.2518H84.2996V10.3414H87.0715Z" fill="white"/>
<path d="M92.2297 13.626C92.2424 12.6007 92.6474 11.7527 93.4448 11.0819C94.2422 10.3984 95.356 10.0566 96.7863 10.0566C97.4318 10.0566 98.0837 10.1579 98.7418 10.3604C99.4 10.5503 99.9822 10.7844 100.489 11.0629L99.5962 13.1513C99.1026 12.9488 98.6406 12.7779 98.2102 12.6387C97.7925 12.4995 97.3306 12.4299 96.8243 12.4299C96.318 12.4299 95.9003 12.5311 95.5712 12.7336C95.2548 12.9362 95.0966 13.2273 95.0966 13.607C95.0966 13.9994 95.3054 14.3348 95.7231 14.6132C96.1534 14.8917 96.704 15.2018 97.3749 15.5435C98.2988 16.0118 99.1785 16.5814 100.014 17.2523C100.862 17.9104 101.286 18.7838 101.286 19.8723C101.286 20.9102 100.856 21.7772 99.9949 22.4733C99.1342 23.1568 97.9191 23.4986 96.3496 23.4986C95.7674 23.4986 95.0523 23.391 94.2042 23.1758C93.3562 22.948 92.755 22.6948 92.4006 22.4164L93.141 20.214C93.5081 20.4165 93.9954 20.6191 94.6029 20.8216C95.2105 21.0114 95.7737 21.1064 96.2927 21.1064C96.9888 21.1064 97.5141 20.9925 97.8685 20.7646C98.2229 20.5241 98.4001 20.214 98.4001 19.8343C98.4001 19.4673 98.1596 19.1255 97.6786 18.8091C97.1977 18.4927 96.6661 18.1952 96.0838 17.9168C95.1852 17.4611 94.3181 16.9105 93.4828 16.265C92.6474 15.6068 92.2297 14.7271 92.2297 13.626Z" fill="white"/>
<mask id="mask0" mask-type="alpha" maskUnits="userSpaceOnUse" x="0" y="0" width="29" height="31">
<path d="M0.109375 6.59986C0.109375 4.36464 1.65809 2.42774 3.83853 1.93596L10.3446 0.468599C13.1148 -0.156199 15.9894 -0.1562 18.7597 0.468599L25.2657 1.93596C27.4462 2.42774 28.9949 4.36464 28.9949 6.59986V15.9319C28.9949 20.5034 26.5473 24.725 22.58 26.9964L16.9276 30.2325C15.456 31.075 13.6482 31.075 12.1766 30.2325L6.52422 26.9964C2.55694 24.725 0.109375 20.5034 0.109375 15.9319V6.59986Z" fill="white"/>
</mask>
<g mask="url(#mask0)">
<path fill-rule="evenodd" clip-rule="evenodd" d="M4.39992 8.20264C4.22573 8.15413 4.01916 8.07986 3.83807 8.00948C3.63758 7.93156 3.19927 7.8335 3.3159 8.01425C3.35325 8.07214 3.44051 8.14491 3.53319 8.22219L3.53319 8.2222C3.6228 8.29692 3.71747 8.37587 3.777 8.44968C3.19575 8.76526 2.77601 9.26655 2.50446 9.86557C2.45641 9.97155 2.41299 10.0805 2.37409 10.1921C2.0103 11.8083 2.19296 12.5965 2.66096 12.6745C3.06303 12.7415 3.54024 11.827 3.82009 11.1395C4.02057 10.4751 4.44686 9.87872 4.98421 9.87872C5.4072 9.87872 5.91979 10.1903 6.38532 10.5759C6.63974 10.5449 7.23278 10.3144 6.64521 9.5799C6.09675 8.89432 5.46111 8.36307 5.03387 8.09929C5.07251 8.09646 5.11159 8.09425 5.15112 8.09267C5.25767 8.08841 5.3613 8.08615 5.46208 8.08585C5.35846 8.08615 5.25217 8.08846 5.14316 8.09283C4.8767 8.10348 4.62912 8.14117 4.39992 8.20264ZM2.85732 13.9705C2.7439 14.1009 2.63666 14.2241 2.54625 14.3459C2.7776 15.2194 3.06844 16.1868 3.39485 17.0961C3.86226 18.3983 4.41415 19.6155 4.98559 20.2521C5.46976 20.0251 5.97288 19.8949 6.45646 19.8163C6.66228 19.7829 6.86456 19.7588 7.06034 19.7406L8.1599 19.31C8.0442 19.301 7.92657 19.2935 7.80704 19.2874C4.07782 19.0998 3.69534 16.0093 3.69534 15.4462C3.69534 14.8831 4.17344 13.7452 6.37272 13.4754C7.31265 13.3601 8.27597 14.1746 9.09074 15.2237C8.5058 14.0852 8.09636 12.9768 8.47639 12.5681C8.4855 12.7177 8.62926 12.8347 8.91764 13.0694L8.91764 13.0694L8.91764 13.0694C9.01838 13.1514 9.13677 13.2478 9.27323 13.3649C9.95047 13.9462 10.3464 15.8086 10.6972 17.4588L10.6972 17.4588C10.7127 17.5316 10.7281 17.6039 10.7434 17.6757C10.8667 17.5571 10.9911 17.4322 11.1148 17.3012C11.0417 16.8036 10.9496 16.2862 10.8361 15.7855C10.6915 15.1469 10.5108 14.5295 10.2878 14.0128C10.1561 13.7076 10.0059 13.4286 9.83341 13.1998C9.76996 13.1157 9.70334 13.0381 9.63332 12.9685C9.57525 12.9108 9.51497 12.8586 9.45235 12.8127C9.23362 12.6523 9.07819 12.5271 8.96871 12.4263C8.92645 12.3873 8.89077 12.3518 8.86077 12.319C8.84755 12.3045 8.8357 12.2909 8.82509 12.2781C8.81561 12.2666 8.80695 12.2555 8.79903 12.2448C8.77344 12.2102 8.75803 12.1825 8.74868 12.1602C8.74333 12.1474 8.73989 12.1362 8.7377 12.1264L8.73686 12.1224C8.73187 12.0971 8.73261 12.0688 8.74341 12.0256C8.75328 11.9861 8.77122 11.9394 8.79272 11.8833C8.87801 11.661 9.01928 11.2928 8.93437 10.6561C8.83038 9.87608 8.53962 9.1963 7.9232 8.73056C7.37784 8.31851 6.60357 8.09398 5.54324 8.08604C5.64662 8.08683 5.74693 8.08974 5.84425 8.0947C6.35783 8.87346 7.24284 10.1775 7.54166 10.1844C7.74081 10.189 7.8567 9.94205 7.99684 9.64347L7.99684 9.64347C8.06696 9.49406 8.14316 9.33172 8.23889 9.18148C8.29361 9.28714 8.4381 9.48029 8.4381 9.48029C8.4381 9.48029 7.87871 10.1775 8.47634 10.2771C9.07398 10.3768 7.87875 12.2693 7.87875 12.2693C7.80148 12.1834 7.63783 11.9954 7.44346 11.7722L7.44341 11.7721L7.44332 11.772L7.43085 11.7577C6.47642 13.0806 4.55744 13.378 3.9442 12.7508C3.87878 12.6839 3.82707 12.5994 3.78813 12.5018C3.752 12.6264 3.70869 12.7225 3.65701 12.7741C3.46224 13.2753 3.14051 13.6451 2.85733 13.9705L2.85732 13.9705ZM5.74872 11.3728C5.74872 11.5378 5.8825 11.6716 6.04754 11.6716C6.21257 11.6716 6.34635 11.5378 6.34635 11.3728C6.34635 11.2078 6.21257 11.074 6.04754 11.074C5.8825 11.074 5.74872 11.2078 5.74872 11.3728ZM5.3503 11.3728C5.3503 11.7579 5.66246 12.07 6.04754 12.07C6.43261 12.07 6.74477 11.7579 6.74477 11.3728C6.74477 10.9877 6.43261 10.6756 6.04754 10.6756C5.66246 10.6756 5.3503 10.9877 5.3503 11.3728Z" fill="url(#paint0_linear)"/>
<path fill-rule="evenodd" clip-rule="evenodd" d="M9.39414 18.959L9.19296 18.5843L6.99039 19.447C6.80238 19.4652 6.60749 19.4889 6.40853 19.5212C5.33874 19.695 4.13798 20.1191 3.23911 21.2699C2.88166 21.7276 2.5774 22.2935 2.3478 22.9921C2.20935 23.4133 2.26498 23.8988 2.43545 24.3969C2.60724 24.8987 2.90614 25.4446 3.2984 26.0079C4.08345 27.1353 5.26839 28.3695 6.65809 29.5132C7.1072 29.8828 7.57877 30.2439 8.06648 30.5896L8.07249 30.61C8.09331 30.6192 8.11414 30.6285 8.13497 30.6379C9.09971 31.3168 10.1261 31.9348 11.1657 32.4398C12.4881 33.2727 13.8506 34.0154 15.293 34.0202C16.344 34.0236 16.4259 34.3537 16.4903 34.6131C16.5447 34.8326 16.5867 35.0016 17.1923 34.8795L17.6302 33.7005C21.2162 33.2861 23.881 31.4624 24.9703 30.717L24.9734 30.7149L24.9747 30.714L24.9758 30.7132C25.1067 30.6236 25.2104 30.5527 25.2906 30.5011L25.3027 30.4933L25.3139 30.4844C26.7024 29.3889 27.7415 26.9691 27.416 24.5413C27.0851 22.074 25.3544 19.6285 21.2708 18.4806L21.1782 18.4529L21.085 18.4869C19.7452 18.9758 16.6437 20.3208 14.6598 21.9018C13.7312 20.9617 12.3719 20.2151 11.2396 19.6987C10.6269 19.4193 10.0706 19.2028 9.66734 19.0561C9.56623 19.0194 9.47466 18.9869 9.39414 18.959ZM7.03786 29.0517C7.31481 29.2797 7.60034 29.5041 7.89285 29.7234C7.70011 28.2219 7.94404 26.5698 7.99082 27.0738C8.05314 27.7451 9.89173 31.7493 9.02082 28.4451C8.1499 25.1408 9.29505 22.8906 9.12323 23.4708C8.95141 24.0509 8.95614 26.5329 9.80392 28.3724C10.6517 30.2119 11.4867 30.6986 11.8823 30.0977C12.2172 29.589 11.1445 27.5664 10.2789 25.9343L10.2786 25.9337L10.2785 25.9336C10.1218 25.6381 9.9719 25.3555 9.83837 25.0969C9.83837 25.0969 11.5316 27.535 12.4808 29.2523C13.4301 30.9695 15.3105 31.2915 14.8094 28.8104C14.3097 26.3367 11.3393 22.4619 9.90381 20.8186C9.90775 20.8166 9.91243 20.8171 9.91571 20.8201C11.0332 21.8373 12.7185 23.7164 14.016 25.8155C14.2854 26.2513 14.5412 26.683 14.7859 27.0958C15.7038 28.6445 16.4645 29.9279 17.1923 30.1689C18.0327 30.4473 20.089 25.8858 21.4367 22.8962C21.8733 21.9277 22.2356 21.1241 22.458 20.7036L18.4628 31.459C20.597 27.2523 22.5266 22.3724 23.3978 19.9639C22.9189 19.704 22.3818 19.4689 21.7816 19.2644C19.7433 21.003 16.1867 24.2366 15.4026 25.7364C14.4829 27.4954 15.4735 23.9233 20.8617 19.2109C19.3309 19.8118 16.5347 21.0978 14.8258 22.5383L14.6035 22.7257L14.4101 22.5085C13.5717 21.5672 12.1919 20.7898 10.9916 20.2424C10.3965 19.971 9.85536 19.7604 9.46308 19.6178C9.26706 19.5465 9.10856 19.4923 8.99949 19.456C8.94496 19.4379 8.90281 19.4243 8.87454 19.4152C8.8604 19.4107 8.84974 19.4074 8.84273 19.4052L8.83498 19.4028L8.83286 19.4021L8.78291 19.3868L8.73118 19.407C7.8413 21.2254 6.43163 24.8147 6.73219 27.1451C6.7521 27.2995 6.76723 27.4232 6.7781 27.5186L6.74473 27.503C6.56941 26.4308 6.04683 22.4178 6.19383 20.1689C5.30296 20.3573 4.40108 20.7531 3.7101 21.6378C3.39941 22.0356 3.12589 22.5388 2.91555 23.1787C2.83404 23.4267 2.85172 23.7675 3.00088 24.2033C3.14872 24.6352 3.41578 25.1306 3.78884 25.6664C4.53445 26.7371 5.67762 27.9323 7.03786 29.0517Z" fill="url(#paint1_linear)"/>
<path fill-rule="evenodd" clip-rule="evenodd" d="M17.3137 7.2885C15.0034 7.68351 12.8297 10.0367 12.0316 11.1639C13.2159 8.12024 14.8581 5.14689 17.4312 4.90803C17.791 4.87462 18.2213 4.76206 18.6846 4.59827C18.6522 4.56699 18.6231 4.53589 18.5984 4.50532C18.5722 4.47298 18.5007 4.41443 18.3696 4.34306C18.2456 4.2756 18.0921 4.20929 17.9286 4.15197C17.5877 4.03246 17.2644 3.97293 17.1074 3.9875C17.0306 3.99463 16.947 4.01708 16.8461 4.0512C16.817 4.06105 16.7825 4.07337 16.7455 4.08661C16.673 4.11255 16.5906 4.142 16.5197 4.16317C16.2828 4.23386 15.9608 4.2831 15.6613 4.03653C15.6556 4.03458 15.637 4.03037 15.5961 4.03468C15.5284 4.04182 15.4359 4.06947 15.3245 4.11975C15.1133 4.21508 14.8919 4.36502 14.7464 4.48032C14.5607 4.69025 14.1013 5.05642 13.4883 5.11332C13.4032 5.12122 13.3227 5.11924 13.2466 5.10967C13.2235 5.13539 13.1979 5.16241 13.1697 5.19078C12.6742 5.68812 11.9739 9.3263 11.6856 11.0832C11.7684 7.37519 12.3411 5.62246 12.7924 4.95313C12.6677 4.88273 12.5617 4.80107 12.4724 4.73199C12.2136 4.53176 12.1 4.45234 11.9613 4.46522C11.9542 4.46588 11.9492 4.46678 11.9459 4.46755C11.9449 4.46935 11.9436 4.47179 11.9421 4.47498C11.9225 4.51801 11.9107 4.59252 11.9009 4.72784C11.9 4.74028 11.8991 4.75372 11.8981 4.76785C11.891 4.87495 11.8809 5.02594 11.8409 5.15077C11.8161 5.22807 11.7732 5.32028 11.6927 5.39717C11.6073 5.4788 11.5 5.52359 11.3835 5.53441C11.2259 5.54904 11.0689 5.52447 10.9343 5.49492C10.8501 5.47644 10.7559 5.4512 10.6717 5.42865L10.6716 5.42864C10.628 5.41696 10.5871 5.40599 10.5515 5.39704C10.4322 5.36699 10.3432 5.3507 10.2739 5.35032C10.2092 5.34997 10.1885 5.36365 10.1807 5.36996C10.1236 5.41615 10.074 5.50845 10.0461 5.64265C10.0092 5.81979 9.89142 5.94558 9.77953 6.02179C9.66765 6.09801 9.53011 6.14739 9.39324 6.15476C9.38686 6.17736 9.37839 6.22754 9.38719 6.3223C9.41478 6.61953 9.55894 6.75816 9.68385 6.82596C9.81119 6.89508 9.90752 7.00749 9.96413 7.12806C10.0206 7.24828 10.0507 7.40634 9.99933 7.56568C9.95936 7.68962 9.94627 7.80156 9.9612 7.88305C9.97316 7.9483 10.001 7.99537 10.0772 8.03199C10.3364 8.15651 10.4506 8.38864 10.5 8.59816C10.5478 8.801 10.5454 9.02402 10.5407 9.19885C10.5399 9.22767 10.5391 9.25501 10.5383 9.2808L10.5383 9.28193C10.535 9.39567 10.5325 9.48088 10.5364 9.54623C10.5686 9.55314 10.6016 9.56435 10.6345 9.58143C10.721 9.6264 10.7767 9.69677 10.8083 9.76744C10.8622 9.88787 10.8508 10.0183 10.8404 10.0949C10.8221 10.2304 10.7721 10.4029 10.7286 10.5529C10.7186 10.5875 10.7089 10.6209 10.7001 10.6524C10.6594 10.7968 10.6331 10.9086 10.6238 10.9882C10.9425 10.981 11.202 11.0997 11.3929 11.25C11.5956 11.4095 11.7293 11.6101 11.7947 11.7586L11.8142 11.803L11.8187 11.8513C11.8213 11.8796 11.8292 11.9159 11.8435 11.9497C11.8578 11.9837 11.874 12.005 11.8872 12.0165C11.8971 12.0252 11.9088 12.0322 11.9322 12.0342C11.9593 12.0366 12.0167 12.0332 12.1136 11.9905C12.202 11.9517 12.3518 11.8973 12.5036 11.9492C12.7105 12.0201 12.7547 12.2118 12.7601 12.309C12.7656 12.4057 12.7444 12.5062 12.7247 12.5833C12.7034 12.6663 12.6744 12.7561 12.6471 12.839L12.6396 12.862L12.6396 12.862C12.594 13.0007 12.5555 13.1178 12.5355 13.2114C13.006 13.2199 13.4785 12.9221 13.9223 12.5149C14.3397 12.1319 14.7899 11.6829 15.1504 11.2491C15.522 10.8021 15.7596 10.416 15.8126 10.1531C15.8736 9.85057 15.995 9.56673 16.2698 9.466C16.4031 9.41715 16.5329 9.42846 16.6385 9.45642C16.7424 9.48393 16.8401 9.53202 16.9242 9.57997C17.0093 9.62849 17.0947 9.68529 17.172 9.73704L17.1922 9.75054C17.2646 9.7991 17.3306 9.84335 17.3957 9.88263C17.5518 9.97691 17.6312 9.99606 17.6649 9.99292C17.7179 9.988 17.7745 9.96377 17.8597 9.88994C17.9209 9.83684 17.9737 9.78067 18.0393 9.71073C18.0795 9.66793 18.1246 9.61996 18.1794 9.56437C18.4503 9.28958 18.8269 8.98236 19.4837 8.92139C19.918 8.88108 20.2354 8.97995 20.4894 9.05908C20.5611 9.08139 20.6277 9.10213 20.6904 9.11774C20.9711 9.18755 21.3358 9.22197 22.0914 8.94826C22.6285 8.7537 23.1781 9.22341 23.1212 9.76693C23.1054 9.91755 23.1004 10.0523 23.1088 10.1578C23.1158 10.246 23.1302 10.2847 23.1339 10.2949C23.1353 10.2985 23.1353 10.2985 23.1332 10.296C23.2341 10.4205 23.4203 10.5782 23.6145 10.7036C23.6411 10.7208 23.6671 10.7369 23.6923 10.7518C23.6863 10.7326 23.6801 10.7127 23.6738 10.6921C23.6499 10.6145 23.6188 10.5097 23.6103 10.4181C23.5933 10.2349 23.71 10.1217 23.7826 10.0727C23.851 10.0267 23.9298 10.0001 23.9848 9.98351C24.0384 9.96731 24.099 9.95237 24.1535 9.93891L24.1717 9.93441C24.2344 9.9189 24.2933 9.90396 24.3493 9.88661C24.4705 9.84914 24.5334 9.81309 24.5601 9.78538C24.5604 9.78505 24.5609 9.78469 24.5614 9.78427C24.5668 9.77996 24.581 9.76858 24.5635 9.70197C24.503 9.47267 24.4157 9.30884 24.337 9.19964C24.2975 9.14481 24.2605 9.10426 24.2307 9.07628C24.2158 9.06231 24.2033 9.05203 24.1939 9.04494C24.1852 9.03841 24.1804 9.0356 24.1798 9.03526C24.0785 8.98055 24.0177 8.87256 24.0234 8.75762C24.029 8.6443 24.0217 8.47267 23.987 8.33181C23.9696 8.26115 23.9493 8.2151 23.9327 8.19023C23.9303 8.18659 23.9265 8.18408 23.9223 8.18296C23.587 8.09396 23.4002 7.82195 23.278 7.61757C23.2455 7.56323 23.2143 7.50769 23.1854 7.45615L23.1837 7.4532C23.1536 7.39954 23.1257 7.34996 23.0972 7.30232C23.0916 7.29291 23.086 7.28371 23.0805 7.27472C21.667 7.10498 19.2642 6.95503 17.3137 7.2885ZM23.7501 7.24085C23.7638 7.26486 23.7773 7.2881 23.7909 7.31083C23.9107 7.51125 23.9932 7.58622 24.0829 7.60715C24.2482 7.6457 24.3599 7.75334 24.4304 7.85936C24.4994 7.96313 24.5409 8.08201 24.5673 8.18876C24.6035 8.33575 24.6185 8.49181 24.6219 8.62412C24.8083 8.79171 25.0219 9.09645 25.1414 9.54965C25.2092 9.80692 25.1511 10.0332 24.9907 10.1999C24.8533 10.3425 24.6654 10.4144 24.526 10.4575C24.4518 10.4805 24.378 10.499 24.3153 10.5145L24.2991 10.5185L24.2974 10.519C24.2803 10.5232 24.2644 10.5271 24.2495 10.5309C24.2539 10.5451 24.2586 10.5601 24.2635 10.5758C24.2836 10.6397 24.3069 10.7141 24.3248 10.782C24.3469 10.8659 24.3747 10.9874 24.364 11.1016C24.3584 11.1619 24.3397 11.2507 24.2751 11.3308C24.2032 11.4199 24.104 11.4623 24.0082 11.4712C23.8736 11.4837 23.7354 11.436 23.6362 11.3938C23.5245 11.3462 23.4051 11.2798 23.2903 11.2057C23.2298 11.1666 23.168 11.1237 23.1072 11.0783C23.076 11.2372 23.0616 11.4118 23.0787 11.5959L23.2241 13.1621C23.249 13.4306 23.1409 13.6699 22.9475 13.8248C22.7584 13.9763 22.5062 14.034 22.2515 13.9949C22.0537 13.9645 21.9298 13.9887 21.8736 14.0175C21.8613 14.0237 21.8543 14.0292 21.8507 14.0325C21.8473 14.0357 21.8461 14.0376 21.8457 14.0384C21.8453 14.0391 21.8441 14.0413 21.8431 14.0467C21.842 14.0524 21.8408 14.0631 21.8424 14.0802L21.8435 14.092C21.8504 14.166 21.8588 14.2559 21.8541 14.3374C21.8487 14.4307 21.825 14.5492 21.7373 14.6548C21.6528 14.7566 21.5395 14.8093 21.4338 14.8409C21.4131 14.847 21.3917 14.8527 21.3694 14.8579C21.3595 14.9628 21.3211 15.063 21.2475 15.1516C21.1888 15.2224 21.1176 15.2726 21.044 15.308C21.0463 15.536 21.0189 15.7731 20.93 15.9904C20.8006 16.3061 20.5504 16.556 20.1495 16.6756C19.9415 16.7376 19.705 16.714 19.5055 16.6798C19.363 16.6554 19.2068 16.6188 19.062 16.5849L19.0619 16.5848C19.0008 16.5705 18.9417 16.5567 18.8865 16.5444C18.6847 16.4996 18.5249 16.4733 18.4058 16.4779C18.3489 16.48 18.3167 16.489 18.3007 16.4962C18.2889 16.5014 18.2867 16.5048 18.2842 16.5088C18.117 16.7811 18.0543 16.9525 18.0423 17.06C18.0333 17.1413 18.0515 17.1828 18.1006 17.2314C18.1691 17.2991 18.295 17.3719 18.5142 17.4638C18.6446 17.5185 18.7869 17.5719 18.9491 17.6328C19.0596 17.6743 19.1795 17.7192 19.311 17.7704C20.2424 18.1328 21.0139 18.3972 21.2794 18.483L22.1066 18.7501L21.29 19.048C19.9154 19.5496 16.7099 20.9499 14.8259 22.538L14.6036 22.7254L14.4102 22.5083C13.5719 21.5669 12.192 20.7896 10.9917 20.2422C10.3967 19.9708 9.85548 19.7602 9.4632 19.6175C9.26718 19.5462 9.10868 19.492 8.99961 19.4558C8.94508 19.4376 8.90293 19.424 8.87466 19.415C8.86052 19.4105 8.84986 19.4071 8.84285 19.4049L8.8351 19.4025L8.83333 19.402L8.83298 19.4018L8.19625 19.2062L8.76563 18.8608L8.76586 18.8607L8.7674 18.8597L8.77466 18.8552L8.7828 18.8502C8.78878 18.8464 8.79627 18.8417 8.80522 18.8361C8.83248 18.8188 8.8732 18.7926 8.92549 18.7579C9.03011 18.6884 9.18086 18.5848 9.36272 18.4501C9.7269 18.1803 10.2134 17.7875 10.7035 17.2956C11.6088 16.3869 12.4896 15.1764 12.6848 13.8046C12.5604 13.814 12.4329 13.81 12.3028 13.79C12.2312 13.779 12.1573 13.7517 12.0922 13.6997C12.027 13.6477 11.9852 13.5827 11.9602 13.5189C11.9143 13.4017 11.921 13.2793 11.9324 13.1933C11.9536 13.0328 12.0165 12.8427 12.0657 12.6938C12.0704 12.6796 12.075 12.6658 12.0794 12.6524C12.0831 12.6412 12.0867 12.6301 12.0902 12.6193C11.8595 12.6591 11.6537 12.6066 11.4932 12.4659C11.3265 12.3198 11.2556 12.1171 11.2311 11.9657C11.1939 11.8963 11.1236 11.7986 11.0233 11.7196C10.9109 11.6311 10.7694 11.5718 10.5915 11.5883C10.456 11.6009 10.2992 11.5772 10.1771 11.4604C10.0618 11.35 10.0312 11.2069 10.0243 11.1039C10.0111 10.9068 10.0746 10.6685 10.1248 10.4903C10.1377 10.4445 10.1502 10.4013 10.1619 10.3605C10.191 10.2595 10.2158 10.1737 10.2321 10.1014C10.1773 10.0783 10.1261 10.0431 10.0818 9.99394C9.99623 9.89887 9.96647 9.78298 9.95317 9.70302C9.93084 9.56883 9.93644 9.39634 9.94112 9.25235L9.94112 9.25233C9.9419 9.22827 9.94266 9.20496 9.94325 9.1828C9.94805 9.00413 9.94615 8.85333 9.91833 8.73526C9.89208 8.62387 9.85447 8.588 9.81843 8.57069C9.55245 8.44292 9.41613 8.22416 9.37336 7.99076C9.33437 7.77801 9.37349 7.56295 9.42719 7.39277C9.42649 7.3902 9.42527 7.38655 9.42314 7.38203C9.41934 7.37392 9.41406 7.36606 9.40831 7.35974C9.40284 7.35371 9.39904 7.35138 9.39874 7.3512C9.11426 7.19678 8.83973 6.89048 8.79211 6.37754C8.7719 6.15981 8.79774 5.95513 8.90959 5.79615C9.03022 5.62472 9.20813 5.565 9.36052 5.55802C9.36885 5.55764 9.38227 5.55554 9.39873 5.54987C9.41501 5.54427 9.43041 5.5365 9.44308 5.52787C9.45428 5.52024 9.46023 5.51435 9.46305 5.51109C9.50456 5.31809 9.59684 5.07373 9.80462 4.90549C9.95425 4.78433 10.1267 4.75187 10.2772 4.7527C10.4231 4.7535 10.5713 4.78572 10.6975 4.81751C10.7528 4.83144 10.8022 4.84474 10.8491 4.85737C10.9221 4.87705 10.989 4.89507 11.0625 4.91119C11.1498 4.93038 11.2208 4.94031 11.279 4.94111C11.2898 4.89208 11.2947 4.82416 11.3024 4.71749L11.3048 4.6845C11.3135 4.56421 11.3274 4.38245 11.3985 4.22663C11.4372 4.14213 11.4965 4.05529 11.5883 3.98703C11.6811 3.91804 11.7897 3.88094 11.906 3.87014C12.2961 3.83394 12.5947 4.06838 12.7932 4.22418L12.7933 4.22427C12.8088 4.23647 12.8237 4.24819 12.8381 4.25926C13.0705 4.43903 13.2266 4.53741 13.4331 4.51825C13.869 4.47778 14.207 4.19523 14.308 4.07358L14.3269 4.05081L14.3499 4.0322C14.52 3.89444 14.7964 3.70242 15.0787 3.57503C15.2191 3.51167 15.377 3.45683 15.5335 3.44034C15.6894 3.42391 15.8814 3.44254 16.0401 3.57428C16.1065 3.62944 16.1748 3.64242 16.3488 3.59049C16.4075 3.57298 16.4588 3.55449 16.5179 3.53318C16.5582 3.51866 16.6022 3.50283 16.6545 3.4851C16.7691 3.44634 16.9053 3.40607 17.0522 3.39243C17.3427 3.36546 17.7674 3.46216 18.1263 3.58799C18.3127 3.65335 18.497 3.73198 18.6553 3.81815C18.8064 3.90041 18.9616 4.00418 19.0629 4.12927C19.0968 4.17124 19.1845 4.24917 19.3286 4.34779C20.8881 3.69138 22.614 2.63651 23.2647 2.10977C23.5745 2.60815 23.7151 5.65896 23.7501 7.24085ZM10.6224 11.0782C10.6224 11.0782 10.6223 11.0775 10.622 11.0763C10.6222 11.0777 10.6224 11.0782 10.6224 11.0782ZM16.2224 10.6396C16.2281 10.63 16.2305 10.6256 16.2309 10.6254C16.2281 10.63 16.2253 10.6347 16.2224 10.6396ZM16.2309 10.6254C16.2309 10.6254 16.2309 10.6254 16.2309 10.6254C16.2659 10.5669 16.2913 10.5292 16.3107 10.5004C16.359 10.4287 16.37 10.4124 16.3985 10.2712C16.405 10.2389 16.4043 10.2158 16.4037 10.1979C16.4028 10.1688 16.4023 10.1533 16.4334 10.1345L16.4406 10.136C16.6247 10.1747 16.7699 10.2801 16.786 10.4533C16.7911 10.509 16.8102 10.557 16.8366 10.5967C16.9278 10.7341 17.1061 10.7711 17.0972 10.6748L17.0903 10.579L17.0764 10.388L17.0867 10.3942C17.1799 10.4505 17.4303 10.5553 17.4303 10.5553C17.4303 10.5553 17.8621 10.7623 18.1816 10.6964C18.6614 10.5976 18.766 10.4027 18.8591 10.2292C18.9593 10.0425 19.0462 9.88065 19.5736 9.8902C19.9714 9.89739 20.4174 9.86561 20.8276 9.83637C21.4664 9.79084 22.0185 9.75149 22.1674 9.87508C22.2585 9.95069 22.2933 10.0942 22.26 10.2424C22.2288 10.3816 22.0909 10.4612 21.9484 10.4692C21.6 10.4886 21.0968 10.4318 20.7235 10.1219C20.2345 9.71599 20.3168 10.1973 20.4191 10.4887C20.5317 10.892 20.8325 11.7818 21.1342 12.1149C21.3439 12.3464 21.4017 12.0686 21.4676 11.7518C21.5004 11.594 21.5353 11.4264 21.5919 11.3074C21.8012 11.3929 22.0577 11.4246 22.3024 11.3294C22.3492 11.3112 22.3941 11.2883 22.4371 11.2611C22.4588 11.3816 22.4695 11.4975 22.4806 11.6182C22.4816 11.6291 22.4826 11.6401 22.4836 11.6511L22.629 13.2173C22.6471 13.4121 22.3677 13.4865 22.222 13.4641C22.1863 13.4586 22.1527 13.453 22.1208 13.4476C22.07 13.4391 22.0235 13.4313 21.9793 13.4259C21.9008 13.3928 21.8241 13.3478 21.7522 13.2881C21.2632 12.8821 21.1617 13.0044 21.0602 13.1266C21.0085 13.1889 21.0583 13.4518 21.3907 13.6504C21.366 13.6797 21.3436 13.7118 21.324 13.7468C21.2571 13.8665 21.2348 14.0005 21.2474 14.1355C21.249 14.153 21.2504 14.1688 21.2517 14.1832C21.1663 14.1865 21.0755 14.1807 20.9856 14.1597C20.7088 14.0952 20.5512 13.9368 20.5069 13.8657C20.4627 13.7945 20.3316 13.6788 20.1609 13.7849C19.9476 13.9176 20.0906 14.2429 20.3144 14.2221C20.4023 14.2139 20.5118 14.2687 20.6154 14.3608C20.6947 14.479 20.7273 14.6062 20.7621 14.742L20.7707 14.7752C20.7007 14.7996 20.6208 14.8052 20.5423 14.8087C20.4597 14.7905 20.3897 14.7626 20.3628 14.7221C20.2747 14.5898 19.9221 14.6336 20.0982 14.8982C20.1654 14.9992 20.2488 15.0199 20.32 15.0376C20.3648 15.0488 20.4048 15.0587 20.433 15.0867L20.4355 15.1135C20.4597 15.375 20.4452 15.5971 20.3769 15.7638C20.3158 15.913 20.2057 16.0351 19.9787 16.1029C19.9122 16.1227 19.794 16.1229 19.6065 16.0907C19.4894 16.0707 19.3706 16.0432 19.2439 16.0136C18.8266 15.7853 18.4002 15.3518 17.9962 14.7758C17.1639 13.5893 16.7651 12.859 16.6697 12.6422C16.6773 12.7056 16.6851 12.7722 16.6933 12.8414C16.7258 13.1166 16.7454 13.4633 16.7671 13.8462C16.842 15.17 16.9415 16.9265 17.6806 17.6566C17.8373 17.8113 18.0575 17.9204 18.2831 18.015C18.4212 18.0729 18.5838 18.134 18.7569 18.1991C18.8663 18.2402 18.9799 18.2829 19.0943 18.3274C19.5538 18.5062 19.9754 18.6616 20.3189 18.7843C18.7819 19.4118 16.3266 20.5733 14.6599 21.9015C13.7313 20.9615 12.3721 20.2149 11.2397 19.6984C10.6271 19.419 10.0707 19.2025 9.66746 19.0559L9.63021 19.0424L9.58655 19.0266C9.62853 18.9964 9.67256 18.9643 9.71843 18.9303C10.0999 18.6478 10.6106 18.2357 11.1269 17.7174C11.7394 17.1026 12.1428 16.3622 12.5425 15.6288C12.9962 14.7962 13.445 13.9726 14.1892 13.3519C14.6102 13.0008 15.0716 12.7125 15.543 12.418C15.9693 12.1517 16.4037 11.8803 16.8237 11.5527C16.8501 11.5321 16.8758 11.512 16.9014 11.4923C17.0793 11.355 17.0629 10.8003 16.5035 10.8522C16.4862 10.8538 16.4684 10.8559 16.4505 10.8579C16.3407 10.8705 16.2275 10.8835 16.2059 10.7995C16.1901 10.7379 16.2137 10.6685 16.2252 10.6394C16.2287 10.6306 16.2311 10.6255 16.2309 10.6254Z" fill="url(#paint2_linear)"/>
</g>
<path fill-rule="evenodd" clip-rule="evenodd" d="M27.6004 15.9319V6.59986C27.6004 5.01658 26.5034 3.64461 24.9589 3.29627L18.4529 1.8289C15.8846 1.24966 13.2196 1.24966 10.6514 1.8289L4.14534 3.29627C2.60085 3.64461 1.50385 5.01658 1.50385 6.59986V15.9319C1.50385 20.0034 3.68371 23.7633 7.21707 25.7862L12.8695 29.0223C13.9119 29.6191 15.1924 29.6191 16.2348 29.0223L21.8872 25.7862C25.4206 23.7633 27.6004 20.0034 27.6004 15.9319ZM3.83853 1.93596C1.65809 2.42774 0.109375 4.36464 0.109375 6.59986V15.9319C0.109375 20.5034 2.55693 24.725 6.52422 26.9964L12.1766 30.2325C13.6482 31.075 15.456 31.075 16.9276 30.2325L22.58 26.9964C26.5473 24.725 28.9949 20.5034 28.9949 15.9319V6.59986C28.9949 4.36464 27.4462 2.42774 25.2657 1.93596L18.7597 0.468599C15.9894 -0.1562 13.1148 -0.156199 10.3446 0.468599L3.83853 1.93596Z" fill="url(#paint3_linear)"/>
<defs>
<linearGradient id="paint0_linear" x1="5.43584" y1="6.77201" x2="6.81963" y2="21.6787" gradientUnits="userSpaceOnUse">
<stop stop-color="#0094A7"/>
<stop offset="1" stop-color="#00C9B4"/>
</linearGradient>
<linearGradient id="paint1_linear" x1="12.7233" y1="16.9601" x2="14.6127" y2="37.3135" gradientUnits="userSpaceOnUse">
<stop stop-color="#0094A7"/>
<stop offset="1" stop-color="#00C9B4"/>
</linearGradient>
<linearGradient id="paint2_linear" x1="14.4308" y1="1.42344" x2="16.626" y2="25.0709" gradientUnits="userSpaceOnUse">
<stop stop-color="#0094A7"/>
<stop offset="1" stop-color="#00C9B4"/>
</linearGradient>
<linearGradient id="paint3_linear" x1="16.2371" y1="-2.34678" x2="16.2371" y2="34.8109" gradientUnits="userSpaceOnUse">
<stop stop-color="#0094A7"/>
<stop offset="1" stop-color="#00C9B4"/>
</linearGradient>
</defs>
</svg>
