<svg width="40" height="40" viewBox="0 0 40 40" fill="none" xmlns="http://www.w3.org/2000/svg">
<path d="M29 13.2849L27.5637 14.5866C27.4408 14.674 27.3778 14.8218 27.404 14.966V24.5347C27.3778 24.6782 27.4415 24.826 27.5645 24.9141L28.967 26.2151V26.5H21.908V26.2144L23.363 24.8807C23.504 24.7471 23.504 24.7052 23.504 24.5013V16.7701L19.4593 26.4751H18.9125L14.2085 16.7701V23.2742C14.1672 23.5492 14.264 23.8227 14.4688 24.0203L16.3587 26.1867V26.4716H11V26.1902L12.89 24.0203C13.091 23.8234 13.184 23.5449 13.1322 23.2742V15.7547C13.154 15.5465 13.0685 15.3398 12.905 15.1984L11.2272 13.2849V13H16.4442L20.4785 21.3615L24.0245 13H29V13.2849Z" fill="url(#paint0_linear)"/>
<defs>
<linearGradient id="paint0_linear" x1="11.7388" y1="13.675" x2="30.0595" y2="25.538" gradientUnits="userSpaceOnUse">
<stop offset="0.0677083" stop-color="#8591FF"/>
<stop offset="0.28125" stop-color="#63E3DD"/>
<stop offset="0.46875" stop-color="#88FFBF"/>
<stop offset="0.916667" stop-color="#CEA7FF"/>
</linearGradient>
</defs>
</svg>
