<svg width="568" height="325" viewBox="0 0 568 325" fill="none" xmlns="http://www.w3.org/2000/svg">
<rect x="410" y="105" width="158" height="40" rx="12" fill="#CEA7FF"/>
<path d="M455.04 130V118.72H456.352V130H455.04ZM458.958 130V122.224H460.222V123.552C460.478 123.061 460.841 122.693 461.31 122.448C461.78 122.203 462.308 122.08 462.894 122.08C464.74 122.08 465.662 123.104 465.662 125.152V130H464.366V125.232C464.366 124.507 464.222 123.979 463.934 123.648C463.657 123.307 463.209 123.136 462.59 123.136C461.876 123.136 461.305 123.36 460.878 123.808C460.462 124.245 460.254 124.832 460.254 125.568V130H458.958ZM471.348 130.144C470.569 130.144 469.897 129.979 469.332 129.648C468.767 129.307 468.329 128.832 468.02 128.224C467.721 127.605 467.572 126.885 467.572 126.064C467.572 124.827 467.908 123.856 468.58 123.152C469.252 122.437 470.175 122.08 471.348 122.08C471.828 122.08 472.303 122.165 472.772 122.336C473.241 122.507 473.631 122.747 473.94 123.056L473.492 124C473.183 123.701 472.841 123.483 472.468 123.344C472.105 123.205 471.759 123.136 471.428 123.136C470.617 123.136 469.993 123.392 469.556 123.904C469.119 124.405 468.9 125.131 468.9 126.08C468.9 127.008 469.119 127.744 469.556 128.288C469.993 128.821 470.617 129.088 471.428 129.088C471.759 129.088 472.105 129.019 472.468 128.88C472.841 128.741 473.183 128.517 473.492 128.208L473.94 129.152C473.631 129.461 473.236 129.707 472.756 129.888C472.287 130.059 471.817 130.144 471.348 130.144ZM478.806 130.144C477.579 130.144 476.609 129.787 475.894 129.072C475.179 128.347 474.822 127.365 474.822 126.128C474.822 125.328 474.982 124.624 475.302 124.016C475.622 123.397 476.059 122.923 476.614 122.592C477.179 122.251 477.83 122.08 478.566 122.08C479.622 122.08 480.449 122.421 481.046 123.104C481.643 123.776 481.942 124.704 481.942 125.888V126.384H476.086C476.129 127.269 476.385 127.947 476.854 128.416C477.323 128.875 477.974 129.104 478.806 129.104C479.275 129.104 479.723 129.035 480.15 128.896C480.577 128.747 480.982 128.507 481.366 128.176L481.814 129.088C481.462 129.419 481.014 129.68 480.47 129.872C479.926 130.053 479.371 130.144 478.806 130.144ZM478.598 123.04C477.862 123.04 477.281 123.269 476.854 123.728C476.427 124.187 476.177 124.789 476.102 125.536H480.822C480.79 124.747 480.582 124.133 480.198 123.696C479.825 123.259 479.291 123.04 478.598 123.04ZM483.818 130V122.224H485.082V123.552C485.338 123.061 485.7 122.693 486.17 122.448C486.639 122.203 487.167 122.08 487.754 122.08C489.599 122.08 490.522 123.104 490.522 125.152V130H489.226V125.232C489.226 124.507 489.082 123.979 488.794 123.648C488.516 123.307 488.068 123.136 487.45 123.136C486.735 123.136 486.164 123.36 485.738 123.808C485.322 124.245 485.114 124.832 485.114 125.568V130H483.818ZM496.031 130.144C495.114 130.144 494.426 129.904 493.967 129.424C493.509 128.933 493.279 128.229 493.279 127.312V123.232H491.759V122.224H493.279V119.84H494.575V122.224H497.039V123.232H494.575V127.184C494.575 127.792 494.703 128.256 494.959 128.576C495.215 128.885 495.631 129.04 496.207 129.04C496.378 129.04 496.549 129.019 496.719 128.976C496.89 128.933 497.045 128.891 497.183 128.848L497.407 129.84C497.269 129.915 497.066 129.984 496.799 130.048C496.533 130.112 496.277 130.144 496.031 130.144ZM498.345 120.288V118.832H499.945V120.288H498.345ZM498.505 130V122.224H499.801V130H498.505ZM504.512 130L501.168 122.224H502.576L505.152 128.528L507.76 122.224H509.088L505.728 130H504.512ZM513.853 130.144C512.626 130.144 511.655 129.787 510.941 129.072C510.226 128.347 509.869 127.365 509.869 126.128C509.869 125.328 510.029 124.624 510.349 124.016C510.669 123.397 511.106 122.923 511.661 122.592C512.226 122.251 512.877 122.08 513.613 122.08C514.669 122.08 515.495 122.421 516.093 123.104C516.69 123.776 516.989 124.704 516.989 125.888V126.384H511.133C511.175 127.269 511.431 127.947 511.901 128.416C512.37 128.875 513.021 129.104 513.853 129.104C514.322 129.104 514.77 129.035 515.197 128.896C515.623 128.747 516.029 128.507 516.413 128.176L516.861 129.088C516.509 129.419 516.061 129.68 515.517 129.872C514.973 130.053 514.418 130.144 513.853 130.144ZM513.645 123.04C512.909 123.04 512.327 123.269 511.901 123.728C511.474 124.187 511.223 124.789 511.149 125.536H515.869C515.837 124.747 515.629 124.133 515.245 123.696C514.871 123.259 514.338 123.04 513.645 123.04ZM521.488 130.144C520.88 130.144 520.304 130.059 519.76 129.888C519.216 129.717 518.768 129.477 518.416 129.168L518.832 128.256C519.216 128.565 519.638 128.795 520.096 128.944C520.566 129.083 521.04 129.152 521.52 129.152C522.128 129.152 522.587 129.04 522.896 128.816C523.206 128.592 523.36 128.288 523.36 127.904C523.36 127.605 523.259 127.371 523.056 127.2C522.854 127.019 522.534 126.88 522.096 126.784L520.64 126.464C519.318 126.176 518.656 125.493 518.656 124.416C518.656 123.712 518.934 123.147 519.488 122.72C520.054 122.293 520.79 122.08 521.696 122.08C522.23 122.08 522.736 122.165 523.216 122.336C523.707 122.496 524.112 122.736 524.432 123.056L524 123.968C523.691 123.68 523.328 123.461 522.912 123.312C522.507 123.152 522.102 123.072 521.696 123.072C521.099 123.072 520.646 123.189 520.336 123.424C520.027 123.659 519.872 123.968 519.872 124.352C519.872 124.949 520.267 125.333 521.056 125.504L522.512 125.808C523.195 125.957 523.712 126.197 524.064 126.528C524.416 126.848 524.592 127.285 524.592 127.84C524.592 128.555 524.31 129.12 523.744 129.536C523.179 129.941 522.427 130.144 521.488 130.144Z" fill="#0A0A0A"/>
<path d="M302.978 102V92.13H304.126V96.498H310.048V92.13H311.196V102H310.048V97.492H304.126V102H302.978ZM313.334 93.502V92.228H314.734V93.502H313.334ZM313.474 102V95.196H314.608V102H313.474ZM319.738 104.646C319.15 104.646 318.595 104.567 318.072 104.408C317.559 104.259 317.101 104.03 316.7 103.722L317.078 102.896C317.498 103.195 317.913 103.409 318.324 103.54C318.744 103.671 319.197 103.736 319.682 103.736C321.026 103.736 321.698 103.045 321.698 101.664V100.46C321.502 100.889 321.194 101.23 320.774 101.482C320.363 101.725 319.892 101.846 319.36 101.846C318.735 101.846 318.193 101.701 317.736 101.412C317.279 101.123 316.924 100.726 316.672 100.222C316.429 99.7087 316.308 99.116 316.308 98.444C316.308 97.772 316.429 97.184 316.672 96.68C316.924 96.1667 317.279 95.77 317.736 95.49C318.193 95.21 318.735 95.07 319.36 95.07C319.892 95.07 320.363 95.1913 320.774 95.434C321.194 95.6767 321.502 96.008 321.698 96.428V95.196H322.804V101.51C322.804 102.555 322.543 103.339 322.02 103.862C321.507 104.385 320.746 104.646 319.738 104.646ZM319.57 100.922C320.223 100.922 320.741 100.698 321.124 100.25C321.507 99.802 321.698 99.2 321.698 98.444C321.698 97.688 321.507 97.0907 321.124 96.652C320.741 96.204 320.223 95.98 319.57 95.98C318.926 95.98 318.413 96.204 318.03 96.652C317.647 97.0907 317.456 97.688 317.456 98.444C317.456 99.2 317.647 99.802 318.03 100.25C318.413 100.698 318.926 100.922 319.57 100.922ZM324.931 102V92.13H326.065V96.316C326.289 95.9053 326.602 95.5973 327.003 95.392C327.414 95.1773 327.871 95.07 328.375 95.07C329.99 95.07 330.797 95.966 330.797 97.758V102H329.663V97.828C329.663 97.1933 329.537 96.7313 329.285 96.442C329.043 96.1433 328.651 95.994 328.109 95.994C327.484 95.994 326.985 96.19 326.611 96.582C326.247 96.9647 326.065 97.478 326.065 98.122V102H324.931ZM336.638 102V92.13H340.544C341.608 92.13 342.42 92.3773 342.98 92.872C343.549 93.3667 343.834 94.0713 343.834 94.986C343.834 95.714 343.633 96.3113 343.232 96.778C342.84 97.2447 342.28 97.548 341.552 97.688C341.981 97.8373 342.35 98.2013 342.658 98.78L344.394 102H343.134L341.426 98.836C341.211 98.444 340.964 98.178 340.684 98.038C340.404 97.898 340.035 97.828 339.578 97.828H337.786V102H336.638ZM337.786 96.918H340.376C341.925 96.918 342.7 96.274 342.7 94.986C342.7 93.7167 341.925 93.082 340.376 93.082H337.786V96.918ZM346.003 102V92.13H349.909C350.973 92.13 351.785 92.3867 352.345 92.9C352.914 93.4133 353.199 94.146 353.199 95.098C353.199 96.0407 352.914 96.7733 352.345 97.296C351.785 97.8093 350.973 98.066 349.909 98.066H347.151V102H346.003ZM347.151 97.1H349.769C351.3 97.1 352.065 96.4327 352.065 95.098C352.065 93.754 351.3 93.082 349.769 93.082H347.151V97.1ZM282.518 118V108.13H283.666V112.498H289.588V108.13H290.736V118H289.588V113.492H283.666V118H282.518ZM292.874 109.502V108.228H294.274V109.502H292.874ZM293.014 118V111.196H294.148V118H293.014ZM299.278 120.646C298.69 120.646 298.135 120.567 297.612 120.408C297.099 120.259 296.641 120.03 296.24 119.722L296.618 118.896C297.038 119.195 297.453 119.409 297.864 119.54C298.284 119.671 298.737 119.736 299.222 119.736C300.566 119.736 301.238 119.045 301.238 117.664V116.46C301.042 116.889 300.734 117.23 300.314 117.482C299.903 117.725 299.432 117.846 298.9 117.846C298.275 117.846 297.733 117.701 297.276 117.412C296.819 117.123 296.464 116.726 296.212 116.222C295.969 115.709 295.848 115.116 295.848 114.444C295.848 113.772 295.969 113.184 296.212 112.68C296.464 112.167 296.819 111.77 297.276 111.49C297.733 111.21 298.275 111.07 298.9 111.07C299.432 111.07 299.903 111.191 300.314 111.434C300.734 111.677 301.042 112.008 301.238 112.428V111.196H302.344V117.51C302.344 118.555 302.083 119.339 301.56 119.862C301.047 120.385 300.286 120.646 299.278 120.646ZM299.11 116.922C299.763 116.922 300.281 116.698 300.664 116.25C301.047 115.802 301.238 115.2 301.238 114.444C301.238 113.688 301.047 113.091 300.664 112.652C300.281 112.204 299.763 111.98 299.11 111.98C298.466 111.98 297.953 112.204 297.57 112.652C297.187 113.091 296.996 113.688 296.996 114.444C296.996 115.2 297.187 115.802 297.57 116.25C297.953 116.698 298.466 116.922 299.11 116.922ZM304.471 118V108.13H305.605V112.316C305.829 111.905 306.142 111.597 306.543 111.392C306.954 111.177 307.411 111.07 307.915 111.07C309.53 111.07 310.337 111.966 310.337 113.758V118H309.203V113.828C309.203 113.193 309.077 112.731 308.825 112.442C308.583 112.143 308.191 111.994 307.649 111.994C307.024 111.994 306.525 112.19 306.151 112.582C305.787 112.965 305.605 113.478 305.605 114.122V118H304.471ZM316.178 118V108.13H317.326V118H316.178ZM319.606 118V111.196H320.712V112.358C320.936 111.929 321.253 111.607 321.664 111.392C322.075 111.177 322.537 111.07 323.05 111.07C324.665 111.07 325.472 111.966 325.472 113.758V118H324.338V113.828C324.338 113.193 324.212 112.731 323.96 112.442C323.717 112.143 323.325 111.994 322.784 111.994C322.159 111.994 321.659 112.19 321.286 112.582C320.922 112.965 320.74 113.478 320.74 114.122V118H319.606ZM330.447 118.126C329.766 118.126 329.178 117.981 328.683 117.692C328.188 117.393 327.806 116.978 327.535 116.446C327.274 115.905 327.143 115.275 327.143 114.556C327.143 113.473 327.437 112.624 328.025 112.008C328.613 111.383 329.42 111.07 330.447 111.07C330.867 111.07 331.282 111.145 331.693 111.294C332.104 111.443 332.444 111.653 332.715 111.924L332.323 112.75C332.052 112.489 331.754 112.297 331.427 112.176C331.11 112.055 330.806 111.994 330.517 111.994C329.808 111.994 329.262 112.218 328.879 112.666C328.496 113.105 328.305 113.739 328.305 114.57C328.305 115.382 328.496 116.026 328.879 116.502C329.262 116.969 329.808 117.202 330.517 117.202C330.806 117.202 331.11 117.141 331.427 117.02C331.754 116.899 332.052 116.703 332.323 116.432L332.715 117.258C332.444 117.529 332.099 117.743 331.679 117.902C331.268 118.051 330.858 118.126 330.447 118.126ZM336.973 118.126C335.899 118.126 335.05 117.813 334.425 117.188C333.799 116.553 333.487 115.695 333.487 114.612C333.487 113.912 333.627 113.296 333.907 112.764C334.187 112.223 334.569 111.807 335.055 111.518C335.549 111.219 336.119 111.07 336.763 111.07C337.687 111.07 338.41 111.369 338.933 111.966C339.455 112.554 339.717 113.366 339.717 114.402V114.836H334.593C334.63 115.611 334.854 116.203 335.265 116.614C335.675 117.015 336.245 117.216 336.973 117.216C337.383 117.216 337.775 117.155 338.149 117.034C338.522 116.903 338.877 116.693 339.213 116.404L339.605 117.202C339.297 117.491 338.905 117.72 338.429 117.888C337.953 118.047 337.467 118.126 336.973 118.126ZM336.791 111.91C336.147 111.91 335.638 112.111 335.265 112.512C334.891 112.913 334.672 113.441 334.607 114.094H338.737C338.709 113.403 338.527 112.867 338.191 112.484C337.864 112.101 337.397 111.91 336.791 111.91ZM341.358 118V111.196H342.464V112.358C342.688 111.929 343.005 111.607 343.416 111.392C343.827 111.177 344.289 111.07 344.802 111.07C346.417 111.07 347.224 111.966 347.224 113.758V118H346.09V113.828C346.09 113.193 345.964 112.731 345.712 112.442C345.469 112.143 345.077 111.994 344.536 111.994C343.911 111.994 343.411 112.19 343.038 112.582C342.674 112.965 342.492 113.478 342.492 114.122V118H341.358ZM352.045 118.126C351.242 118.126 350.64 117.916 350.239 117.496C349.838 117.067 349.637 116.451 349.637 115.648V112.078H348.307V111.196H349.637V109.11H350.771V111.196H352.927V112.078H350.771V115.536C350.771 116.068 350.883 116.474 351.107 116.754C351.331 117.025 351.695 117.16 352.199 117.16C352.348 117.16 352.498 117.141 352.647 117.104C352.796 117.067 352.932 117.029 353.053 116.992L353.249 117.86C353.128 117.925 352.95 117.986 352.717 118.042C352.484 118.098 352.26 118.126 352.045 118.126ZM354.07 109.502V108.228H355.47V109.502H354.07ZM354.21 118V111.196H355.344V118H354.21ZM359.465 118L356.539 111.196H357.771L360.025 116.712L362.307 111.196H363.469L360.529 118H359.465ZM367.639 118.126C366.565 118.126 365.716 117.813 365.091 117.188C364.465 116.553 364.153 115.695 364.153 114.612C364.153 113.912 364.293 113.296 364.573 112.764C364.853 112.223 365.235 111.807 365.721 111.518C366.215 111.219 366.785 111.07 367.429 111.07C368.353 111.07 369.076 111.369 369.599 111.966C370.121 112.554 370.383 113.366 370.383 114.402V114.836H365.259C365.296 115.611 365.52 116.203 365.931 116.614C366.341 117.015 366.911 117.216 367.639 117.216C368.049 117.216 368.441 117.155 368.815 117.034C369.188 116.903 369.543 116.693 369.879 116.404L370.271 117.202C369.963 117.491 369.571 117.72 369.095 117.888C368.619 118.047 368.133 118.126 367.639 118.126ZM367.457 111.91C366.813 111.91 366.304 112.111 365.931 112.512C365.557 112.913 365.338 113.441 365.273 114.094H369.403C369.375 113.403 369.193 112.867 368.857 112.484C368.53 112.101 368.063 111.91 367.457 111.91ZM374.32 118.126C373.788 118.126 373.284 118.051 372.808 117.902C372.332 117.753 371.94 117.543 371.632 117.272L371.996 116.474C372.332 116.745 372.701 116.945 373.102 117.076C373.513 117.197 373.928 117.258 374.348 117.258C374.88 117.258 375.281 117.16 375.552 116.964C375.823 116.768 375.958 116.502 375.958 116.166C375.958 115.905 375.869 115.699 375.692 115.55C375.515 115.391 375.235 115.27 374.852 115.186L373.578 114.906C372.421 114.654 371.842 114.057 371.842 113.114C371.842 112.498 372.085 112.003 372.57 111.63C373.065 111.257 373.709 111.07 374.502 111.07C374.969 111.07 375.412 111.145 375.832 111.294C376.261 111.434 376.616 111.644 376.896 111.924L376.518 112.722C376.247 112.47 375.93 112.279 375.566 112.148C375.211 112.008 374.857 111.938 374.502 111.938C373.979 111.938 373.583 112.041 373.312 112.246C373.041 112.451 372.906 112.722 372.906 113.058C372.906 113.581 373.251 113.917 373.942 114.066L375.216 114.332C375.813 114.463 376.266 114.673 376.574 114.962C376.882 115.242 377.036 115.625 377.036 116.11C377.036 116.735 376.789 117.23 376.294 117.594C375.799 117.949 375.141 118.126 374.32 118.126Z" fill="#CCCCCC"/>
<path opacity="0.3" fill-rule="evenodd" clip-rule="evenodd" d="M406 125C406 125.304 405.862 125.591 405.625 125.781L400.625 129.781C400.325 130.021 399.913 130.068 399.567 129.901C399.22 129.735 399 129.384 399 129V126H261V129C261 129.384 260.78 129.735 260.433 129.901C260.087 130.068 259.675 130.021 259.375 129.781L256.875 127.781L254.375 125.781C254.138 125.591 254 125.304 254 125C254 124.696 254.138 124.409 254.375 124.219L259.375 120.219C259.675 119.979 260.087 119.932 260.433 120.099C260.78 120.265 261 120.616 261 121V124H399V121C399 120.616 399.22 120.265 399.567 120.099C399.913 119.932 400.325 119.979 400.625 120.219L403.125 122.219L405.625 124.219C405.862 124.409 406 124.696 406 125Z" fill="#81E8FF"/>
<rect x="106" y="37" width="143" height="176" rx="12" fill="url(#paint0_linear)"/>
<path d="M114.908 16V4.72H119.372C120.588 4.72 121.516 5.00267 122.156 5.568C122.806 6.13333 123.132 6.93867 123.132 7.984C123.132 8.816 122.902 9.49867 122.444 10.032C121.996 10.5653 121.356 10.912 120.524 11.072C121.014 11.2427 121.436 11.6587 121.788 12.32L123.772 16H122.332L120.38 12.384C120.134 11.936 119.852 11.632 119.532 11.472C119.212 11.312 118.79 11.232 118.268 11.232H116.22V16H114.908ZM116.22 10.192H119.18C120.95 10.192 121.836 9.456 121.836 7.984C121.836 6.53333 120.95 5.808 119.18 5.808H116.22V10.192ZM128.767 16.144C127.54 16.144 126.57 15.7867 125.855 15.072C125.14 14.3467 124.783 13.3653 124.783 12.128C124.783 11.328 124.943 10.624 125.263 10.016C125.583 9.39733 126.02 8.92267 126.575 8.592C127.14 8.25067 127.791 8.08 128.527 8.08C129.583 8.08 130.41 8.42133 131.007 9.104C131.604 9.776 131.903 10.704 131.903 11.888V12.384H126.047C126.09 13.2693 126.346 13.9467 126.815 14.416C127.284 14.8747 127.935 15.104 128.767 15.104C129.236 15.104 129.684 15.0347 130.111 14.896C130.538 14.7467 130.943 14.5067 131.327 14.176L131.775 15.088C131.423 15.4187 130.975 15.68 130.431 15.872C129.887 16.0533 129.332 16.144 128.767 16.144ZM128.559 9.04C127.823 9.04 127.242 9.26933 126.815 9.728C126.388 10.1867 126.138 10.7893 126.063 11.536H130.783C130.751 10.7467 130.543 10.1333 130.159 9.696C129.786 9.25867 129.252 9.04 128.559 9.04ZM133.779 18.88V8.224H135.043V9.616C135.277 9.136 135.624 8.76267 136.083 8.496C136.552 8.21867 137.096 8.08 137.715 8.08C138.408 8.08 139.011 8.24533 139.523 8.576C140.045 8.896 140.445 9.36 140.723 9.968C141.011 10.5653 141.155 11.28 141.155 12.112C141.155 12.9333 141.011 13.648 140.723 14.256C140.445 14.8533 140.045 15.3173 139.523 15.648C139.011 15.9787 138.408 16.144 137.715 16.144C137.117 16.144 136.584 16.0107 136.115 15.744C135.645 15.4773 135.299 15.1093 135.075 14.64V18.88H133.779ZM137.443 15.104C138.168 15.104 138.749 14.848 139.187 14.336C139.624 13.8133 139.843 13.072 139.843 12.112C139.843 11.1413 139.624 10.4 139.187 9.888C138.749 9.376 138.168 9.12 137.443 9.12C136.717 9.12 136.136 9.376 135.699 9.888C135.261 10.4 135.043 11.1413 135.043 12.112C135.043 13.072 135.261 13.8133 135.699 14.336C136.136 14.848 136.717 15.104 137.443 15.104ZM145.859 16.144C143.992 16.144 143.059 15.1147 143.059 13.056V8.224H144.355V13.04C144.355 13.7333 144.493 14.2453 144.771 14.576C145.059 14.9067 145.507 15.072 146.115 15.072C146.776 15.072 147.315 14.8533 147.731 14.416C148.147 13.968 148.355 13.376 148.355 12.64V8.224H149.651V16H148.387V14.688C148.141 15.1573 147.795 15.52 147.347 15.776C146.909 16.0213 146.413 16.144 145.859 16.144ZM155.195 16.144C154.278 16.144 153.59 15.904 153.131 15.424C152.673 14.9333 152.443 14.2293 152.443 13.312V9.232H150.923V8.224H152.443V5.84H153.739V8.224H156.203V9.232H153.739V13.184C153.739 13.792 153.867 14.256 154.123 14.576C154.379 14.8853 154.795 15.04 155.371 15.04C155.542 15.04 155.713 15.0187 155.883 14.976C156.054 14.9333 156.209 14.8907 156.347 14.848L156.571 15.84C156.433 15.9147 156.23 15.984 155.963 16.048C155.697 16.112 155.441 16.144 155.195 16.144ZM160.117 16.144C159.584 16.144 159.104 16.0427 158.677 15.84C158.261 15.6267 157.93 15.3387 157.685 14.976C157.44 14.6133 157.317 14.208 157.317 13.76C157.317 13.1947 157.461 12.7467 157.749 12.416C158.048 12.0853 158.533 11.8507 159.205 11.712C159.888 11.5627 160.816 11.488 161.989 11.488H162.501V10.992C162.501 10.3307 162.362 9.856 162.085 9.568C161.818 9.26933 161.386 9.12 160.789 9.12C160.32 9.12 159.866 9.18933 159.429 9.328C158.992 9.456 158.544 9.66933 158.085 9.968L157.637 9.024C158.042 8.736 158.533 8.50667 159.109 8.336C159.696 8.16533 160.256 8.08 160.789 8.08C161.792 8.08 162.533 8.32533 163.013 8.816C163.504 9.30667 163.749 10.0693 163.749 11.104V16H162.533V14.656C162.33 15.1147 162.016 15.4773 161.589 15.744C161.173 16.0107 160.682 16.144 160.117 16.144ZM160.325 15.168C160.965 15.168 161.488 14.9493 161.893 14.512C162.298 14.064 162.501 13.4987 162.501 12.816V12.336H162.005C161.141 12.336 160.458 12.3787 159.957 12.464C159.466 12.5387 159.12 12.6773 158.917 12.88C158.725 13.072 158.629 13.3387 158.629 13.68C158.629 14.1173 158.778 14.4747 159.077 14.752C159.386 15.0293 159.802 15.168 160.325 15.168ZM169.274 16.144C168.356 16.144 167.668 15.904 167.21 15.424C166.751 14.9333 166.522 14.2293 166.522 13.312V9.232H165.002V8.224H166.522V5.84H167.818V8.224H170.282V9.232H167.818V13.184C167.818 13.792 167.946 14.256 168.202 14.576C168.458 14.8853 168.874 15.04 169.45 15.04C169.62 15.04 169.791 15.0187 169.962 14.976C170.132 14.9333 170.287 14.8907 170.426 14.848L170.65 15.84C170.511 15.9147 170.308 15.984 170.042 16.048C169.775 16.112 169.519 16.144 169.274 16.144ZM171.587 6.288V4.832H173.187V6.288H171.587ZM171.747 16V8.224H173.043V16H171.747ZM178.698 16.144C177.941 16.144 177.285 15.9787 176.73 15.648C176.175 15.3173 175.743 14.8533 175.434 14.256C175.135 13.648 174.986 12.9333 174.986 12.112C174.986 11.2907 175.135 10.5813 175.434 9.984C175.743 9.376 176.175 8.90667 176.73 8.576C177.285 8.24533 177.941 8.08 178.698 8.08C179.445 8.08 180.095 8.24533 180.65 8.576C181.215 8.90667 181.647 9.376 181.946 9.984C182.255 10.5813 182.41 11.2907 182.41 12.112C182.41 12.9333 182.255 13.648 181.946 14.256C181.647 14.8533 181.215 15.3173 180.65 15.648C180.095 15.9787 179.445 16.144 178.698 16.144ZM178.698 15.104C179.423 15.104 180.005 14.848 180.442 14.336C180.879 13.8133 181.098 13.072 181.098 12.112C181.098 11.1413 180.879 10.4 180.442 9.888C180.005 9.376 179.423 9.12 178.698 9.12C177.962 9.12 177.375 9.376 176.938 9.888C176.511 10.4 176.298 11.1413 176.298 12.112C176.298 13.072 176.511 13.8133 176.938 14.336C177.375 14.848 177.962 15.104 178.698 15.104ZM184.357 16V8.224H185.621V9.552C185.877 9.06133 186.239 8.69333 186.709 8.448C187.178 8.20267 187.706 8.08 188.293 8.08C190.138 8.08 191.061 9.104 191.061 11.152V16H189.765V11.232C189.765 10.5067 189.621 9.97867 189.333 9.648C189.055 9.30667 188.607 9.136 187.989 9.136C187.274 9.136 186.703 9.36 186.277 9.808C185.861 10.2453 185.653 10.832 185.653 11.568V16H184.357ZM197.736 16V4.72H202.2C203.416 4.72 204.344 5.01333 204.984 5.6C205.634 6.18667 205.96 7.024 205.96 8.112C205.96 9.18933 205.634 10.0267 204.984 10.624C204.344 11.2107 203.416 11.504 202.2 11.504H199.048V16H197.736ZM199.048 10.4H202.04C203.789 10.4 204.664 9.63733 204.664 8.112C204.664 6.576 203.789 5.808 202.04 5.808H199.048V10.4ZM210.557 16.144C209.8 16.144 209.144 15.9787 208.589 15.648C208.035 15.3173 207.603 14.8533 207.293 14.256C206.995 13.648 206.845 12.9333 206.845 12.112C206.845 11.2907 206.995 10.5813 207.293 9.984C207.603 9.376 208.035 8.90667 208.589 8.576C209.144 8.24533 209.8 8.08 210.557 8.08C211.304 8.08 211.955 8.24533 212.509 8.576C213.075 8.90667 213.507 9.376 213.805 9.984C214.115 10.5813 214.269 11.2907 214.269 12.112C214.269 12.9333 214.115 13.648 213.805 14.256C213.507 14.8533 213.075 15.3173 212.509 15.648C211.955 15.9787 211.304 16.144 210.557 16.144ZM210.557 15.104C211.283 15.104 211.864 14.848 212.301 14.336C212.739 13.8133 212.957 13.072 212.957 12.112C212.957 11.1413 212.739 10.4 212.301 9.888C211.864 9.376 211.283 9.12 210.557 9.12C209.821 9.12 209.235 9.376 208.797 9.888C208.371 10.4 208.157 11.1413 208.157 12.112C208.157 13.072 208.371 13.8133 208.797 14.336C209.235 14.848 209.821 15.104 210.557 15.104ZM218.171 16L215.275 8.224H216.635L218.827 14.48L221.099 8.224H222.203L224.443 14.496L226.667 8.224H227.963L225.051 16H223.819L221.627 9.968L219.419 16H218.171ZM232.954 16.144C231.728 16.144 230.757 15.7867 230.042 15.072C229.328 14.3467 228.97 13.3653 228.97 12.128C228.97 11.328 229.13 10.624 229.45 10.016C229.77 9.39733 230.208 8.92267 230.762 8.592C231.328 8.25067 231.978 8.08 232.714 8.08C233.77 8.08 234.597 8.42133 235.194 9.104C235.792 9.776 236.09 10.704 236.09 11.888V12.384H230.234C230.277 13.2693 230.533 13.9467 231.002 14.416C231.472 14.8747 232.122 15.104 232.954 15.104C233.424 15.104 233.872 15.0347 234.298 14.896C234.725 14.7467 235.13 14.5067 235.514 14.176L235.962 15.088C235.61 15.4187 235.162 15.68 234.618 15.872C234.074 16.0533 233.52 16.144 232.954 16.144ZM232.746 9.04C232.01 9.04 231.429 9.26933 231.002 9.728C230.576 10.1867 230.325 10.7893 230.25 11.536H234.97C234.938 10.7467 234.73 10.1333 234.346 9.696C233.973 9.25867 233.44 9.04 232.746 9.04ZM237.966 16V8.224H239.23V9.616C239.646 8.67733 240.499 8.16 241.79 8.064L242.254 8.016L242.35 9.136L241.534 9.232C240.798 9.296 240.238 9.53067 239.854 9.936C239.47 10.3307 239.278 10.8747 239.278 11.568V16H237.966Z" fill="#CCCCCC"/>
<path opacity="0.3" fill-rule="evenodd" clip-rule="evenodd" d="M106 49C106 42.3726 111.373 37 118 37H237C243.627 37 249 42.3726 249 49V201C249 207.627 243.627 213 237 213H118C111.373 213 106 207.627 106 201V126H36C33.7909 126 32 127.791 32 130V273H35C35.3844 273 35.7348 273.22 35.9013 273.567C36.0678 273.913 36.021 274.325 35.7809 274.625L33.7809 277.125L31.7809 279.625C31.5911 279.862 31.3038 280 31 280C30.6962 280 30.4089 279.862 30.2191 279.625L26.2191 274.625C25.979 274.325 25.9322 273.913 26.0987 273.567C26.2652 273.22 26.6156 273 27 273H30V128C30 125.791 31.7909 124 34 124H106V49Z" fill="#81E8FF"/>
<path d="M163.293 133V116.08H170.637C172.493 116.08 173.925 116.528 174.933 117.424C175.941 118.304 176.445 119.544 176.445 121.144C176.445 122.408 176.117 123.456 175.461 124.288C174.805 125.104 173.861 125.656 172.629 125.944C173.445 126.2 174.117 126.816 174.645 127.792L177.477 133H174.093L171.165 127.6C170.877 127.072 170.533 126.712 170.133 126.52C169.749 126.328 169.253 126.232 168.645 126.232H166.365V133H163.293ZM166.365 123.952H170.109C172.349 123.952 173.469 123.04 173.469 121.216C173.469 119.408 172.349 118.504 170.109 118.504H166.365V123.952ZM179.746 133V116.08H187.09C188.946 116.08 190.378 116.544 191.386 117.472C192.394 118.4 192.898 119.696 192.898 121.36C192.898 123.024 192.394 124.328 191.386 125.272C190.378 126.2 188.946 126.664 187.09 126.664H182.818V133H179.746ZM182.818 124.24H186.61C188.818 124.24 189.922 123.28 189.922 121.36C189.922 119.456 188.818 118.504 186.61 118.504H182.818V124.24Z" fill="#81E8FF"/>
<rect y="285" width="158" height="40" rx="12" fill="#8591FF"/>
<path d="M37.4204 310.144C36.3111 310.144 35.3618 309.909 34.5724 309.44C33.7831 308.971 33.1751 308.304 32.7484 307.44C32.3324 306.576 32.1244 305.547 32.1244 304.352C32.1244 303.168 32.3324 302.144 32.7484 301.28C33.1751 300.416 33.7831 299.749 34.5724 299.28C35.3618 298.811 36.3111 298.576 37.4204 298.576C38.1991 298.576 38.9138 298.699 39.5644 298.944C40.2258 299.189 40.7858 299.547 41.2444 300.016L40.7324 301.088C40.2418 300.629 39.7298 300.299 39.1964 300.096C38.6738 299.883 38.0924 299.776 37.4524 299.776C36.1831 299.776 35.2124 300.176 34.5404 300.976C33.8684 301.776 33.5324 302.901 33.5324 304.352C33.5324 305.813 33.8684 306.944 34.5404 307.744C35.2124 308.544 36.1831 308.944 37.4524 308.944C38.0924 308.944 38.6738 308.843 39.1964 308.64C39.7298 308.427 40.2418 308.091 40.7324 307.632L41.2444 308.704C40.7858 309.163 40.2258 309.52 39.5644 309.776C38.9138 310.021 38.1991 310.144 37.4204 310.144ZM45.7996 310.144C45.0422 310.144 44.3862 309.979 43.8316 309.648C43.2769 309.317 42.8449 308.853 42.5356 308.256C42.2369 307.648 42.0876 306.933 42.0876 306.112C42.0876 305.291 42.2369 304.581 42.5356 303.984C42.8449 303.376 43.2769 302.907 43.8316 302.576C44.3862 302.245 45.0422 302.08 45.7996 302.08C46.5462 302.08 47.1969 302.245 47.7516 302.576C48.3169 302.907 48.7489 303.376 49.0476 303.984C49.3569 304.581 49.5116 305.291 49.5116 306.112C49.5116 306.933 49.3569 307.648 49.0476 308.256C48.7489 308.853 48.3169 309.317 47.7516 309.648C47.1969 309.979 46.5462 310.144 45.7996 310.144ZM45.7996 309.104C46.5249 309.104 47.1062 308.848 47.5436 308.336C47.9809 307.813 48.1996 307.072 48.1996 306.112C48.1996 305.141 47.9809 304.4 47.5436 303.888C47.1062 303.376 46.5249 303.12 45.7996 303.12C45.0636 303.12 44.4769 303.376 44.0396 303.888C43.6129 304.4 43.3996 305.141 43.3996 306.112C43.3996 307.072 43.6129 307.813 44.0396 308.336C44.4769 308.848 45.0636 309.104 45.7996 309.104ZM53.8422 310.144C53.0529 310.144 52.4555 309.915 52.0502 309.456C51.6555 308.987 51.4582 308.309 51.4582 307.424V298.72H52.7542V307.328C52.7542 308.469 53.2075 309.04 54.1142 309.04C54.3809 309.04 54.6209 309.008 54.8342 308.944L54.8022 310.032C54.4715 310.107 54.1515 310.144 53.8422 310.144ZM58.5766 310.144C57.7872 310.144 57.1899 309.915 56.7846 309.456C56.3899 308.987 56.1926 308.309 56.1926 307.424V298.72H57.4886V307.328C57.4886 308.469 57.9419 309.04 58.8486 309.04C59.1152 309.04 59.3552 309.008 59.5686 308.944L59.5366 310.032C59.2059 310.107 58.8859 310.144 58.5766 310.144ZM63.3749 310.144C62.8416 310.144 62.3616 310.043 61.9349 309.84C61.5189 309.627 61.1883 309.339 60.9429 308.976C60.6976 308.613 60.5749 308.208 60.5749 307.76C60.5749 307.195 60.7189 306.747 61.0069 306.416C61.3056 306.085 61.7909 305.851 62.4629 305.712C63.1456 305.563 64.0736 305.488 65.2469 305.488H65.7589V304.992C65.7589 304.331 65.6203 303.856 65.3429 303.568C65.0763 303.269 64.6443 303.12 64.0469 303.12C63.5776 303.12 63.1243 303.189 62.6869 303.328C62.2496 303.456 61.8016 303.669 61.3429 303.968L60.8949 303.024C61.3003 302.736 61.7909 302.507 62.3669 302.336C62.9536 302.165 63.5136 302.08 64.0469 302.08C65.0496 302.08 65.7909 302.325 66.2709 302.816C66.7616 303.307 67.0069 304.069 67.0069 305.104V310H65.7909V308.656C65.5883 309.115 65.2736 309.477 64.8469 309.744C64.4309 310.011 63.9403 310.144 63.3749 310.144ZM63.5829 309.168C64.2229 309.168 64.7456 308.949 65.1509 308.512C65.5563 308.064 65.7589 307.499 65.7589 306.816V306.336H65.2629C64.3989 306.336 63.7163 306.379 63.2149 306.464C62.7243 306.539 62.3776 306.677 62.1749 306.88C61.9829 307.072 61.8869 307.339 61.8869 307.68C61.8869 308.117 62.0363 308.475 62.3349 308.752C62.6443 309.029 63.0603 309.168 63.5829 309.168ZM73.3473 310.144C72.7286 310.144 72.1846 310.005 71.7153 309.728C71.2566 309.451 70.91 309.072 70.6753 308.592V310H69.4113V298.72H70.7073V303.568C70.9313 303.109 71.278 302.747 71.7473 302.48C72.2166 302.213 72.75 302.08 73.3473 302.08C74.0406 302.08 74.6433 302.245 75.1553 302.576C75.678 302.896 76.078 303.36 76.3553 303.968C76.6433 304.565 76.7873 305.28 76.7873 306.112C76.7873 306.933 76.6433 307.648 76.3553 308.256C76.078 308.853 75.678 309.317 75.1553 309.648C74.6433 309.979 74.0406 310.144 73.3473 310.144ZM73.0753 309.104C73.8006 309.104 74.382 308.848 74.8193 308.336C75.2566 307.813 75.4753 307.072 75.4753 306.112C75.4753 305.141 75.2566 304.4 74.8193 303.888C74.382 303.376 73.8006 303.12 73.0753 303.12C72.35 303.12 71.7686 303.376 71.3313 303.888C70.894 304.4 70.6753 305.141 70.6753 306.112C70.6753 307.072 70.894 307.813 71.3313 308.336C71.7686 308.848 72.35 309.104 73.0753 309.104ZM81.9714 310.144C81.2141 310.144 80.5581 309.979 80.0034 309.648C79.4488 309.317 79.0168 308.853 78.7074 308.256C78.4088 307.648 78.2594 306.933 78.2594 306.112C78.2594 305.291 78.4088 304.581 78.7074 303.984C79.0168 303.376 79.4488 302.907 80.0034 302.576C80.5581 302.245 81.2141 302.08 81.9714 302.08C82.7181 302.08 83.3688 302.245 83.9234 302.576C84.4888 302.907 84.9208 303.376 85.2194 303.984C85.5288 304.581 85.6834 305.291 85.6834 306.112C85.6834 306.933 85.5288 307.648 85.2194 308.256C84.9208 308.853 84.4888 309.317 83.9234 309.648C83.3688 309.979 82.7181 310.144 81.9714 310.144ZM81.9714 309.104C82.6968 309.104 83.2781 308.848 83.7154 308.336C84.1528 307.813 84.3714 307.072 84.3714 306.112C84.3714 305.141 84.1528 304.4 83.7154 303.888C83.2781 303.376 82.6968 303.12 81.9714 303.12C81.2354 303.12 80.6488 303.376 80.2114 303.888C79.7848 304.4 79.5714 305.141 79.5714 306.112C79.5714 307.072 79.7848 307.813 80.2114 308.336C80.6488 308.848 81.2354 309.104 81.9714 309.104ZM87.6301 310V302.224H88.8941V303.616C89.3101 302.677 90.1634 302.16 91.4541 302.064L91.9181 302.016L92.0141 303.136L91.1981 303.232C90.4621 303.296 89.9021 303.531 89.5181 303.936C89.1341 304.331 88.9421 304.875 88.9421 305.568V310H87.6301ZM95.7343 310.144C95.201 310.144 94.721 310.043 94.2943 309.84C93.8783 309.627 93.5476 309.339 93.3023 308.976C93.057 308.613 92.9343 308.208 92.9343 307.76C92.9343 307.195 93.0783 306.747 93.3663 306.416C93.665 306.085 94.1503 305.851 94.8223 305.712C95.505 305.563 96.433 305.488 97.6063 305.488H98.1183V304.992C98.1183 304.331 97.9796 303.856 97.7023 303.568C97.4356 303.269 97.0036 303.12 96.4063 303.12C95.937 303.12 95.4836 303.189 95.0463 303.328C94.609 303.456 94.161 303.669 93.7023 303.968L93.2543 303.024C93.6596 302.736 94.1503 302.507 94.7263 302.336C95.313 302.165 95.873 302.08 96.4063 302.08C97.409 302.08 98.1503 302.325 98.6303 302.816C99.121 303.307 99.3663 304.069 99.3663 305.104V310H98.1503V308.656C97.9476 309.115 97.633 309.477 97.2063 309.744C96.7903 310.011 96.2996 310.144 95.7343 310.144ZM95.9423 309.168C96.5823 309.168 97.105 308.949 97.5103 308.512C97.9156 308.064 98.1183 307.499 98.1183 306.816V306.336H97.6223C96.7583 306.336 96.0756 306.379 95.5743 306.464C95.0836 306.539 94.737 306.677 94.5343 306.88C94.3423 307.072 94.2463 307.339 94.2463 307.68C94.2463 308.117 94.3956 308.475 94.6943 308.752C95.0036 309.029 95.4196 309.168 95.9423 309.168ZM104.891 310.144C103.973 310.144 103.285 309.904 102.827 309.424C102.368 308.933 102.139 308.229 102.139 307.312V303.232H100.619V302.224H102.139V299.84H103.435V302.224H105.899V303.232H103.435V307.184C103.435 307.792 103.563 308.256 103.819 308.576C104.075 308.885 104.491 309.04 105.067 309.04C105.237 309.04 105.408 309.019 105.579 308.976C105.749 308.933 105.904 308.891 106.043 308.848L106.267 309.84C106.128 309.915 105.925 309.984 105.659 310.048C105.392 310.112 105.136 310.144 104.891 310.144ZM107.204 300.288V298.832H108.804V300.288H107.204ZM107.364 310V302.224H108.66V310H107.364ZM114.315 310.144C113.558 310.144 112.902 309.979 112.347 309.648C111.793 309.317 111.361 308.853 111.051 308.256C110.753 307.648 110.603 306.933 110.603 306.112C110.603 305.291 110.753 304.581 111.051 303.984C111.361 303.376 111.793 302.907 112.347 302.576C112.902 302.245 113.558 302.08 114.315 302.08C115.062 302.08 115.713 302.245 116.267 302.576C116.833 302.907 117.265 303.376 117.563 303.984C117.873 304.581 118.027 305.291 118.027 306.112C118.027 306.933 117.873 307.648 117.563 308.256C117.265 308.853 116.833 309.317 116.267 309.648C115.713 309.979 115.062 310.144 114.315 310.144ZM114.315 309.104C115.041 309.104 115.622 308.848 116.059 308.336C116.497 307.813 116.715 307.072 116.715 306.112C116.715 305.141 116.497 304.4 116.059 303.888C115.622 303.376 115.041 303.12 114.315 303.12C113.579 303.12 112.993 303.376 112.555 303.888C112.129 304.4 111.915 305.141 111.915 306.112C111.915 307.072 112.129 307.813 112.555 308.336C112.993 308.848 113.579 309.104 114.315 309.104ZM119.974 310V302.224H121.238V303.552C121.494 303.061 121.856 302.693 122.326 302.448C122.795 302.203 123.323 302.08 123.91 302.08C125.755 302.08 126.678 303.104 126.678 305.152V310H125.382V305.232C125.382 304.507 125.238 303.979 124.95 303.648C124.672 303.307 124.224 303.136 123.606 303.136C122.891 303.136 122.32 303.36 121.894 303.808C121.478 304.245 121.27 304.832 121.27 305.568V310H119.974Z" fill="#0A0A0A"/>
<rect x="198" y="285" width="158" height="40" rx="12" fill="#8591FF"/>
<path d="M255.501 310.144C254.616 310.144 253.816 310.032 253.101 309.808C252.386 309.573 251.768 309.237 251.245 308.8L251.709 307.744C252.253 308.16 252.824 308.469 253.421 308.672C254.018 308.875 254.712 308.976 255.501 308.976C256.461 308.976 257.17 308.8 257.629 308.448C258.098 308.085 258.333 307.611 258.333 307.024C258.333 306.555 258.162 306.181 257.821 305.904C257.49 305.627 256.93 305.408 256.141 305.248L254.477 304.912C253.474 304.699 252.722 304.352 252.221 303.872C251.73 303.381 251.485 302.731 251.485 301.92C251.485 301.248 251.656 300.661 251.997 300.16C252.349 299.659 252.834 299.269 253.453 298.992C254.072 298.715 254.786 298.576 255.597 298.576C256.354 298.576 257.058 298.699 257.709 298.944C258.36 299.179 258.909 299.52 259.357 299.968L258.893 300.992C258.413 300.555 257.906 300.24 257.373 300.048C256.84 299.845 256.242 299.744 255.581 299.744C254.738 299.744 254.066 299.941 253.565 300.336C253.064 300.72 252.813 301.232 252.813 301.872C252.813 302.384 252.968 302.789 253.277 303.088C253.597 303.387 254.114 303.605 254.829 303.744L256.493 304.096C257.57 304.32 258.365 304.661 258.877 305.12C259.4 305.568 259.661 306.181 259.661 306.96C259.661 307.589 259.49 308.144 259.149 308.624C258.818 309.104 258.338 309.477 257.709 309.744C257.09 310.011 256.354 310.144 255.501 310.144ZM264.609 310.144C263.692 310.144 263.004 309.904 262.545 309.424C262.087 308.933 261.857 308.229 261.857 307.312V303.232H260.337V302.224H261.857V299.84H263.153V302.224H265.617V303.232H263.153V307.184C263.153 307.792 263.281 308.256 263.537 308.576C263.793 308.885 264.209 309.04 264.785 309.04C264.956 309.04 265.127 309.019 265.297 308.976C265.468 308.933 265.623 308.891 265.761 308.848L265.985 309.84C265.847 309.915 265.644 309.984 265.377 310.048C265.111 310.112 264.855 310.144 264.609 310.144ZM269.531 310.144C268.998 310.144 268.518 310.043 268.091 309.84C267.675 309.627 267.345 309.339 267.099 308.976C266.854 308.613 266.731 308.208 266.731 307.76C266.731 307.195 266.875 306.747 267.163 306.416C267.462 306.085 267.947 305.851 268.619 305.712C269.302 305.563 270.23 305.488 271.403 305.488H271.915V304.992C271.915 304.331 271.777 303.856 271.499 303.568C271.233 303.269 270.801 303.12 270.203 303.12C269.734 303.12 269.281 303.189 268.843 303.328C268.406 303.456 267.958 303.669 267.499 303.968L267.051 303.024C267.457 302.736 267.947 302.507 268.523 302.336C269.11 302.165 269.67 302.08 270.203 302.08C271.206 302.08 271.947 302.325 272.427 302.816C272.918 303.307 273.163 304.069 273.163 305.104V310H271.947V308.656C271.745 309.115 271.43 309.477 271.003 309.744C270.587 310.011 270.097 310.144 269.531 310.144ZM269.739 309.168C270.379 309.168 270.902 308.949 271.307 308.512C271.713 308.064 271.915 307.499 271.915 306.816V306.336H271.419C270.555 306.336 269.873 306.379 269.371 306.464C268.881 306.539 268.534 306.677 268.331 306.88C268.139 307.072 268.043 307.339 268.043 307.68C268.043 308.117 268.193 308.475 268.491 308.752C268.801 309.029 269.217 309.168 269.739 309.168ZM275.568 310V298.72H276.864V305.68H276.896L280.496 302.224H282.144L278.24 305.968L282.48 310H280.832L276.896 306.352H276.864V310H275.568ZM283.408 300.288V298.832H285.008V300.288H283.408ZM283.568 310V302.224H284.864V310H283.568ZM287.286 310V302.224H288.55V303.552C288.806 303.061 289.169 302.693 289.638 302.448C290.108 302.203 290.636 302.08 291.222 302.08C293.068 302.08 293.99 303.104 293.99 305.152V310H292.694V305.232C292.694 304.507 292.55 303.979 292.262 303.648C291.985 303.307 291.537 303.136 290.918 303.136C290.204 303.136 289.633 303.36 289.206 303.808C288.79 304.245 288.582 304.832 288.582 305.568V310H287.286ZM299.82 313.024C299.148 313.024 298.513 312.933 297.916 312.752C297.329 312.581 296.807 312.32 296.348 311.968L296.78 311.024C297.26 311.365 297.735 311.611 298.204 311.76C298.684 311.909 299.201 311.984 299.756 311.984C301.292 311.984 302.06 311.195 302.06 309.616V308.24C301.836 308.731 301.484 309.12 301.004 309.408C300.535 309.685 299.996 309.824 299.388 309.824C298.673 309.824 298.055 309.659 297.532 309.328C297.009 308.997 296.604 308.544 296.316 307.968C296.039 307.381 295.9 306.704 295.9 305.936C295.9 305.168 296.039 304.496 296.316 303.92C296.604 303.333 297.009 302.88 297.532 302.56C298.055 302.24 298.673 302.08 299.388 302.08C299.996 302.08 300.535 302.219 301.004 302.496C301.484 302.773 301.836 303.152 302.06 303.632V302.224H303.324V309.44C303.324 310.635 303.025 311.531 302.428 312.128C301.841 312.725 300.972 313.024 299.82 313.024ZM299.628 308.768C300.375 308.768 300.967 308.512 301.404 308C301.841 307.488 302.06 306.8 302.06 305.936C302.06 305.072 301.841 304.389 301.404 303.888C300.967 303.376 300.375 303.12 299.628 303.12C298.892 303.12 298.305 303.376 297.868 303.888C297.431 304.389 297.212 305.072 297.212 305.936C297.212 306.8 297.431 307.488 297.868 308C298.305 308.512 298.892 308.768 299.628 308.768Z" fill="#0A0A0A"/>
<path d="M145.317 266.126C144.851 266.126 144.431 266.037 144.057 265.86C143.693 265.673 143.404 265.421 143.189 265.104C142.975 264.787 142.867 264.432 142.867 264.04C142.867 263.545 142.993 263.153 143.245 262.864C143.507 262.575 143.931 262.369 144.519 262.248C145.117 262.117 145.929 262.052 146.955 262.052H147.403V261.618C147.403 261.039 147.282 260.624 147.039 260.372C146.806 260.111 146.428 259.98 145.905 259.98C145.495 259.98 145.098 260.041 144.715 260.162C144.333 260.274 143.941 260.461 143.539 260.722L143.147 259.896C143.502 259.644 143.931 259.443 144.435 259.294C144.949 259.145 145.439 259.07 145.905 259.07C146.783 259.07 147.431 259.285 147.851 259.714C148.281 260.143 148.495 260.811 148.495 261.716V266H147.431V264.824C147.254 265.225 146.979 265.543 146.605 265.776C146.241 266.009 145.812 266.126 145.317 266.126ZM145.499 265.272C146.059 265.272 146.517 265.081 146.871 264.698C147.226 264.306 147.403 263.811 147.403 263.214V262.794H146.969C146.213 262.794 145.616 262.831 145.177 262.906C144.748 262.971 144.445 263.093 144.267 263.27C144.099 263.438 144.015 263.671 144.015 263.97C144.015 264.353 144.146 264.665 144.407 264.908C144.678 265.151 145.042 265.272 145.499 265.272ZM153.483 266.126C152.802 266.126 152.214 265.981 151.719 265.692C151.224 265.393 150.842 264.978 150.571 264.446C150.31 263.905 150.179 263.275 150.179 262.556C150.179 261.473 150.473 260.624 151.061 260.008C151.649 259.383 152.456 259.07 153.483 259.07C153.903 259.07 154.318 259.145 154.729 259.294C155.14 259.443 155.48 259.653 155.751 259.924L155.359 260.75C155.088 260.489 154.79 260.297 154.463 260.176C154.146 260.055 153.842 259.994 153.553 259.994C152.844 259.994 152.298 260.218 151.915 260.666C151.532 261.105 151.341 261.739 151.341 262.57C151.341 263.382 151.532 264.026 151.915 264.502C152.298 264.969 152.844 265.202 153.553 265.202C153.842 265.202 154.146 265.141 154.463 265.02C154.79 264.899 155.088 264.703 155.359 264.432L155.751 265.258C155.48 265.529 155.135 265.743 154.715 265.902C154.304 266.051 153.894 266.126 153.483 266.126ZM159.827 266.126C159.146 266.126 158.558 265.981 158.063 265.692C157.568 265.393 157.186 264.978 156.915 264.446C156.654 263.905 156.523 263.275 156.523 262.556C156.523 261.473 156.817 260.624 157.405 260.008C157.993 259.383 158.8 259.07 159.827 259.07C160.247 259.07 160.662 259.145 161.073 259.294C161.484 259.443 161.824 259.653 162.095 259.924L161.703 260.75C161.432 260.489 161.134 260.297 160.807 260.176C160.49 260.055 160.186 259.994 159.897 259.994C159.188 259.994 158.642 260.218 158.259 260.666C157.876 261.105 157.685 261.739 157.685 262.57C157.685 263.382 157.876 264.026 158.259 264.502C158.642 264.969 159.188 265.202 159.897 265.202C160.186 265.202 160.49 265.141 160.807 265.02C161.134 264.899 161.432 264.703 161.703 264.432L162.095 265.258C161.824 265.529 161.479 265.743 161.059 265.902C160.648 266.051 160.238 266.126 159.827 266.126ZM165.831 266.126C164.198 266.126 163.381 265.225 163.381 263.424V259.196H164.515V263.41C164.515 264.017 164.637 264.465 164.879 264.754C165.131 265.043 165.523 265.188 166.055 265.188C166.634 265.188 167.105 264.997 167.469 264.614C167.833 264.222 168.015 263.704 168.015 263.06V259.196H169.149V266H168.043V264.852C167.829 265.263 167.525 265.58 167.133 265.804C166.751 266.019 166.317 266.126 165.831 266.126ZM171.299 266V259.196H172.405V260.344C172.61 259.933 172.895 259.621 173.259 259.406C173.623 259.182 174.048 259.07 174.533 259.07C175.597 259.07 176.278 259.532 176.577 260.456C176.782 260.027 177.086 259.691 177.487 259.448C177.888 259.196 178.35 259.07 178.873 259.07C180.385 259.07 181.141 259.966 181.141 261.758V266H180.007V261.814C180.007 261.189 179.895 260.731 179.671 260.442C179.456 260.143 179.097 259.994 178.593 259.994C178.042 259.994 177.604 260.19 177.277 260.582C176.95 260.974 176.787 261.497 176.787 262.15V266H175.653V261.814C175.653 261.189 175.541 260.731 175.317 260.442C175.102 260.143 174.743 259.994 174.239 259.994C173.679 259.994 173.236 260.19 172.909 260.582C172.592 260.974 172.433 261.497 172.433 262.15V266H171.299ZM185.669 266.126C184.036 266.126 183.219 265.225 183.219 263.424V259.196H184.353V263.41C184.353 264.017 184.475 264.465 184.717 264.754C184.969 265.043 185.361 265.188 185.893 265.188C186.472 265.188 186.943 264.997 187.307 264.614C187.671 264.222 187.853 263.704 187.853 263.06V259.196H188.987V266H187.881V264.852C187.667 265.263 187.363 265.58 186.971 265.804C186.589 266.019 186.155 266.126 185.669 266.126ZM193.195 266.126C192.504 266.126 191.982 265.925 191.627 265.524C191.282 265.113 191.109 264.521 191.109 263.746V256.13H192.243V263.662C192.243 264.661 192.64 265.16 193.433 265.16C193.666 265.16 193.876 265.132 194.063 265.076L194.035 266.028C193.746 266.093 193.466 266.126 193.195 266.126ZM197.394 266.126C196.927 266.126 196.507 266.037 196.134 265.86C195.77 265.673 195.48 265.421 195.266 265.104C195.051 264.787 194.944 264.432 194.944 264.04C194.944 263.545 195.07 263.153 195.322 262.864C195.583 262.575 196.008 262.369 196.596 262.248C197.193 262.117 198.005 262.052 199.032 262.052H199.48V261.618C199.48 261.039 199.358 260.624 199.116 260.372C198.882 260.111 198.504 259.98 197.982 259.98C197.571 259.98 197.174 260.041 196.792 260.162C196.409 260.274 196.017 260.461 195.616 260.722L195.224 259.896C195.578 259.644 196.008 259.443 196.512 259.294C197.025 259.145 197.515 259.07 197.982 259.07C198.859 259.07 199.508 259.285 199.928 259.714C200.357 260.143 200.572 260.811 200.572 261.716V266H199.508V264.824C199.33 265.225 199.055 265.543 198.682 265.776C198.318 266.009 197.888 266.126 197.394 266.126ZM197.576 265.272C198.136 265.272 198.593 265.081 198.948 264.698C199.302 264.306 199.48 263.811 199.48 263.214V262.794H199.046C198.29 262.794 197.692 262.831 197.254 262.906C196.824 262.971 196.521 263.093 196.344 263.27C196.176 263.438 196.092 263.671 196.092 263.97C196.092 264.353 196.222 264.665 196.484 264.908C196.754 265.151 197.118 265.272 197.576 265.272ZM205.405 266.126C204.603 266.126 204.001 265.916 203.599 265.496C203.198 265.067 202.997 264.451 202.997 263.648V260.078H201.667V259.196H202.997V257.11H204.131V259.196H206.287V260.078H204.131V263.536C204.131 264.068 204.243 264.474 204.467 264.754C204.691 265.025 205.055 265.16 205.559 265.16C205.709 265.16 205.858 265.141 206.007 265.104C206.157 265.067 206.292 265.029 206.413 264.992L206.609 265.86C206.488 265.925 206.311 265.986 206.077 266.042C205.844 266.098 205.62 266.126 205.405 266.126ZM210.568 266.126C209.494 266.126 208.645 265.813 208.02 265.188C207.394 264.553 207.082 263.695 207.082 262.612C207.082 261.912 207.222 261.296 207.502 260.764C207.782 260.223 208.164 259.807 208.65 259.518C209.144 259.219 209.714 259.07 210.358 259.07C211.282 259.07 212.005 259.369 212.528 259.966C213.05 260.554 213.312 261.366 213.312 262.402V262.836H208.188C208.225 263.611 208.449 264.203 208.86 264.614C209.27 265.015 209.84 265.216 210.568 265.216C210.978 265.216 211.37 265.155 211.744 265.034C212.117 264.903 212.472 264.693 212.808 264.404L213.2 265.202C212.892 265.491 212.5 265.72 212.024 265.888C211.548 266.047 211.062 266.126 210.568 266.126ZM210.386 259.91C209.742 259.91 209.233 260.111 208.86 260.512C208.486 260.913 208.267 261.441 208.202 262.094H212.332C212.304 261.403 212.122 260.867 211.786 260.484C211.459 260.101 210.992 259.91 210.386 259.91Z" fill="#CCCCCC"/>
<path opacity="0.8" fill-rule="evenodd" clip-rule="evenodd" d="M161.456 219.602C161.486 219.3 161.376 219.001 161.159 218.789C160.941 218.576 160.639 218.475 160.338 218.512L157.16 218.905L153.983 219.299C153.602 219.346 153.281 219.608 153.158 219.972C153.036 220.336 153.133 220.739 153.408 221.007L155.438 222.987L87.3252 285.262L88.6747 286.738L156.872 224.386L159.135 226.593C159.41 226.861 159.815 226.948 160.176 226.816C160.537 226.684 160.791 226.357 160.828 225.975L161.456 219.602Z" fill="#8591FF"/>
<path opacity="0.8" fill-rule="evenodd" clip-rule="evenodd" d="M198.005 220.098C197.975 219.796 198.084 219.496 198.302 219.284C198.519 219.072 198.821 218.97 199.123 219.008L202.3 219.401L205.478 219.794C205.859 219.841 206.18 220.103 206.302 220.467C206.425 220.832 206.328 221.234 206.053 221.503L204.022 223.483L272.135 285.758L270.786 287.234L202.588 224.882L200.326 227.088C200.051 227.357 199.646 227.443 199.285 227.312C198.924 227.18 198.67 226.853 198.632 226.47L198.005 220.098Z" fill="#8591FF"/>
<defs>
<linearGradient id="paint0_linear" x1="115.071" y1="42.0619" x2="283.837" y2="139.635" gradientUnits="userSpaceOnUse">
<stop stop-color="#3A3A3A"/>
<stop offset="0.78125" stop-color="#020202"/>
</linearGradient>
</defs>
</svg>
