<svg width="52" height="50" viewBox="0 0 52 50" fill="none" xmlns="http://www.w3.org/2000/svg">
<path d="M51.165 25.8375C50.956 25.2953 50.5872 24.8293 50.1076 24.5012C49.6279 24.1731 49.0599 23.9983 48.4788 24H45.25V4.75C45.25 3.58968 44.7891 2.47688 43.9686 1.65641C43.1482 0.835936 42.0354 0.375 40.875 0.375H11.125C9.96472 0.375 8.85193 0.835936 8.03146 1.65641C7.21098 2.47688 6.75005 3.58968 6.75005 4.75V24H3.51255C2.93227 23.998 2.36494 24.1715 1.88496 24.4976C1.40499 24.8237 1.03476 25.2872 0.822845 25.8274C0.610928 26.3676 0.567211 26.9592 0.697427 27.5247C0.827643 28.0902 1.12571 28.6031 1.55255 28.9963L21.695 47.625C22.8496 48.7433 24.3927 49.3705 26 49.375C27.5971 49.3707 29.1293 48.7427 30.27 47.625L50.395 28.9525C50.819 28.569 51.1189 28.0676 51.256 27.5127C51.3932 26.9577 51.3615 26.3744 51.165 25.8375ZM27.8725 45.14C27.3678 45.6312 26.6912 45.906 25.9869 45.906C25.2826 45.906 24.6061 45.6312 24.1013 45.14L5.08755 27.5H8.50005C8.96418 27.5 9.4093 27.3156 9.73748 26.9874C10.0657 26.6593 10.25 26.2141 10.25 25.75V4.75C10.25 4.51794 10.3422 4.29538 10.5063 4.13128C10.6704 3.96719 10.893 3.875 11.125 3.875H40.875C41.1071 3.875 41.3297 3.96719 41.4938 4.13128C41.6579 4.29538 41.75 4.51794 41.75 4.75V25.75C41.75 26.2141 41.9344 26.6593 42.2626 26.9874C42.5908 27.3156 43.0359 27.5 43.5 27.5H46.9125L27.8725 45.14Z" fill="url(#paint0_linear)"/>
<path d="M26 19.625H24.25C23.7859 19.625 23.3407 19.4406 23.0125 19.1124C22.6844 18.7842 22.5 18.3391 22.5 17.875C22.5 17.4109 22.6844 16.9658 23.0125 16.6376C23.3407 16.3094 23.7859 16.125 24.25 16.125H28.625C29.0891 16.125 29.5342 15.9406 29.8624 15.6124C30.1906 15.2842 30.375 14.8391 30.375 14.375C30.375 13.9109 30.1906 13.4658 29.8624 13.1376C29.5342 12.8094 29.0891 12.625 28.625 12.625H27.75V11.75C27.75 11.2859 27.5656 10.8408 27.2374 10.5126C26.9092 10.1844 26.4641 10 26 10C25.5359 10 25.0907 10.1844 24.7625 10.5126C24.4344 10.8408 24.25 11.2859 24.25 11.75V12.625C22.8576 12.625 21.5222 13.1781 20.5377 14.1627C19.5531 15.1473 19 16.4826 19 17.875C19 19.2674 19.5531 20.6027 20.5377 21.5873C21.5222 22.5719 22.8576 23.125 24.25 23.125H26C26.4641 23.125 26.9092 23.3094 27.2374 23.6376C27.5656 23.9658 27.75 24.4109 27.75 24.875V25.75C27.75 26.2141 27.5656 26.6593 27.2374 26.9874C26.9092 27.3156 26.4641 27.5 26 27.5H21.625C21.1609 27.5 20.7157 27.6844 20.3875 28.0126C20.0594 28.3407 19.875 28.7859 19.875 29.25C19.875 29.7141 20.0594 30.1593 20.3875 30.4874C20.7157 30.8156 21.1609 31 21.625 31H22.5V31.875C22.5 32.3391 22.6844 32.7843 23.0125 33.1124C23.3407 33.4406 23.7859 33.625 24.25 33.625C24.7141 33.625 25.1592 33.4406 25.4874 33.1124C25.8156 32.7843 26 32.3391 26 31.875V31C27.3924 31 28.7277 30.4469 29.7123 29.4623C30.6969 28.4777 31.25 27.1424 31.25 25.75V24.875C31.25 23.4826 30.6969 22.1473 29.7123 21.1627C28.7277 20.1781 27.3924 19.625 26 19.625Z" fill="url(#paint1_linear)"/>
<defs>
<linearGradient id="paint0_linear" x1="25.982" y1="0.375" x2="25.982" y2="49.375" gradientUnits="userSpaceOnUse">
<stop stop-color="#8591FF"/>
<stop offset="1" stop-color="#4A55BE"/>
</linearGradient>
<linearGradient id="paint1_linear" x1="25.125" y1="10" x2="25.125" y2="33.625" gradientUnits="userSpaceOnUse">
<stop stop-color="#8591FF"/>
<stop offset="1" stop-color="#4A55BE"/>
</linearGradient>
</defs>
</svg>
