<svg width="96" height="96" viewBox="0 0 96 96" fill="none" xmlns="http://www.w3.org/2000/svg">
<path d="M68.9071 34.5194L47.4383 12.5691C47.2229 12.3489 46.9368 12.2114 46.6302 12.1808C46.3236 12.1502 46.016 12.2285 45.7613 12.4019L27.2926 24.9749C27.0657 25.1294 26.8931 25.3511 26.7989 25.6089C26.7047 25.8667 26.6938 26.1476 26.7676 26.4119L33.4111 50.2154L28.6598 64.6499C28.5833 64.8835 28.5739 65.1339 28.6327 65.3726C28.6916 65.6113 28.8164 65.8287 28.9928 65.9999L46.9928 83.4509C47.2377 83.6883 47.5653 83.8212 47.9063 83.8214C47.9502 83.8214 47.994 83.8191 48.0376 83.8146C48.2276 83.7954 48.4111 83.735 48.5753 83.6376C48.7396 83.5402 48.8806 83.4081 48.9886 83.2506L69.0511 53.9924C69.2013 53.7739 69.2816 53.515 69.2814 53.2499V35.4374C69.2813 35.0942 69.147 34.7647 68.9071 34.5194ZM47.0881 15.9651L66.4179 35.7284L61.5001 47.2604L41.4608 33.6164L47.0881 15.9651ZM39.1973 32.0759L30.3638 26.0624L44.0948 16.7129L39.1973 32.0759ZM60.4546 49.7249L47.9341 79.0986L36.1756 50.1959L40.6291 36.2249L60.4546 49.7249ZM62.6663 51.2249L66.1419 53.5904L54.2926 70.8749L62.6663 51.2249ZM63.7164 48.7634L66.6571 41.8634V50.7681L63.7164 48.7634ZM30.2603 29.1674L38.3656 34.6851L34.8653 45.6666L30.2603 29.1674ZM34.9103 54.0531L44.3378 77.2281L31.4101 64.6919L34.9103 54.0531Z" fill="url(#paint0_linear)"/>
<defs>
<linearGradient id="paint0_linear" x1="28.4662" y1="15.7567" x2="85.2259" y2="32.1316" gradientUnits="userSpaceOnUse">
<stop offset="0.00520833" stop-color="#12A9AF"/>
<stop offset="0.307292" stop-color="#63E3DD"/>
<stop offset="0.583333" stop-color="#88FFBF"/>
<stop offset="0.932292" stop-color="#CEA7FF"/>
</linearGradient>
</defs>
</svg>
