<svg width="80" height="80" viewBox="0 0 80 80" fill="none" xmlns="http://www.w3.org/2000/svg">
<path d="M75.6732 12.1718C74.9255 10.8597 73.9006 9.7265 72.6701 8.85109C71.4395 7.97568 70.0329 7.37914 68.5482 7.10305L67.7501 3.80492C67.7162 3.66496 67.6551 3.53306 67.5701 3.41679C67.4852 3.30052 67.3781 3.20217 67.2551 3.12737C67.132 3.05258 66.9954 3.00282 66.8531 2.98095C66.7107 2.95908 66.5655 2.96553 66.4257 2.99993L60.3007 4.48305C60.0188 4.55146 59.7756 4.72899 59.6245 4.97662C59.4735 5.22425 59.4269 5.52173 59.4951 5.80367L60.0788 8.2143L19.4376 18.0555C19.1564 18.1245 18.914 18.3021 18.7635 18.5494C18.613 18.7967 18.5666 19.0935 18.6344 19.3749L19.0263 20.993L11.6463 22.7806C11.3644 22.849 11.1212 23.0265 10.9702 23.2741C10.8191 23.5217 10.7725 23.8192 10.8407 24.1012L11.4188 26.4887L3.8088 28.3305C3.66918 28.3643 3.53759 28.4253 3.42154 28.51C3.30549 28.5947 3.20725 28.7013 3.13244 28.824C3.05763 28.9466 3.00771 29.0828 2.98553 29.2247C2.96335 29.3666 2.96935 29.5116 3.00318 29.6512L4.40943 35.4574C4.46714 35.6958 4.60325 35.9079 4.79592 36.0596C4.98859 36.2114 5.22666 36.294 5.47193 36.2943C5.55889 36.294 5.64552 36.2835 5.73005 36.263L13.3394 34.4212L13.9157 36.8012C13.9734 37.0395 14.1095 37.2516 14.3022 37.4034C14.4948 37.5551 14.7329 37.6378 14.9782 37.638C15.0652 37.638 15.1518 37.6275 15.2363 37.6068L22.6169 35.8205L23.0094 37.4393C23.0674 37.6775 23.2035 37.8894 23.3962 38.041C23.5888 38.1926 23.8268 38.2752 24.0719 38.2755C24.1589 38.2755 24.2456 38.265 24.3301 38.2443L35.2613 35.5955C35.3926 36.2229 35.6476 36.8178 36.0113 37.3455L18.5982 72.7537C18.3763 73.2061 18.2733 73.7075 18.2987 74.2108C18.324 74.714 18.477 75.2026 18.7433 75.6304C19.0095 76.0582 19.3802 76.4112 19.8205 76.6563C20.2608 76.9013 20.7562 77.0303 21.26 77.0312C21.8144 77.0287 22.3571 76.872 22.8274 76.5786C23.2978 76.2852 23.6772 75.8667 23.9232 75.3699L37.0351 48.703V74.0624C37.0351 74.8498 37.3478 75.6049 37.9046 76.1616C38.4613 76.7184 39.2164 77.0312 40.0038 77.0312C40.7912 77.0312 41.5463 76.7184 42.103 76.1616C42.6598 75.6049 42.9725 74.8498 42.9725 74.0624V48.703L56.0844 75.3699C56.3306 75.8671 56.7104 76.2858 57.1812 76.5792C57.6521 76.8726 58.1953 77.0291 58.7501 77.0312C59.2031 77.033 59.6503 76.9285 60.0557 76.7262C60.4058 76.5548 60.7187 76.3161 60.9765 76.0237C61.2342 75.7312 61.4318 75.3909 61.5578 75.022C61.6838 74.6531 61.7359 74.263 61.711 73.874C61.686 73.485 61.5846 73.1047 61.4126 72.7549L44.0001 37.343C44.4007 36.7626 44.6684 36.101 44.784 35.4052C44.8996 34.7095 44.8602 33.9968 44.6688 33.318L64.9694 28.3955L65.5544 30.8093C65.6228 31.0912 65.8004 31.3344 66.048 31.4854C66.2956 31.6365 66.5931 31.6831 66.8751 31.6149L73.0001 30.1312C73.1397 30.0974 73.2714 30.0365 73.3875 29.9519C73.5035 29.8672 73.6018 29.7605 73.6766 29.6379C73.7515 29.5152 73.8014 29.379 73.8235 29.2371C73.8457 29.0951 73.8396 28.9502 73.8057 28.8105L73.0076 25.5143C74.9799 23.981 76.3346 21.7891 76.824 19.3392C77.3135 16.8894 76.905 14.3453 75.6732 12.1718ZM6.27818 33.8793L5.38693 30.1993L11.9332 28.6149L12.8244 32.2949L6.27818 33.8793ZM15.7844 35.2237L15.2144 32.8693C15.2144 32.8605 15.2144 32.8518 15.2107 32.843C15.2069 32.8343 15.2044 32.8262 15.2019 32.8174L13.8076 27.0624C13.8076 27.0543 13.8076 27.0468 13.8076 27.0393C13.8076 27.0318 13.8019 27.0249 13.8001 27.0168L13.2269 24.6518L19.5444 23.123L22.1069 33.6968L15.7844 35.2237ZM42.2251 33.1612C42.5586 33.6689 42.707 34.2761 42.645 34.8804C42.5831 35.4847 42.3147 36.0492 41.8851 36.4787L41.8794 36.4855C41.6331 36.7322 41.3405 36.9279 41.0185 37.0615C40.6964 37.195 40.3512 37.2637 40.0026 37.2637C39.6539 37.2637 39.3087 37.195 38.9867 37.0615C38.6646 36.9279 38.372 36.7322 38.1257 36.4855L38.1201 36.4787C37.8573 36.2156 37.6528 35.9002 37.5198 35.5529C37.3867 35.2057 37.3281 34.8344 37.3478 34.4631C37.3675 34.0918 37.465 33.7287 37.634 33.3975C37.803 33.0663 38.0397 32.7743 38.3288 32.5404C38.6178 32.3065 38.9528 32.136 39.312 32.0399C39.6713 31.9438 40.0467 31.9243 40.4139 31.9826C40.7811 32.0409 41.132 32.1757 41.4438 32.3783C41.7556 32.5809 42.0214 32.8468 42.2238 33.1587L42.2251 33.1612ZM21.9594 74.4055C21.8913 74.5438 21.7838 74.6587 21.6504 74.7359C21.517 74.813 21.3638 74.849 21.21 74.8391C21.0563 74.8293 20.9088 74.7742 20.7864 74.6806C20.6639 74.5871 20.5719 74.4594 20.5219 74.3137C20.4886 74.2171 20.4749 74.1148 20.4816 74.0129C20.4882 73.911 20.5151 73.8114 20.5607 73.7199L37.0351 40.2124V43.7462L21.9594 74.4055ZM40.0038 74.843C39.7966 74.8429 39.598 74.7605 39.4516 74.614C39.3051 74.4676 39.2227 74.2689 39.2226 74.0618V39.3843C39.7394 39.476 40.2682 39.476 40.785 39.3843V74.0624C40.7849 74.2696 40.7025 74.4682 40.556 74.6147C40.4096 74.7611 40.2109 74.8435 40.0038 74.8437V74.843ZM59.4857 74.313C59.4521 74.4114 59.3992 74.502 59.3301 74.5796C59.2609 74.6572 59.177 74.7202 59.0832 74.7649C58.8972 74.849 58.6861 74.8584 58.4934 74.7913C58.3007 74.7242 58.1411 74.5857 58.0476 74.4043L42.9725 43.7462V40.2124L59.4476 73.7218C59.4927 73.8128 59.5193 73.9119 59.5259 74.0133C59.5324 74.1147 59.5188 74.2164 59.4857 74.3124V74.313ZM40.0038 29.7655C38.9435 29.7674 37.9131 30.1168 37.0704 30.7603C36.2277 31.4037 35.6192 32.3057 35.3382 33.328L24.8751 35.8612L21.4088 21.5487V21.5437V21.538L21.0182 19.9249L60.5951 10.3399L64.4532 26.2693L43.5625 31.3349C43.1107 30.8408 42.5609 30.4461 41.9482 30.1759C41.3356 29.9057 40.6734 29.766 40.0038 29.7655ZM67.4219 29.2312L62.4719 8.79367C62.4719 8.78242 62.4719 8.77117 62.4669 8.75992C62.4619 8.74867 62.4588 8.7393 62.4563 8.72867L61.8801 6.35367L65.8801 5.38492L71.4226 28.2649L67.4219 29.2312ZM69.1282 9.50867C70.4719 9.93281 71.6834 10.6967 72.6453 11.7265C73.6072 12.7562 74.2869 14.0168 74.6186 15.3863C74.9503 16.7558 74.9228 18.1878 74.5387 19.5435C74.1547 20.8993 73.427 22.1329 72.4263 23.1249L69.1282 9.50867Z" fill="url(#paint0_linear)"/>
<defs>
<linearGradient id="paint0_linear" x1="6.01191" y1="6.67141" x2="92.5762" y2="48.7051" gradientUnits="userSpaceOnUse">
<stop offset="0.00520833" stop-color="#12A9AF"/>
<stop offset="0.307292" stop-color="#63E3DD"/>
<stop offset="0.583333" stop-color="#88FFBF"/>
<stop offset="0.932292" stop-color="#CEA7FF"/>
</linearGradient>
</defs>
</svg>
