<svg width="40" height="40" viewBox="0 0 40 40" fill="none" xmlns="http://www.w3.org/2000/svg">
<path d="M26.8738 15.3735C27.6174 15.2765 28.3306 15.0769 29 14.7758C28.4983 15.5419 27.8829 16.2077 27.1505 16.7408C27.1584 16.9012 27.164 17.0627 27.164 17.23C27.164 22.2308 23.4515 28 16.661 28C14.5719 28 12.6346 27.3827 11 26.3015C11.2903 26.3396 11.5805 26.3535 11.8831 26.3535C13.6089 26.3535 15.203 25.7465 16.4585 24.7392C14.8453 24.7035 13.4885 23.6015 13.0104 22.1027C13.2343 22.1535 13.4728 22.1673 13.709 22.1673C14.0488 22.1673 14.3761 22.1269 14.6765 22.0427C12.9991 21.6908 11.72 20.1631 11.72 18.3238V18.2823C12.2127 18.5604 12.7944 18.7369 13.3872 18.7485C12.4062 18.0758 11.7481 16.9138 11.7481 15.6031C11.7481 14.905 11.9349 14.2565 12.2533 13.69C14.0769 15.9873 16.7915 17.4954 19.8594 17.6488C19.7986 17.3742 19.7739 17.0858 19.7739 16.7858C19.7739 14.7008 21.4186 13 23.4616 13C24.5146 13 25.4799 13.4581 26.1571 14.1977C26.9964 14.0258 27.7839 13.7177 28.4971 13.2815C28.2226 14.1688 27.6388 14.905 26.8738 15.3735Z" fill="url(#paint0_linear)"/>
<defs>
<linearGradient id="paint0_linear" x1="11.7388" y1="13.75" x2="31.149" y2="25.0616" gradientUnits="userSpaceOnUse">
<stop offset="0.0677083" stop-color="#8591FF"/>
<stop offset="0.28125" stop-color="#63E3DD"/>
<stop offset="0.46875" stop-color="#88FFBF"/>
<stop offset="0.916667" stop-color="#CEA7FF"/>
</linearGradient>
</defs>
</svg>
